<svg xmlns="http://www.w3.org/2000/svg" width="113.622" height="37.981"><g id="Download_on_the_App_Store_Badge_PTBR_RGB_blk_092917"><g id="Grupo_213" data-name="Grupo 213"><g id="Grupo_211" data-name="Grupo 211"><path id="Caminho_876" data-name="Caminho 876" d="M104.574 0H8.014c-.291 0-.579.007-.873.012a12.547 12.547 0 0 0-1.9.168 6.328 6.328 0 0 0-1.8.6A6.113 6.113 0 0 0 1.9 1.9 5.942 5.942 0 0 0 .778 3.435a6.268 6.268 0 0 0-.593 1.808 12.337 12.337 0 0 0-.17 1.9C.006 7.435 0 7.727 0 8.018v21.947c0 .295.006.58.014.875a12.336 12.336 0 0 0 .17 1.9 6.255 6.255 0 0 0 .594 1.81A5.894 5.894 0 0 0 1.9 36.083 5.958 5.958 0 0 0 3.434 37.2a6.362 6.362 0 0 0 1.8.6 12.775 12.775 0 0 0 1.9.168c.293.006.582.01.873.01h97.589c.289 0 .586 0 .875-.01a12.608 12.608 0 0 0 1.9-.168 6.461 6.461 0 0 0 1.812-.6 5.96 5.96 0 0 0 1.536-1.119 6.072 6.072 0 0 0 1.122-1.533 6.271 6.271 0 0 0 .588-1.808 12.826 12.826 0 0 0 .176-1.9v-.875c.007-.345.007-.688.007-1.039V9.055c0-.348 0-.693-.007-1.037v-.874a12.823 12.823 0 0 0-.176-1.9 6.283 6.283 0 0 0-.588-1.807 6.14 6.14 0 0 0-2.652-2.66 6.426 6.426 0 0 0-1.812-.6 12.385 12.385 0 0 0-1.9-.168c-.289 0-.586-.01-.875-.012h-1.029Z" fill="#a6a6a6"/><path id="Caminho_877" data-name="Caminho 877" d="M8.063 37.194c-.289 0-.572 0-.859-.01a12.047 12.047 0 0 1-1.775-.155 5.587 5.587 0 0 1-1.573-.52 5.133 5.133 0 0 1-1.326-.965 5.052 5.052 0 0 1-.969-1.326 5.433 5.433 0 0 1-.516-1.574 11.787 11.787 0 0 1-.158-1.78C.881 30.663.873 30 .873 30V8.062s.008-.657.014-.849a11.746 11.746 0 0 1 .157-1.778 5.465 5.465 0 0 1 .516-1.578 5.1 5.1 0 0 1 .964-1.327 5.284 5.284 0 0 1 1.332-.971 5.529 5.529 0 0 1 1.57-.516 11.95 11.95 0 0 1 1.78-.156l.857-.012h97.58l.867.012a11.759 11.759 0 0 1 1.765.154 5.639 5.639 0 0 1 1.587.52 5.311 5.311 0 0 1 2.293 2.3 5.472 5.472 0 0 1 .508 1.566 12.338 12.338 0 0 1 .165 1.792v.845c.007.356.007.695.007 1.037v19.87c0 .345 0 .682-.007 1.021v.883a12.093 12.093 0 0 1-.162 1.76 5.45 5.45 0 0 1-.513 1.586 5.2 5.2 0 0 1-.964 1.316 5.14 5.14 0 0 1-1.329.971 5.566 5.566 0 0 1-1.584.522 11.909 11.909 0 0 1-1.775.155c-.278.006-.569.01-.852.01h-1.029Z" transform="translate(-.044 -.044)"/></g><g id="_Group_" data-name="&lt;Group&gt;" transform="translate(9.468 8.28)"><g id="_Group_2" data-name="&lt;Group&gt;"><g id="_Group_3" data-name="&lt;Group&gt;" fill="#fff"><path id="_Path_" data-name="&lt;Path&gt;" d="M24.022 19.981a4.7 4.7 0 0 1 2.238-3.942 4.81 4.81 0 0 0-3.79-2.049c-1.594-.167-3.14.954-3.953.954-.828 0-2.079-.937-3.426-.91a5.047 5.047 0 0 0-4.247 2.59c-1.836 3.179-.467 7.852 1.292 10.422.88 1.258 1.909 2.664 3.255 2.614 1.317-.055 1.809-.84 3.4-.84s2.036.84 3.41.808c1.413-.023 2.3-1.264 3.153-2.534a10.408 10.408 0 0 0 1.442-2.936 4.541 4.541 0 0 1-2.772-4.177Z" transform="translate(-9.972 -8.985)"/><path id="_Path_2" data-name="&lt;Path&gt;" d="M21.873 12.035a4.627 4.627 0 0 0 1.059-3.315 4.707 4.707 0 0 0-3.046 1.58 4.4 4.4 0 0 0-1.086 3.188 3.892 3.892 0 0 0 3.073-1.453Z" transform="translate(-10.417 -8.72)"/></g></g><g id="Grupo_212" data-name="Grupo 212" transform="translate(23.221 8.689)" fill="#fff"><path id="Caminho_878" data-name="Caminho 878" d="M41.9 26.682h-4.49l-1.079 3.187h-1.9l4.257-11.791h1.978l4.257 11.791h-1.94Zm-4.029-1.471h3.563l-1.756-5.172h-.049Z" transform="translate(-34.427 -17.881)"/><path id="Caminho_879" data-name="Caminho 879" d="M54.729 25.736c0 2.671-1.43 4.388-3.588 4.388a2.914 2.914 0 0 1-2.7-1.5H48.4v4.258h-1.769V21.438h1.708v1.43h.032a3.049 3.049 0 0 1 2.737-1.52c2.183 0 3.621 1.724 3.621 4.388Zm-1.814 0c0-1.74-.9-2.885-2.272-2.885-1.348 0-2.255 1.168-2.255 2.885 0 1.732.907 2.892 2.255 2.892 1.372 0 2.272-1.136 2.272-2.892Z" transform="translate(-35.044 -18.046)"/><path id="Caminho_880" data-name="Caminho 880" d="M64.694 25.736c0 2.671-1.43 4.388-3.588 4.388a2.914 2.914 0 0 1-2.7-1.5h-.041v4.258H56.6V21.438h1.7v1.43h.032a3.049 3.049 0 0 1 2.737-1.52c2.187 0 3.625 1.724 3.625 4.388Zm-1.814 0c0-1.74-.9-2.885-2.272-2.885-1.348 0-2.255 1.168-2.255 2.885 0 1.732.907 2.892 2.255 2.892 1.372 0 2.272-1.136 2.272-2.892Z" transform="translate(-35.547 -18.046)"/><path id="Caminho_881" data-name="Caminho 881" d="M71.614 26.573c.131 1.169 1.267 1.937 2.819 1.937 1.487 0 2.557-.768 2.557-1.822 0-.915-.645-1.463-2.173-1.839l-1.528-.368c-2.165-.523-3.17-1.536-3.17-3.179 0-2.034 1.773-3.432 4.29-3.432 2.491 0 4.2 1.4 4.257 3.432h-1.781c-.107-1.177-1.079-1.887-2.5-1.887s-2.394.719-2.394 1.765c0 .834.621 1.324 2.141 1.7l1.3.319c2.419.572 3.424 1.544 3.424 3.269 0 2.206-1.757 3.588-4.552 3.588-2.615 0-4.38-1.349-4.494-3.482Z" transform="translate(-36.214 -17.871)"/><path id="Caminho_882" data-name="Caminho 882" d="M83.185 19.3v2.034h1.635v1.4h-1.635v4.739c0 .736.327 1.079 1.046 1.079a5.513 5.513 0 0 0 .58-.041V29.9a4.846 4.846 0 0 1-.98.082c-1.74 0-2.419-.654-2.419-2.321v-4.929h-1.25v-1.4h1.25V19.3Z" transform="translate(-36.737 -17.943)"/><path id="Caminho_883" data-name="Caminho 883" d="M86.065 25.736c0-2.7 1.593-4.4 4.077-4.4s4.078 1.7 4.078 4.4-1.577 4.4-4.078 4.4-4.077-1.688-4.077-4.4Zm6.357 0c0-1.855-.85-2.951-2.28-2.951s-2.279 1.1-2.279 2.951c0 1.863.849 2.95 2.279 2.95s2.28-1.087 2.28-2.95Z" transform="translate(-37.035 -18.046)"/><path id="Caminho_884" data-name="Caminho 884" d="M96.186 21.438h1.683V22.9h.041a2.05 2.05 0 0 1 2.068-1.553 2.722 2.722 0 0 1 .6.066v1.651a2.467 2.467 0 0 0-.793-.107 1.778 1.778 0 0 0-1.839 1.978v5.1h-1.76Z" transform="translate(-37.546 -18.046)"/><path id="Caminho_885" data-name="Caminho 885" d="M108.972 27.508c-.237 1.561-1.757 2.632-3.7 2.632-2.5 0-4.053-1.676-4.053-4.364s1.561-4.445 3.979-4.445c2.378 0 3.874 1.634 3.874 4.24v.6H103v.107a2.239 2.239 0 0 0 2.313 2.435 1.945 1.945 0 0 0 1.985-1.209Zm-5.965-2.566h4.3a2.067 2.067 0 0 0-2.109-2.182 2.176 2.176 0 0 0-2.189 2.182Z" transform="translate(-37.8 -18.046)"/></g></g></g><g id="_Group_4" data-name="&lt;Group&gt;" transform="translate(33.87 7.837)"><g id="Grupo_214" data-name="Grupo 214" fill="#fff"><path id="Caminho_886" data-name="Caminho 886" d="M35.671 14.4V8.731h2.277c1.064 0 1.7.542 1.7 1.413a1.242 1.242 0 0 1-.993 1.217v.067a1.339 1.339 0 0 1 1.276 1.362c0 1-.726 1.606-1.936 1.606Zm.88-3.267h1.044c.778 0 1.182-.287 1.182-.824 0-.523-.381-.829-1.033-.829h-1.193Zm1.272 2.521c.793 0 1.213-.322 1.213-.923s-.436-.9-1.264-.9h-1.221v1.826Z" transform="translate(-35.671 -8.277)"/><path id="Caminho_887" data-name="Caminho 887" d="M41.114 13.257c0-.77.573-1.213 1.59-1.276l1.158-.067v-.369c0-.452-.3-.707-.875-.707-.471 0-.8.173-.891.475h-.817c.086-.734.777-1.205 1.747-1.205 1.072 0 1.676.534 1.676 1.437v2.921h-.812v-.6h-.067a1.439 1.439 0 0 1-1.284.671 1.292 1.292 0 0 1-1.425-1.28Zm2.748-.365v-.357l-1.044.067c-.589.039-.856.24-.856.617s.334.609.793.609a1.008 1.008 0 0 0 1.107-.935Z" transform="translate(-35.946 -8.347)"/><path id="Caminho_888" data-name="Caminho 888" d="M46.169 8.832a.547.547 0 1 1 .546.514.52.52 0 0 1-.546-.514Zm.125 1.264h.841v4.276h-.841Z" transform="translate(-36.201 -8.253)"/><path id="Caminho_889" data-name="Caminho 889" d="M50.137 12.955 49.2 14.47h-.926l1.418-2.128-1.43-2.148h.986l.919 1.508h.067l.911-1.508h.938l-1.409 2.112L52.1 14.47h-.969l-.931-1.515Z" transform="translate(-36.307 -8.351)"/><path id="Caminho_890" data-name="Caminho 890" d="M53.088 13.257c0-.77.573-1.213 1.59-1.276l1.158-.067v-.369c0-.452-.3-.707-.875-.707-.471 0-.8.173-.891.475h-.817c.086-.734.777-1.205 1.747-1.205 1.072 0 1.676.534 1.676 1.437v2.921h-.812v-.6H55.8a1.438 1.438 0 0 1-1.284.671 1.292 1.292 0 0 1-1.425-1.28Zm2.748-.365v-.357l-1.044.067c-.589.039-.856.24-.856.617s.334.609.793.609a1.008 1.008 0 0 0 1.107-.935Z" transform="translate(-36.55 -8.347)"/><path id="Caminho_891" data-name="Caminho 891" d="M58.259 10.191h.812v.656h.063a1.159 1.159 0 0 1 1.154-.727 1.774 1.774 0 0 1 .376.035v.833a2.311 2.311 0 0 0-.471-.051 1 1 0 0 0-1.093 1.005v2.524h-.844Z" transform="translate(-36.811 -8.347)"/><path id="Caminho_892" data-name="Caminho 892" d="M64.218 10.19h.813v.679h.063a1.28 1.28 0 0 1 1.276-.762 1.391 1.391 0 0 1 1.48 1.59v2.768h-.844V11.91c0-.687-.3-1.029-.923-1.029a.981.981 0 0 0-1.021 1.084v2.5h-.844Z" transform="translate(-37.112 -8.347)"/><path id="Caminho_893" data-name="Caminho 893" d="M69.161 13.257c0-.77.573-1.213 1.59-1.276l1.158-.067v-.369c0-.452-.3-.707-.875-.707-.471 0-.8.173-.891.475h-.817c.086-.734.777-1.205 1.747-1.205 1.072 0 1.676.534 1.676 1.437v2.921h-.812v-.6h-.067a1.439 1.439 0 0 1-1.284.671 1.292 1.292 0 0 1-1.425-1.28Zm2.748-.365v-.357l-1.044.067c-.589.039-.856.24-.856.617s.334.609.793.609a1.008 1.008 0 0 0 1.107-.935Z" transform="translate(-37.362 -8.347)"/></g></g></g></svg>