<svg xmlns="http://www.w3.org/2000/svg" width="55.003" height="55"><g id="arrow-down-circle-fill" transform="rotate(-90 27.5 27.5)"><ellipse id="Elipse_2" data-name="Elipse 2" cx="14.998" cy="14.999" rx="14.998" ry="14.999" transform="translate(13.316 11.686)" fill="#fff"/><path id="Caminho_41" data-name="Caminho 41" d="M55 27.5A27.5 27.5 0 1 1 27.5 0 27.5 27.5 0 0 1 55 27.5ZM29.219 17.188a1.719 1.719 0 1 0-3.437 0v16.477L18.4 26.284a1.721 1.721 0 0 0-2.434 2.434l10.316 10.313a1.719 1.719 0 0 0 2.434 0l10.313-10.313a1.721 1.721 0 1 0-2.434-2.434l-7.376 7.381Z" fill="#40c187" fill-rule="evenodd"/></g></svg>