<svg xmlns="http://www.w3.org/2000/svg" width="11.559" height="11.56" viewBox="0 0 11.559 11.56">
  <g id="arrow-down-short" transform="translate(-10.125 21.684) rotate(-90)">
    <path id="Caminho_860" data-name="Caminho 860" d="M10.366,17.115a.826.826,0,0,1,1.169,0L15.9,21.486l4.369-4.371a.827.827,0,1,1,1.169,1.169l-4.953,4.953a.826.826,0,0,1-1.169,0l-4.953-4.953a.826.826,0,0,1,0-1.169Z" transform="translate(0 -1.796)" fill="#fff" fill-rule="evenodd"></path>
    <path id="Caminho_861" data-name="Caminho 861" d="M17.7,10.125a.826.826,0,0,1,.826.826v8.255a.826.826,0,0,1-1.651,0V10.951A.826.826,0,0,1,17.7,10.125Z" transform="translate(-1.797)" fill="#fff" fill-rule="evenodd"></path>
  </g>
</svg>
