<svg xmlns="http://www.w3.org/2000/svg" width="11.559" height="11.56"><g id="arrow-down-short" transform="rotate(-90 5.78 15.905)" fill="#004075" fill-rule="evenodd"><path id="Caminho_860" data-name="Caminho 860" d="M10.366 17.115a.826.826 0 0 1 1.169 0l4.365 4.371 4.369-4.371a.827.827 0 1 1 1.169 1.169l-4.953 4.953a.826.826 0 0 1-1.169 0l-4.953-4.953a.826.826 0 0 1 0-1.169Z" transform="translate(0 -1.796)"/><path id="Caminho_861" data-name="Caminho 861" d="M17.7 10.125a.826.826 0 0 1 .826.826v8.255a.826.826 0 0 1-1.651 0v-8.255a.826.826 0 0 1 .825-.826Z" transform="translate(-1.797)"/></g></svg>