<svg xmlns="http://www.w3.org/2000/svg" width="37.343" height="24.579"><defs><clipPath id="clip-path"><path id="Retângulo_34" data-name="Retângulo 34" fill="#3f3c3c" d="M0 0h37.343v24.579H0z"/></clipPath></defs><g id="Grupo_96" data-name="Grupo 96" transform="translate(.598)"><g id="Grupo_7" data-name="Grupo 7" transform="translate(-.598)" clip-path="url('#clip-path')"><path id="Caminho_40" data-name="Caminho 40" d="M15.616 8.148q0 6.655-8.691 16.432H4.21a15.338 15.338 0 0 0 2.1-4.007 20.57 20.57 0 0 0 1.29-5.228 7.2 7.2 0 0 1-5.36-2.309A7.54 7.54 0 0 1 0 7.605 7.322 7.322 0 0 1 2.24 2.24 7.478 7.478 0 0 1 7.74 0a7.841 7.841 0 0 1 5.568 2.173 7.814 7.814 0 0 1 2.308 5.975m21.727 0q0 6.655-8.691 16.432h-2.716a15.38 15.38 0 0 0 2.1-4.007 20.57 20.57 0 0 0 1.29-5.228 7.2 7.2 0 0 1-5.364-2.308 7.54 7.54 0 0 1-2.24-5.431 7.322 7.322 0 0 1 2.24-5.365A7.478 7.478 0 0 1 29.467 0a7.841 7.841 0 0 1 5.568 2.173 7.814 7.814 0 0 1 2.308 5.975" fill="#3f3c3c"/></g></g></svg>