<svg xmlns="http://www.w3.org/2000/svg" xmlns:xlink="http://www.w3.org/1999/xlink" width="524" height="463" viewBox="0 0 524 463">
  <defs>
    <clipPath id="clip-path">
      <rect id="Ret칙ngulo_152" data-name="Ret칙ngulo 152" width="524" height="463" transform="translate(1270 1736)" fill="#fff" stroke="#707070" stroke-width="1"></rect>
    </clipPath>
  </defs>
  <g id="Grupo_de_m치scara_28" data-name="Grupo de m치scara 28" transform="translate(-1270 -1736)" opacity="0.22" clip-path="url('#clip-path')">
    <g id="Pet_Dog" data-name="Pet Dog" transform="translate(1269.826 1751.652)" opacity="0.32" style="mix-blend-mode: luminosity; isolation: isolate">
      <path id="Caminho_697" data-name="Caminho 697" d="M771.133,471.549c-4.052-7.956-8.179-15.862-12.272-23.752-41.85-80.672-81.34-162.581-116.6-246.373-12.784-30.379-26.31-62.664-53.2-81.7-25.171-17.859-58.7-20.946-88.644-13.518s-56.739,24.156-80.952,43.27C297.741,245.676,217.218,422,276.028,574.14c19.7,50.978,55.632,96.187,102.921,123.545,69.737,40.348,154.882,38.9,235.429,40.876,56.235,1.378,119.155,2.649,160.328-35.685,33.647-31.361,42.841-82.248,35.133-127.564C803.617,538.752,788.035,504.75,771.133,471.549Z" transform="translate(-149.219 -102.438)" fill="none" stroke="#fff" stroke-width="1"></path>
      <path id="Caminho_698" data-name="Caminho 698" d="M616,874.39l8.879.108Z" transform="translate(-216.336 -247.79)" fill="#ffcf85"></path>
      <path id="Caminho_703" data-name="Caminho 703" d="M496.162,631.848c1.481,4.659,2.029,7.912-1.657,11.219-3.219,2.894-6.654,4.734-10.759,4.734-5.464,0-10.921.034-16.385,0-10.624,0-12.321-8.115-15.608-17.177-3.841-10.563-9.677-23.668-10.935-34.739-1.305-11.5-2.286-23.046-3.767-34.529q-.744-5.761-1.271-11.577c-.8-1.352.44-17.515-1.089-17.887s-5.5,15.019-6.844,15.8a8.2,8.2,0,0,0-1.691,1.353,20.593,20.593,0,0,0-3.5,5.7,234.465,234.465,0,0,1-30.431,47.614q-5.41,6.607-11.32,12.788c-1.427,1.488-2.969,3.5-2.151,5.376.751,1.711,2.969,2.11,4.835,2.1,6.012,0,11.875-1.724,17.839-2.5s12.436-.521,17.366,2.915a15.371,15.371,0,0,1,1.481,24.074c.852,0,1.691,0,2.529.048h-4.7c-1.035,0-2.083,0-3.145-.048h-.676c-1.934,0-3.882-.047-5.856-.074q-3.875-.047-7.858-.108l-8.561-.122q-4.355-.047-8.791-.122l-32.541-.473-4.511-.068-9.1-.135h-.764c-15.2-.23-30.6-.466-45.707-.676q-5.528-.071-11-.155h-1.116l-31.107-.487c-29.572-.453-55.6-.839-73.312-1.1-13.816-.2-24.135-9.873-24.135-23.669v-.074l.21-1.745.257-3.882s.385-.345,1.035-.947c2.529-2.353,9.258-8.555,14.2-12.5l.555-.433a1.149,1.149,0,0,0,0-.122c-.1-2.029-1.352-30.012,8.7-55.175,4.626-11.618,11.652-22.634,22.316-30.214l.575-.4c.4-.284.8-.555,1.217-.818l-.6-.047-1.014-.054c-.473-1.068-.981-2.144-1.515-3.192-1.008-1.988-2.083-3.943-3.253-5.836-7.3-11.875-17.7-21.464-29.755-24.345-10.441-2.482-22.688-2.171-30.39-9.21A19.077,19.077,0,0,1,131,469.414c-7.2-8.23-5.816-21.525-12.964-29.8a17.948,17.948,0,0,0-4.423-3.7A22.933,22.933,0,0,0,98.828,433.4a36.755,36.755,0,0,0-17.975,7.838c-1.691,1.353-3.334,2.881-4.964,4.416C69.533,451.6,63.3,457.945,54.879,458.872c-7.594.7-14.864-3.469-19.733-9.447a29.764,29.764,0,0,1-2.671-3.875c-7.087-12.348-5.41-26.671.609-39.127a64.919,64.919,0,0,1,15.824-20.6c26.292-22.6,65.866-26.441,97.961-13.329s56.676,41.325,69.815,73.4A166.1,166.1,0,0,1,225.752,477q.676,3.51,1.271,7.087c.135.852.264,1.711.4,2.57q2.516-1.968,5-3.753a110.9,110.9,0,0,0,14.708-12.666,119,119,0,0,0,11.09-13.221c.676-.926,1.352-1.866,1.988-2.8,0,0,11.787-18.57,25.244-50.042a505.926,505.926,0,0,0,18.008-48.96c.257-.8.494-1.609.751-2.414.886-2.915,1.765-5.883,2.617-8.893.176-.609.345-1.211.507-1.819.3-1.069.6-2.151.893-3.232A462.314,462.314,0,0,0,320.582,278q.676-5.227,1.271-10.536a28.4,28.4,0,0,1-6.884-1.975c-7.4-3.077-17.258-10.82-10.624-29.5,10.022-28.226,30.045-45.985,66.468-58.955s62.816,5.241,71.005,13.43c0,0,20.964,8.189,26.374,18.2s17.3,23.669,30.965,27.32c0,0-5.559,26.008-21.464,28.659a17.167,17.167,0,0,1-6.546-.21,76.263,76.263,0,0,1-.074,10.292c-.676,9.677-3.246,23.986-12.172,32.947,0,0,4.781,27.543,14.336,48.487.23.521.473,1.035.676,1.542a112.349,112.349,0,0,1,5.62,15.128c4.49,15.9,3.915,31.215-2.2,54.343-2.353,8.886-3.232,18.258-4.118,27.354-2.029,21.018-2.793,42.184-2.746,63.29.047,21.5.8,43.192,4.125,64.46,1.238,7.946,2.8,15.986,5.64,23.547a38.972,38.972,0,0,0,3.9,8.013c2.076,3.145,3.719,6.533,6.127,9.468,1.961,2.394,4.294,4.626,5.525,7.493A10.693,10.693,0,0,1,496.162,631.848Z" transform="translate(-25.911 -20.551)" fill="#ffd28c"></path>
      <path id="Caminho_704" data-name="Caminho 704" d="M634.955,245.455a25.642,25.642,0,0,0-5.139-.122,10.722,10.722,0,0,0-4.2,1.231l-.46.2c-.142.081-.284.169-.44.243a7.2,7.2,0,0,0-.933.44c-.3.183-.629.352-.953.527l-.893.7-.473.372-.426.453c-.284.3-.6.6-.9.913-.561.676-1.109,1.4-1.745,2.117l-.183.2a1.53,1.53,0,0,1-2.658-1.231,25.606,25.606,0,0,1,.677-3.185c.2-.514.4-1.041.629-1.562l.338-.784c.135-.257.3-.494.46-.744.318-.494.642-1,.987-1.488a11.262,11.262,0,0,1,1.264-1.352,7.385,7.385,0,0,1,1.481-1.17c.264-.176.541-.338.811-.5a5.622,5.622,0,0,1,.886-.352,13.315,13.315,0,0,1,7.2-.413,15.26,15.26,0,0,1,3.206,1.075,13.293,13.293,0,0,1,2.854,1.758,1.535,1.535,0,0,1-1.123,2.705Z" transform="translate(-216.187 -42.285)" fill="#2e2e2e"></path>
      <path id="Caminho_705" data-name="Caminho 705" d="M673.343,290.291a76.263,76.263,0,0,1-.074,10.292,31.17,31.17,0,0,1-14.323-6.5c-10.914-9.359-4.734-22.8-6.58-34.813-1.062-6.965,9.569-9.934,10.637-2.935.8,5.295.419,10.232.054,15.554-.264,3.794-.676,8.406,1.352,11.821,2.7,4.511,9.089,6.336,15.472,6.81A17.166,17.166,0,0,1,673.343,290.291Z" transform="translate(-228.073 -46.397)" fill="#ffc56b"></path>
      <path id="Caminho_706" data-name="Caminho 706" d="M484.163,279.014c-2.171,6.188-8.717,10.921-14.357,13.856a21.308,21.308,0,0,1-10.36,2.637,11.233,11.233,0,0,1-1.353-.108q.676-5.227,1.271-10.536a28.409,28.409,0,0,1-6.925-1.948c1.589.318,3.158.771,4.876,1.156,3.584.785,6.248-.189,9.278-2.117,2.306-1.468,5.41-3.381,6.762-5.829,1.447-2.57,1.353-6.181,1.353-9.062,0-12.686-8.629-24.054-4.626-36.875,2.11-6.762,12.754-3.861,10.637,2.935-2.529,8.115,2.32,15.878,3.929,23.669C486.124,263.866,486.59,272.143,484.163,279.014Z" transform="translate(-163.382 -37.981)" fill="#ffc56b"></path>
      <path id="Caminho_707" data-name="Caminho 707" d="M538.626,225.086a14.348,14.348,0,0,1,3.117-.8,16.391,16.391,0,0,1,3.212-.169,15.424,15.424,0,0,1,6.573,1.738,9.716,9.716,0,0,1,1.481,1.028c.446.419.866.859,1.265,1.312a13.976,13.976,0,0,1,1.812,3.084,12.265,12.265,0,0,1,.933,3.273,7.493,7.493,0,0,1,.108,1.63c0,.541,0,1.075-.034,1.6a1.542,1.542,0,0,1-2.874.676l-.1-.216a18.733,18.733,0,0,0-2.759-4.112,9.664,9.664,0,0,0-1.61-1.413,6.862,6.862,0,0,1-.865-.555c-.264-.2-.589-.352-.852-.568a15.557,15.557,0,0,0-4-2.137,37.176,37.176,0,0,0-4.957-1.352l-.2-.041a1.564,1.564,0,0,1-.25-2.969Z" transform="translate(-190.972 -37.253)" fill="#2e2e2e"></path>
      <path id="Caminho_708" data-name="Caminho 708" d="M664.646,196.1c2.921,4.781,6.086,9.467,9.318,14.066a165.384,165.384,0,0,0,10.32,13.133c1.812,2.076,3.6,4.159,5.41,6.188a74.414,74.414,0,0,0,5.843,5.7,37.239,37.239,0,0,0,13.9,7.878h.041a1.522,1.522,0,0,1-.514,2.975,28.8,28.8,0,0,1-8.791-2.157,40.927,40.927,0,0,1-7.932-4.314A62.213,62.213,0,0,1,679.138,227.6a120.156,120.156,0,0,1-17.2-30.208,1.515,1.515,0,0,1,2.705-1.352Z" transform="translate(-231.17 -27.923)" fill="#2e2e2e"></path>
      <path id="Caminho_709" data-name="Caminho 709" d="M507.286,484.542a1.549,1.549,0,0,1-.737,1.028l-8.257,5.065a35.334,35.334,0,0,0-5.241,4.869,14.637,14.637,0,0,1-4.781-.21,10.187,10.187,0,0,1-2.34-.886c-.419-1.237-.893-2.461-1.434-3.652q-2.834-5.214-5.647-10.441c-1.014-1.873,1.934-3.381,2.948-1.515.852,1.569,1.521,3.422,2.861,4.659a16.817,16.817,0,0,0,4.943,2.921c6.086,2.441,10.5-1.183,15.479-4.193C506.664,481.229,508.131,483.264,507.286,484.542Z" transform="translate(-171.865 -119.439)" fill="#ffc56b"></path>
      <path id="Caminho_710" data-name="Caminho 710" d="M405.139,528.906A355.34,355.34,0,0,0,392.8,491.125c.068-.155.149-.3.223-.453-1.968-11.374.507-23.723,5.667-34.894a48.128,48.128,0,0,0,1.278-37.038l-.088-.23c-.3,1.082-.6,2.164-.893,3.232-.162.609-.331,1.211-.507,1.819-.852,3.009-1.731,5.978-2.617,8.893-.257.8-.494,1.609-.75,2.414a505.952,505.952,0,0,1-18.008,48.96c.068.785.162,1.555.3,2.327-5.471,7.263-7.337,15.932-11.286,24.121-4.923,10.2-12.3,19.543-19.611,28.125a5.41,5.41,0,0,0-1.353,4.328c-2.029,2.448-4.125,4.835-6.391,7.148a41.315,41.315,0,0,1,10.008-2.265,4.449,4.449,0,0,0,4.139-.21c32.243,0,61.342,36.909,47.79,69.22a19.57,19.57,0,0,0-9.927,8.2c-2.921,4.9-3.794,10.617-5.41,16a54.962,54.962,0,0,1-6.959,14.7,53.314,53.314,0,0,1-29.4,21.5c-10.57-2.448-22.113-1.278-32.663,0-5.836.676-7.9,9.028-1.467,10.82a67.162,67.162,0,0,0,34.218.6,28.816,28.816,0,0,1,6.133,2.827c4.781,2.982,8.872,7.682,10.353,13.2,1.433,5.362,0,12.172-6.235,13.119-5.883.913-11.056,1.569-16.46,4.335a41.812,41.812,0,0,0-3.828,2.252l31.107.487a17.676,17.676,0,0,0,1.353-1.305c-.074.44-.156.872-.244,1.312,3.638.054,7.317.108,11,.155.717-5.288,1.008-10.671,3.131-15.553,3.544-8.068,11.5-5.052,17.711-9.467,5.646-4,7.567-11.165,8.7-17.623,1.542-8.717,2.705-17.521,3.6-26.326a354.859,354.859,0,0,0-.047-70.329A256.5,256.5,0,0,0,405.139,528.906Z" transform="translate(-117.562 -100.196)" fill="#ffc56b"></path>
      <path id="Caminho_711" data-name="Caminho 711" d="M613.984,422.707c-1.413,4.632-2.982,9.657-6.722,12.977-4.45,3.963-9.014-3.314-14.249-3.949-9.048-1.123-16.067,8.663-19.963,16.615-4.091,8.352-6.762,16.365-14.8,21.944a25.812,25.812,0,0,1-27.3,1.853c-6.086-3.179-5.41-8.115-9.758-13.16,18.333-1.244,33.136-4.3,44.341-19.165,6.532-8.663,11.455-18.772,16.277-28.45,4.734-9.521,8.115-21.532,16.162-28.842,5.268-4.781-2.549-12.571-7.8-7.8-7.29,6.62-10.6,15.851-14.715,24.548-4.5,9.508-9.366,18.888-14.755,27.922-5.329,8.92-11.192,14.289-21.41,16.96a147.317,147.317,0,0,1-22.147,3.936,34.626,34.626,0,0,0-3.381-17.271A44.314,44.314,0,0,0,506.056,415a.8.8,0,0,0-.128-.169c-.284-.372-.548-.757-.845-1.129a4.45,4.45,0,0,0-4.578-1.6,97.078,97.078,0,0,0-11.956-11.435c-6.505-5.221-15.608-11.063-16.636-20.172-.642-5.7-9.352-8.047-10.82-1.468-3.428,15.168,7.439,26.272,19.131,33.968,8.791,5.789,18.32,12.314,22.992,21.322a10.443,10.443,0,0,1,1.988,6.039,5.808,5.808,0,0,0,.412.487,25.846,25.846,0,0,1,.521,6.715L504.7,448.62l-.115.1a7.166,7.166,0,0,0-2.7-.426l-5.356-2.15c-.92-1.846,1.461.325,2.144,2.15a1.726,1.726,0,0,0,.453.906c1.8,1.867,2.5,4.666,3.591,6.965a64.147,64.147,0,0,0,4.314,7.669c5.119,7.8,11.963,15.019,20.565,18.935,17.778,8.054,37.085.98,48.013-14.6,2.536-3.611,4.091-7.581,5.8-11.6,1.6-3.733,3.266-8.372,7.838-8.872,4.436-.473,8.947,1.866,13.484,1.515a20.606,20.606,0,0,0,12.335-5.714,25.59,25.59,0,0,0,4.538-5.647A112.377,112.377,0,0,0,613.984,422.707Z" transform="translate(-165.976 -85.539)" fill="#ffc56b"></path>
      <path id="Caminho_712" data-name="Caminho 712" d="M573.458,754.11a15.608,15.608,0,0,1-5.119,11.286h-2.171c-1.035,0-2.083,0-3.145-.047h-.676c-1.934,0-3.882-.054-5.856-.074l-7.892-.142-8.561-.122-8.791-.122-32.541-.473-4.51-.068-9.1-.135a5.9,5.9,0,0,1,.507-1.434c0-5.173,6.336-14.2,8.189-19.354,11.5-31.824,12.788-66.029,14.485-99.5,1.664-33.028,1.92-67.847-9.833-99.266-2.5-6.675,8.176-9.535,10.637-2.935,9.183,24.541,10.36,71.317,9.961,110.478,4.808-8.419,11.76-15.4,21.295-19.422,6.465-2.7,12.084,6.763,5.559,9.522-18.448,7.79-26.772,30.667-24.122,49.568,1.63,11.706,8.872,21.937,18.482,28.767q-5.41,6.607-11.32,12.788c-1.427,1.488-2.969,3.5-2.15,5.376.75,1.711,2.969,2.11,4.835,2.1,6.012,0,11.875-1.724,17.839-2.5s12.436-.521,17.366,2.914A15.71,15.71,0,0,1,573.458,754.11Z" transform="translate(-173.956 -138.878)" fill="#ffc56b"></path>
      <path id="Caminho_713" data-name="Caminho 713" d="M618.858,661l.23-.129a13.945,13.945,0,0,1,2.414-3.016c-1.21,1.143.453-1.136.061-.2s.622-1.406.676-1.623c.209-.514,1.089-3.293.906-2.624.791-2.759,1.481-5.539,2.516-8.2a361.425,361.425,0,0,1,15.317-115.421c2.063-6.817-7.892-10.38-9.941-3.6-10.84,36.092-13.775,74.238-13.146,112.04C618.013,645.754,618.3,653.368,618.858,661Z" transform="translate(-216.922 -133.879)" fill="#ffc56b"></path>
      <path id="Caminho_714" data-name="Caminho 714" d="M469.277,189.276c-4.9,5.315-9.623,10.766-13.971,16.48A136.5,136.5,0,0,0,443.478,223.6c-1.724,3.1-3.266,6.276-4.653,9.467a68.061,68.061,0,0,0-3.246,9.873,36.516,36.516,0,0,0-1.062,9.948,19.333,19.333,0,0,0,2.4,8.832,5.415,5.415,0,0,0,.6.906,8.819,8.819,0,0,0,.676.865,13.457,13.457,0,0,0,1.542,1.495,14.116,14.116,0,0,0,3.719,2.286,21.167,21.167,0,0,0,4.47,1.19l1.177.182,1.211.081,1.211.074h1.089a12.274,12.274,0,0,0,7.777-3.584,14.519,14.519,0,0,0,4.213-7.9,15.459,15.459,0,0,0-1.068-9.123l-.237-.541-.3-.676c-.21-.439-.419-.879-.6-1.352-.392-.893-.717-1.812-1.028-2.7a36.068,36.068,0,0,1-1.352-5.64,40.874,40.874,0,0,1,2.962-22.363,1.515,1.515,0,0,1,2.833,1.062,38.537,38.537,0,0,0-1.427,20.47,31.441,31.441,0,0,0,1.481,4.862c.318.784.676,1.562,1.021,2.32.176.385.372.757.568,1.129l.3.575.345.676a20.734,20.734,0,0,1,1.968,12.132c-1.014,8.3-7.844,16.054-16.865,16.967-.548.054-1.089.088-1.637.1h-1.515c-.5,0-1.008,0-1.508-.047l-1.521-.169a24.978,24.978,0,0,1-6.086-1.508,19.449,19.449,0,0,1-9.758-8.352,24.589,24.589,0,0,1-3.091-12.03,42.757,42.757,0,0,1,1.576-11.625,73.94,73.94,0,0,1,3.882-10.7c.825-1.684,1.589-3.381,2.5-5.038.446-.818.872-1.657,1.352-2.462l1.44-2.394c7.777-12.713,17.67-23.743,28.348-33.738a1.508,1.508,0,0,1,2.144,2.117Z" transform="translate(-155.495 -25.159)" fill="#2e2e2e"></path>
      <path id="Caminho_715" data-name="Caminho 715" d="M424.928,221.3c4.233-4.166,8.7-8.034,13.275-11.78s9.251-7.351,14.066-10.779,9.718-6.762,14.756-9.846,10.144-6.086,15.493-8.791a99.09,99.09,0,0,1,16.69-6.871,85.2,85.2,0,0,1,17.954-3.117,91.3,91.3,0,0,1,18.218.839,85.564,85.564,0,0,1,17.643,4.869,75.5,75.5,0,0,1,16.034,9.048c1.231.926,2.373,1.968,3.564,2.948.582.5,1.19.981,1.751,1.508l1.609,1.664,1.609,1.664a18.4,18.4,0,0,1,1.549,1.718L582.013,198a9.355,9.355,0,0,1,.676.913l.629.974,1.251,1.948c.825,1.3,1.684,2.577,2.394,3.963a55.883,55.883,0,0,1,3.665,8.541,50.927,50.927,0,0,1,2.171,9.075,43.762,43.762,0,0,1,.439,4.673,31.676,31.676,0,0,1-.189,4.788c-.676,6.2-2.5,11.76-2.184,17.021a12.054,12.054,0,0,0,.676,3.544,11.086,11.086,0,0,0,1.873,3.063,12.662,12.662,0,0,0,2.786,2.428,14,14,0,0,0,3.436,1.535,13.517,13.517,0,0,0,3.719.561,12.067,12.067,0,0,0,3.665-.609c.291-.108.6-.183.879-.3l.825-.419a13.239,13.239,0,0,0,1.7-1.021,22.994,22.994,0,0,0,3.172-2.529,25.979,25.979,0,0,0,7.371-14.472h0a1.515,1.515,0,0,1,2.989.487,33.7,33.7,0,0,1-2.462,8.886,26.631,26.631,0,0,1-5.214,7.8,25.726,25.726,0,0,1-3.57,3.1,16.99,16.99,0,0,1-2.029,1.3l-1.122.6c-.386.182-.784.311-1.183.467a16.229,16.229,0,0,1-4.943.974,17.851,17.851,0,0,1-4.97-.582,18.431,18.431,0,0,1-4.626-1.9,17.262,17.262,0,0,1-3.922-3.205,15.827,15.827,0,0,1-2.813-4.328l-.44-1.231a6.3,6.3,0,0,1-.352-1.258,17.037,17.037,0,0,1-.392-2.516,40,40,0,0,1,.494-9.346c.426-2.969.954-5.8,1.15-8.534a26.126,26.126,0,0,0,.034-4,38.276,38.276,0,0,0-.507-4.057,48.807,48.807,0,0,0-2.117-7.993,49.852,49.852,0,0,0-3.436-7.533c-.676-1.217-1.467-2.353-2.238-3.51l-1.163-1.731-.582-.866c-.2-.284-.44-.541-.676-.811l-2.611-3.233a15.372,15.372,0,0,0-1.433-1.508l-1.488-1.461-1.481-1.467c-.514-.46-1.069-.893-1.6-1.353-1.082-.872-2.117-1.806-3.232-2.637l-3.449-2.36-.859-.6-.913-.514-1.826-1.028a34.24,34.24,0,0,0-3.692-1.968L550.5,182a80.884,80.884,0,0,0-7.953-2.7,83.291,83.291,0,0,0-8.176-1.961,85.032,85.032,0,0,0-16.852-1.1,79.3,79.3,0,0,0-16.7,2.57,99.949,99.949,0,0,0-15.919,6.154c-5.221,2.441-10.326,5.207-15.337,8.115s-9.948,6.025-14.783,9.265-9.623,6.573-14.269,10.083-9.2,7.148-13.525,11.043a1.509,1.509,0,1,1-2.076-2.191Z" transform="translate(-154.318 -19.734)" fill="#2e2e2e"></path>
      <path id="Caminho_717" data-name="Caminho 717" d="M225.8,578.539a5.034,5.034,0,0,0-7.283.23l-.176.183a23.411,23.411,0,0,1-31.547,1.92,71.827,71.827,0,0,0-24.345-12.382c-8.237-2.4-17-2.888-24.115-8.27-16.953-12.849-19.719-52.213.115-63.878,6.154-3.618.724-12.767-5.572-9.528a43.056,43.056,0,0,0-20.2,22.647,23.6,23.6,0,0,1-16.453,14.674l-1.008.25c-10.712,2.833-19.111,10.394-28.767,15.4-9.312,4.835-22.58,8.074-29.755-1.941a26.092,26.092,0,0,1-4.3-12.545c-.541-5.274.872-10.144.906-15.371a12.546,12.546,0,0,0-.142-1.954c-6.039,12.457-7.689,26.779-.609,39.127a29.734,29.734,0,0,0,2.617,3.854c5.295,3.544,12.578,10.245,20.287,9.19s13.863-9.3,20.4-13.139c2.394-1.4,4.734-2.888,7.107-4.389,4.524-2.881,10.1-6.364,15.838-7.858,4.193-1.1,8.487-1.116,12.5.974a12.028,12.028,0,0,1,2.286,1.542,12.685,12.685,0,0,1,1.488,1.542,5.621,5.621,0,0,0,.832,1.1c3.165,4.666,4.01,11.3,5.606,16.392,2.029,6.5,5.2,12.49,10.948,15.98a19.57,19.57,0,0,0,3.043,1.515c5.538,2.184,11.807,2.34,17.582,3.631a75.726,75.726,0,0,1,17.359,5.883c9.745,4.889,18.056,12.416,22.154,22.532.372.913.717,1.867,1.014,2.833a5.681,5.681,0,0,0,2.238,3,5.308,5.308,0,0,0,6.972-.561q11.753-12.281,23.479-24.575a6.387,6.387,0,0,0,.751-.947A5.422,5.422,0,0,0,225.8,578.539Z" transform="translate(-25.935 -122.089)" fill="#ffc56b"></path>
      <path id="Caminho_718" data-name="Caminho 718" d="M338.723,772.8a70.525,70.525,0,0,0,14.566-2.123,61.094,61.094,0,0,0,13.592-5.329l1.6-.866.8-.433.764-.494,3.057-1.968,2.888-2.2a14.137,14.137,0,0,0,1.393-1.156l1.352-1.211a51.855,51.855,0,0,0,9.177-11.036,55.4,55.4,0,0,0,5.721-13.065c1.292-4.605,1.968-9.758,4.091-14.925a24.068,24.068,0,0,1,4.605-7.3,17.36,17.36,0,0,1,7.729-4.923,14.365,14.365,0,0,1,9.5.656,18.839,18.839,0,0,1,7.276,5.41,19.112,19.112,0,0,1,4.1,8.115,17.739,17.739,0,0,1,.338,2.367c0,.8.034,1.7,0,2.265l-.237,3.834c-.345,5.1-.913,10.143-1.562,15.2a267.015,267.015,0,0,1-5.457,30.066,89.216,89.216,0,0,1-4.882,14.8,29.763,29.763,0,0,1-1.954,3.631,13.139,13.139,0,0,1-3.063,3.463,6.675,6.675,0,0,1-2.658,1.21,4.36,4.36,0,0,1-.784.095h-.446a5.736,5.736,0,0,0-.812.074,21.141,21.141,0,0,0-3.334.676,18.8,18.8,0,0,0-10.82,7.8c-2.6,3.8-3.544,8.656-3.733,13.478v.1a1.515,1.515,0,0,1-3.023-.1l.115-3.936c.095-1.312.365-2.631.548-3.949a23.812,23.812,0,0,1,1.089-3.888l.825-1.873.419-.94c.149-.3.352-.588.527-.886a22.684,22.684,0,0,1,12.741-10.056,25.648,25.648,0,0,1,4.057-.98c.338-.061.676-.1,1.068-.142h.494a.406.406,0,0,0,.149,0,2.136,2.136,0,0,0,.717-.406,9.01,9.01,0,0,0,1.785-2.279,25,25,0,0,0,1.522-3.07,84.531,84.531,0,0,0,4.112-14.025,281.489,281.489,0,0,0,4.49-29.545c.514-4.964.906-9.948,1.231-14.878l.2-3.713c.047-.676,0-1.048,0-1.508a11.015,11.015,0,0,0-.216-1.352,12.511,12.511,0,0,0-2.637-5.268,12.232,12.232,0,0,0-4.673-3.584,7.844,7.844,0,0,0-5.248-.494,11.017,11.017,0,0,0-4.91,3.036,17.811,17.811,0,0,0-3.577,5.255c-1.846,4.138-2.658,9.061-4.166,14.127a58.207,58.207,0,0,1-6.762,14.377,57.009,57.009,0,0,1-10.482,11.794L380.414,762a16.284,16.284,0,0,1-1.549,1.21l-3.205,2.272-3.381,2.029-.845.5-.879.44-1.711.879a66.068,66.068,0,0,1-30.133,6.512,1.508,1.508,0,0,1-.034-3.016Z" transform="translate(-126.068 -193.035)" fill="#2e2e2e"></path>
      <path id="Caminho_719" data-name="Caminho 719" d="M485.3,477.643l2.029,3.828,1,1.92.886,1.968,1.758,3.942,1.549,4.017c2.076,5.363,3.746,10.82,5.295,16.365a290.868,290.868,0,0,1,6.8,33.616c1.636,11.307,2.705,22.688,3.381,34.076s1.075,22.8.967,34.218l-.135,8.561-.345,8.554q-.413,8.548-1.17,17.075c-.988,11.368-2.327,22.708-4.152,33.981a324.64,324.64,0,0,1-7.08,33.528,177.882,177.882,0,0,1-11.8,32.25,1.515,1.515,0,0,1-2.746-1.271h0a187.506,187.506,0,0,0,10.218-32.034,335.6,335.6,0,0,0,5.938-33.244,591.71,591.71,0,0,0,4.565-67.448,498.849,498.849,0,0,0-3.05-67.5,286.05,286.05,0,0,0-5.674-33.3,148.663,148.663,0,0,0-10.887-31.7v-.068a1.512,1.512,0,1,1,2.7-1.352Z" transform="translate(-172.767 -119.065)" fill="#2e2e2e"></path>
      <path id="Caminho_720" data-name="Caminho 720" d="M595.166,327.951c.338,14.357,3.124,28.619,6.62,42.6,1.745,7.006,3.726,13.964,5.87,20.869q1.609,5.18,3.334,10.326l1.751,5.139c.291.818.588,1.785.879,2.705a25.3,25.3,0,0,1,.676,2.867,34.658,34.658,0,0,1-32.521,41.2c-1,.074-2.029,0-3,0l-2.921-.243c-1.778-.162-3.543-.365-5.322-.487a185.114,185.114,0,0,0-21.4-.358,165.459,165.459,0,0,0-41.968,6.9l-2.549.778c-.845.264-1.664.609-2.5.906l-4.984,1.853-4.849,2.177c-.8.372-1.623.676-2.407,1.109l-2.326,1.258a96.81,96.81,0,0,0-17.494,11.753,35.76,35.76,0,0,0-10.7,16.967,36.721,36.721,0,0,0,0,20.247,147.2,147.2,0,0,1,6.086,43.584,1.515,1.515,0,1,1-3.029,0,151.239,151.239,0,0,0-7.324-42.319,41.387,41.387,0,0,1-.548-22.81,40.972,40.972,0,0,1,11.78-19.726,24.968,24.968,0,0,1,2.164-1.86l2.184-1.765a51.189,51.189,0,0,1,4.47-3.381l4.653-3.145c1.576-1.008,3.239-1.86,4.855-2.8l2.441-1.353c.818-.446,1.684-.812,2.522-1.224l5.065-2.394,5.2-2.029c.872-.331,1.731-.676,2.61-1l2.657-.866a136.878,136.878,0,0,1,21.64-5.315,159.941,159.941,0,0,1,22.107-2.164c3.7-.156,7.4-.115,11.1-.068l5.545.25c1.846.115,3.692.284,5.538.419s3.685.4,5.532.595l2.516.25c.818,0,1.636.088,2.455.034a28.889,28.889,0,0,0,27.408-33.92c-.169-.811-.318-1.636-.541-2.441s-.44-1.589-.737-2.482l-1.65-5.227q-1.616-5.234-3.131-10.509-3.044-10.549-5.451-21.254c-1.6-7.141-2.915-14.357-3.888-21.64a154.861,154.861,0,0,1-1.468-21.991,1.508,1.508,0,1,1,3.016,0Z" transform="translate(-163.631 -70.397)" fill="#2e2e2e"></path>
      <path id="Caminho_721" data-name="Caminho 721" d="M48.991,488.379a63.692,63.692,0,0,0-11.259,13.133,57.727,57.727,0,0,0-7.161,15.635,41.021,41.021,0,0,0-1.312,16.778,11.907,11.907,0,0,0,.379,2.063l.473,2.029A14.133,14.133,0,0,0,30.787,540l.676,1.968c.561,1.272,1.244,2.5,1.853,3.747a25.706,25.706,0,0,0,2.333,3.381,22.882,22.882,0,0,0,13.376,8.507,16.369,16.369,0,0,0,7.7-.507,23.886,23.886,0,0,0,7.134-3.773c4.517-3.314,8.48-7.7,13.1-11.726,1.136-1.008,2.414-1.988,3.692-2.928l1.995-1.305c.676-.419,1.352-.778,2.069-1.17a41.235,41.235,0,0,1,8.852-3.462,32.669,32.669,0,0,1,9.589-1.035,24.285,24.285,0,0,1,9.664,2.387c.744.419,1.515.8,2.225,1.271l2.029,1.548,1.819,1.812c.6.615,1.068,1.353,1.6,1.981a32.164,32.164,0,0,1,4.166,8.791c1.907,5.9,2.908,11.706,5.491,16.277a16.338,16.338,0,0,0,5.058,5.559,24.628,24.628,0,0,0,7.2,3.239c5.309,1.535,11.185,2.029,17.21,3.178a45.111,45.111,0,0,1,9.156,2.651,48.131,48.131,0,0,1,8.331,4.666,60.612,60.612,0,0,1,7.2,6.086A70.953,70.953,0,0,1,190.4,598.2a75.069,75.069,0,0,1,5.133,7.736c.8,1.352,1.5,2.7,2.225,4.057.358.676.676,1.352,1.008,2.069s.676,1.353,1,2.171l-.223-.439a5.663,5.663,0,0,1,.284.575l.061.149.128.3.25.595.5,1.217c.338.818.642,1.657.953,2.489q.9,2.509,1.65,5.072a71.886,71.886,0,0,1,2.211,10.482,60.863,60.863,0,0,1-1.021,21.478,71.493,71.493,0,0,1-21.308,36.463l-.967.92-1.028.859-2.029,1.718c-1.393,1.116-2.861,2.13-4.294,3.192-1.5.94-3.009,1.968-4.517,2.827l-4.538,2.55a50.8,50.8,0,0,0-8.027,5.227,21.373,21.373,0,0,0-1.65,1.528,13.506,13.506,0,0,0-1.352,1.6,12.967,12.967,0,0,0-1.075,1.758c-.156.3-.3.622-.433.94a8.15,8.15,0,0,0-.311.886,14.114,14.114,0,0,0-.406,2.029l-.108.954c0,.047.034.412.074,1.082v1.264l.081,1.089a18.52,18.52,0,0,0,.365,2.157,18.259,18.259,0,0,0,3.909,7.784,17.2,17.2,0,0,0,1.515,1.569c.568.48,1.17.947,1.751,1.427s1.265.832,1.887,1.258a22.264,22.264,0,0,0,2.029,1.082,32.847,32.847,0,0,0,8.974,2.7c6.35,1.035,13.052.784,19.848.541s13.721-.264,20.558-.209c13.687.135,27.253.582,40.879.554a67.455,67.455,0,0,0,9.873-.426,18.794,18.794,0,0,0,4.436-1.1,5.706,5.706,0,0,0,2.928-2.211,3.868,3.868,0,0,0,.494-1.569v-3.53l-.1-1.217a23.755,23.755,0,0,0-.257-2.414,24.256,24.256,0,0,0-2.874-8.906,14.14,14.14,0,0,0-6.722-5.816,24.733,24.733,0,0,0-9.271-1.582,70.81,70.81,0,0,0-9.948.764,91.831,91.831,0,0,1-10.374,1.115,1.515,1.515,0,0,1-.068-3.023h.068a90.934,90.934,0,0,0,9.914-1.285,74.1,74.1,0,0,1,10.407-1.008,28.2,28.2,0,0,1,10.7,1.724,17.974,17.974,0,0,1,4.876,2.881,18.2,18.2,0,0,1,3.733,4.281,27.47,27.47,0,0,1,3.584,10.34c.169.886.243,1.772.325,2.658l.128,1.352.047,1.353.047,1.352v.676l-.041.825a8.035,8.035,0,0,1-.994,3.273,8.49,8.49,0,0,1-2.232,2.529,12.365,12.365,0,0,1-2.7,1.521,22.921,22.921,0,0,1-5.41,1.454,71.256,71.256,0,0,1-10.522.615c-13.626.223-27.314,0-40.886,0-6.762.041-13.579.142-20.287.494s-13.8.73-20.964-.318a38.491,38.491,0,0,1-10.563-3.043c-.832-.433-1.7-.8-2.5-1.305s-1.623-.974-2.38-1.542-1.5-1.15-2.232-1.772a23.136,23.136,0,0,1-2.029-2.083,24.237,24.237,0,0,1-5.342-10.306,24.543,24.543,0,0,1-.521-2.874q-.074-.73-.129-1.461l-.041-1.292c0-.189-.095-.676-.088-1.467a2.848,2.848,0,0,1,.034-.575v-.325l.074-.676a20.11,20.11,0,0,1,.555-2.955,14.32,14.32,0,0,1,.514-1.529c.189-.466.392-.926.615-1.386a19.111,19.111,0,0,1,1.555-2.61,19.707,19.707,0,0,1,1.921-2.306,27.66,27.66,0,0,1,2.076-1.968,56.6,56.6,0,0,1,9-6.025l4.348-2.5c1.44-.845,2.739-1.765,4.118-2.638,1.292-.98,2.624-1.914,3.875-2.948l1.853-1.582.926-.791.872-.852a70.136,70.136,0,0,0,12.1-15.188A62.327,62.327,0,0,0,198,654.728a54.424,54.424,0,0,0,.981-19.138,65.138,65.138,0,0,0-1.975-9.508q-.676-2.346-1.495-4.652c-.284-.764-.561-1.535-.866-2.286l-.467-1.15-.243-.582-.122-.291-.061-.149a1.647,1.647,0,0,0,.149.284l-.223-.44c-4.484-10.259-11.226-20.071-20.226-26.563a41.94,41.94,0,0,0-7.128-4.057,38.75,38.75,0,0,0-7.885-2.347c-5.613-1.129-11.631-1.67-17.731-3.469a30.5,30.5,0,0,1-8.866-4.186,22.279,22.279,0,0,1-6.762-7.54,42.04,42.04,0,0,1-3.442-8.9c-.832-2.935-1.508-5.8-2.367-8.487a26.7,26.7,0,0,0-3.341-7.29c-.4-.487-.744-1.035-1.183-1.481l-1.319-1.352-1.467-1.136c-.514-.352-1.089-.629-1.623-.954-4.517-2.306-10.2-2.428-15.5-1.15a35.041,35.041,0,0,0-14.587,7.567c-4.375,3.7-8.467,8.115-13.579,11.8a28.537,28.537,0,0,1-8.6,4.375,21.034,21.034,0,0,1-9.887.507,24.428,24.428,0,0,1-8.994-3.794,29.51,29.51,0,0,1-6.965-6.532,35.665,35.665,0,0,1-6.959-17.339,44.847,44.847,0,0,1,1.751-18.367,61.214,61.214,0,0,1,7.9-16.453A66.855,66.855,0,0,1,47.01,486.093a1.508,1.508,0,1,1,1.975,2.279Z" transform="translate(-24.994 -121.957)" fill="#2e2e2e"></path>
      <path id="Caminho_722" data-name="Caminho 722" d="M586.456,327.1c-3.943,4.93-7.087,10.82-13.755,11.882-2.239.365-14.235,1.738-16.954-1.271,4.456-6.458,4.916-14.384,4.991-22.059.068-7.1-10.969-7.107-11.036,0-.041,4.47.149,10.746-2.34,15.06a6.1,6.1,0,0,0-.852.751,8.844,8.844,0,0,0-1.352,1.9,8.8,8.8,0,0,1-1.143.8c-4.977,2.9-15.939.636-20.686-2.029-5.572-3.145-4.923-10.691-7.473-15.966S509.364,306.6,503.1,307.8c-6.965,1.353-4.017,11.969,2.935,10.637-2.029.385.927,4.937,1.258,6.161.433,1.582.615,3.219,1.035,4.808a19.335,19.335,0,0,0,5.187,9.15c5.64,5.45,13.849,6.661,21.315,7.439a25.806,25.806,0,0,0,12.7-1.474l.223.243c4.057,4.166,9.853,5.613,15.506,5.8,5.8.183,12.4-.183,17.765-2.543,5.883-2.583,9.359-8.25,13.248-13.112C598.655,329.415,590.9,321.557,586.456,327.1Z" transform="translate(-178.494 -64.287)" fill="#ffc56b"></path>
      <path id="Caminho_723" data-name="Caminho 723" d="M597.226,302.071c-3.266,4.632-11.807,8.791-18.549,9.467a14.641,14.641,0,0,1-4.781-.21,10.2,10.2,0,0,1-2.34-.886c-6.465-3.266-10.955-12.964-11.76-19.51a5.3,5.3,0,0,1,.142-2.13c.068-2.651,1.63-5.065,5.187-5.762a5.971,5.971,0,0,1,3.463.264c5.166-.406,11.266,2.834,16.142,4.159,4.057,1.1,9.535,1.028,12.4,4.51A8.378,8.378,0,0,1,597.226,302.071Z" transform="translate(-198.124 -56.291)" fill="#a6584b"></path>
      <path id="Caminho_724" data-name="Caminho 724" d="M383.6,344.268c-1.9,14.945-4.632,29.68-7.851,44.355s-7.121,29.2-11.773,43.5a340.214,340.214,0,0,1-16.642,42l-2.509,5.085c-.832,1.7-1.677,3.381-2.563,5.031-1.751,3.313-3.523,6.634-5.356,9.927a201.723,201.723,0,0,1-12.037,19.3,119.652,119.652,0,0,1-15.019,17.386,114.1,114.1,0,0,1-8.751,7.493c-3.111,2.367-5.978,4.463-8.886,6.762-5.748,4.6-11.253,9.548-16.588,14.681q-4,3.848-7.858,7.851l-3.848,4.057-3.692,4.146c-2.421,2.759-4.943,5.518-7.3,8.27a82.033,82.033,0,0,0-6.269,8.791,91.458,91.458,0,0,0-9.068,19.611,103.682,103.682,0,0,0-4.578,21.126c-.385,3.6-.582,7.236-.622,10.861V647.2a24,24,0,0,0,.1,2.7l.21,2.664.108,1.352.054.676c0,.189.068.6,0,.3l.061.318a35.123,35.123,0,0,0,3.983,12.592,15.608,15.608,0,0,0,9.122,7.506c3.861,1.1,8.115.419,12.125-1.319a34.03,34.03,0,0,0,10.82-7.7,64.058,64.058,0,0,0,14.451-23.52,128.855,128.855,0,0,0,6.458-27.659,271.407,271.407,0,0,0,2.164-28.693,280.844,280.844,0,0,0-.764-28.8c-1.569-19.111-4.862-38.262-11.9-56.128h0a1.515,1.515,0,0,1,2.8-1.143,165.684,165.684,0,0,1,8.791,27.969,227.3,227.3,0,0,1,4.484,28.923,285.165,285.165,0,0,1,1.2,29.234,276,276,0,0,1-1.745,29.268,133.994,133.994,0,0,1-6.316,28.889,69.606,69.606,0,0,1-15.384,25.778,39.847,39.847,0,0,1-12.612,9.1,28.4,28.4,0,0,1-7.784,2.259,21.306,21.306,0,0,1-8.406-.5,20.236,20.236,0,0,1-7.547-3.929,24.247,24.247,0,0,1-5.356-6.35,41.264,41.264,0,0,1-4.95-14.877l.061.318a7.7,7.7,0,0,1-.155-1.1l-.068-.73-.135-1.461L226,650.227c-.122-.981-.095-1.934-.135-2.9s-.041-1.927-.034-2.888a113.776,113.776,0,0,1,.6-11.537,110.374,110.374,0,0,1,4.795-22.607,97.848,97.848,0,0,1,9.819-21,88.63,88.63,0,0,1,6.817-9.467c2.509-2.928,5.065-5.667,7.608-8.507l3.807-4.2,3.922-4.057q3.97-4.057,8.115-7.939c5.5-5.187,11.172-10.2,17.15-14.877,2.976-2.32,6.167-4.612,9.028-6.763a108.244,108.244,0,0,0,8.352-7.019,113.748,113.748,0,0,0,14.438-16.4,196.237,196.237,0,0,0,11.834-18.624c1.846-3.219,3.645-6.479,5.41-9.752.913-1.636,1.765-3.28,2.6-4.93l2.529-4.943a335.369,335.369,0,0,0,16.96-41.149c4.788-14.086,8.879-28.4,12.389-42.914S378.47,358.6,380.62,343.9v-.041a1.508,1.508,0,1,1,2.989.406Z" transform="translate(-90.014 -75.603)" fill="#2e2e2e"></path>
      <path id="Caminho_725" data-name="Caminho 725" d="M477.488,374.4a34.557,34.557,0,0,0,5.322,13.66A54.054,54.054,0,0,0,492.954,399c3.821,3.3,7.986,6.343,12.051,9.589,1.021.8,2.029,1.65,3.036,2.475l2.989,2.705c.92.994,1.887,1.934,2.759,2.976a38.19,38.19,0,0,1,2.475,3.246l1.136,1.7,1,1.785c.676,1.177,1.19,2.448,1.785,3.679a58.364,58.364,0,0,1,2.5,7.655c1.352,5.153,2.123,10.245,3.246,15.188l.886,3.679c.345,1.19.676,2.468,1.014,3.584a31.778,31.778,0,0,0,2.955,6.506,34.939,34.939,0,0,0,9.562,10.57c3.814,2.7,8.3,4.423,12.585,4.057a14.648,14.648,0,0,0,6.086-2.029,19.7,19.7,0,0,0,5.045-4.436,62.816,62.816,0,0,0,4.26-6.012q2.029-3.175,3.854-6.485a118.9,118.9,0,0,0,6.526-13.559c.426-1.156.886-2.306,1.237-3.456.2-.575.379-1.15.521-1.718s.277-1.035.534-1.914a13.741,13.741,0,0,1,5.856-7.8,17.217,17.217,0,0,1,9.021-2.556,17.48,17.48,0,0,1,9.068,2.367,12.515,12.515,0,0,1,3.814,3.5,10.6,10.6,0,0,1,1.887,5.16,12.176,12.176,0,0,1-.676,5.146l-.345,1.014-.318.906-.636,1.806-2.536,7.222c-.832,2.414-1.758,4.8-2.461,7.256A413.683,413.683,0,0,0,583.449,583.36a378.766,378.766,0,0,0,17.373,121.183h0a1.515,1.515,0,0,1-2.874.953c-13.66-39.134-19.942-80.716-19.976-122.19a402.021,402.021,0,0,1,4.816-62.045A372.036,372.036,0,0,1,597.305,460.7c.724-2.5,1.67-4.916,2.529-7.371l2.631-7.337.676-1.833.331-.913c.115-.311.23-.629.284-.818a5.657,5.657,0,0,0,.385-2.448,4.788,4.788,0,0,0-2.543-3.7,11.63,11.63,0,0,0-11.395-.034,7.437,7.437,0,0,0-3.253,4.26c-.122.352-.345,1.163-.528,1.806s-.392,1.352-.615,1.975c-.419,1.305-.927,2.549-1.407,3.8a124.657,124.657,0,0,1-7.019,14.2c-1.291,2.292-2.7,4.538-4.111,6.763a68.13,68.13,0,0,1-4.734,6.532,25.365,25.365,0,0,1-6.586,5.633,20.344,20.344,0,0,1-8.514,2.705,21.638,21.638,0,0,1-8.737-1.211,29.211,29.211,0,0,1-7.486-4.057,40.176,40.176,0,0,1-10.82-12.362,36.84,36.84,0,0,1-3.3-7.594c-.764-2.617-1.352-5.14-1.893-7.723-1.075-5.126-1.8-10.245-2.969-15.1a53.98,53.98,0,0,0-2.177-7.067c-.521-1.1-.92-2.252-1.542-3.3l-.859-1.6-1.041-1.495c-.615-1.048-1.434-1.954-2.151-2.942s-1.63-1.826-2.434-2.746l-2.7-2.543c-.967-.825-1.914-1.664-2.9-2.475-3.915-3.28-8.007-6.445-11.922-9.934a56.359,56.359,0,0,1-10.529-11.909,37.784,37.784,0,0,1-5.485-15.053,1.508,1.508,0,0,1,2.982-.433Z" transform="translate(-170.517 -85.51)" fill="#2e2e2e"></path>
      <path id="Caminho_726" data-name="Caminho 726" d="M550.9,316.5a17.651,17.651,0,0,1-.764,10.908,19.775,19.775,0,0,1-6.817,8.866,16.694,16.694,0,0,1-5.254,2.59,16.938,16.938,0,0,1-5.9.73,20.442,20.442,0,0,1-10.955-3.916,19.277,19.277,0,0,1-2.259-1.954A13.7,13.7,0,0,1,517,331.112a20.046,20.046,0,0,1-2.1-5.41c-.865-3.537-1.15-6.884-1.691-9.995s-1.352-5.978-3.057-7.29a5.93,5.93,0,0,0-3.476-1.068,19.3,19.3,0,0,0-4.483.521h-.068a1.515,1.515,0,0,1-.872-2.888,20.466,20.466,0,0,1,5.241-1.447,9.813,9.813,0,0,1,6.086,1.116,10.78,10.78,0,0,1,4.159,4.659,27.878,27.878,0,0,1,1.88,5.167c.92,3.381,1.521,6.607,2.469,9.467a18.033,18.033,0,0,0,1.67,3.74,6.973,6.973,0,0,0,1.048,1.353,13.223,13.223,0,0,0,1.488,1.312,14.753,14.753,0,0,0,7.371,3.117,11.767,11.767,0,0,0,3.949-.189,13.563,13.563,0,0,0,1.927-.568,17.145,17.145,0,0,0,1.839-.92,15.712,15.712,0,0,0,7.615-14.641h0a1.515,1.515,0,0,1,2.962-.555Z" transform="translate(-178.879 -62.941)" fill="#2e2e2e"></path>
      <path id="Caminho_727" data-name="Caminho 727" d="M561.458,302.615a29.754,29.754,0,0,1-5.579-8.149,14.4,14.4,0,0,1-1.434-5.194,10.548,10.548,0,0,1,1.353-5.606,10.679,10.679,0,0,1,4.145-4.132,12.692,12.692,0,0,1,5.525-1.461c3.686-.135,6.938.812,9.927,1.528l9.062,2.286c1.528.4,2.969.737,4.6,1.19a28.914,28.914,0,0,1,4.862,1.785,15.048,15.048,0,0,1,4.734,3.415,10.333,10.333,0,0,1,2.651,6.086,11.618,11.618,0,0,1-1.407,6.269,15.6,15.6,0,0,1-3.74,4.558c-2.888,2.434-6,3.74-8.561,5.119a25.5,25.5,0,0,0-6.6,4.815,13.072,13.072,0,0,0-2.151,3.063,10.692,10.692,0,0,0-1.021,3.456,7.135,7.135,0,0,0,2.029,6.127,10.137,10.137,0,0,0,6.762,2.462,13.667,13.667,0,0,0,3.916-.487,13.835,13.835,0,0,0,3.665-1.623,26.24,26.24,0,0,0,6.383-5.789,89.27,89.27,0,0,0,5.349-7.439,1.515,1.515,0,0,1,2.59,1.562,80.78,80.78,0,0,1-4.882,8.223,29.233,29.233,0,0,1-6.945,7.182,18.529,18.529,0,0,1-4.734,2.455,17.49,17.49,0,0,1-5.275.974,15.364,15.364,0,0,1-10.522-3.381A12.125,12.125,0,0,1,572.7,327a13.765,13.765,0,0,1-.838-5.822,17.582,17.582,0,0,1,4.341-10.238,28.849,28.849,0,0,1,8.183-6.465c2.888-1.6,5.559-2.82,7.479-4.4,1.826-1.454,3.05-3.658,2.962-5.268a3.389,3.389,0,0,0-.264-1.2,4.015,4.015,0,0,0-.676-1.143,8.886,8.886,0,0,0-2.745-2.029,48.736,48.736,0,0,0-8.25-2.894l-8.953-2.7c-2.989-.913-5.8-1.812-8.379-1.839a7.931,7.931,0,0,0-3.483.676,6.145,6.145,0,0,0-2.509,2.252,6.539,6.539,0,0,0-1.068,3.293,10.686,10.686,0,0,0,.818,3.814,28.642,28.642,0,0,0,4.362,7.581h0a1.508,1.508,0,0,1-2.265,1.988Z" transform="translate(-196.405 -54.724)" fill="#2e2e2e"></path>
      <path id="Caminho_728" data-name="Caminho 728" d="M642.549,548.659l-2.7,13.836-3.381,13.694-4.057,13.525-4.625,13.349c-1.663,4.4-3.462,8.751-5.187,13.133-1.853,4.328-3.794,8.615-5.687,12.923s-4.091,8.473-6.134,12.72-4.389,8.325-6.607,12.477-4.734,8.115-7.108,12.173-5.065,7.932-7.614,11.881-5.342,7.743-8.007,11.611c-1.312,1.947-2.766,3.8-4.159,5.694l-4.193,5.667a425,425,0,0,1-36.923,42.475,1.515,1.515,0,0,1-2.2-2.076,525.694,525.694,0,0,0,34.691-43.672c2.624-3.828,5.336-7.6,7.892-11.5s5.133-7.736,7.567-11.679l3.625-5.937c1.177-2.029,2.489-3.909,3.618-5.937l3.489-6.012c1.163-2.029,2.407-3.963,3.5-6l3.381-6.086c1.109-2.029,2.3-4.057,3.381-6.086,2.11-4.125,4.28-8.223,6.343-12.375s3.976-8.372,5.9-12.591l5.457-12.794,5.011-12.977,4.477-13.173,3.969-13.349,3.381-13.525v-.075a1.509,1.509,0,0,1,2.942.676Z" transform="translate(-189.651 -141.73)" fill="#2e2e2e"></path>
      <path id="Caminho_729" data-name="Caminho 729" d="M499.008,856.791c5.451-.183,10.9-.264,16.352-.385l16.345-.2c10.894-.088,21.789-.129,32.683,0h2.989a4.6,4.6,0,0,0,.595-.047,4.793,4.793,0,0,0,2.218-.832,4.959,4.959,0,0,0,1.521-1.785,5.793,5.793,0,0,0,.541-2.7,15.879,15.879,0,0,0-1.068-6.715,13.364,13.364,0,0,0-3.861-5.369,11,11,0,0,0-6.019-2.434c-2.144-.189-4.686.419-7.391.98a62.981,62.981,0,0,1-8.318,1.278,68.5,68.5,0,0,1-8.385.108,1.515,1.515,0,0,1,0-3.023h0a76.1,76.1,0,0,0,7.912-.859,66.608,66.608,0,0,0,7.716-1.826c1.285-.372,2.617-.778,4.058-1.116a17.633,17.633,0,0,1,4.626-.568,16.229,16.229,0,0,1,9.116,3.037,18.662,18.662,0,0,1,6.039,7.4,22.042,22.042,0,0,1,1.968,9.21,17.071,17.071,0,0,1-.135,2.5,10.716,10.716,0,0,1-.791,2.793,11,11,0,0,1-3.584,4.477,11.491,11.491,0,0,1-5.288,2.11,10.311,10.311,0,0,1-1.44.088h-1.082l-2.029-.054c-10.887-.311-21.775-.758-32.663-1.244l-16.324-.811c-5.41-.325-10.881-.609-16.325-.994a1.508,1.508,0,0,1,.054-3.016Z" transform="translate(-177.971 -233.836)" fill="#2e2e2e"></path>
      <path id="Caminho_730" data-name="Caminho 730" d="M615.852,316.544a37.54,37.54,0,0,1,.784,10.279,43.426,43.426,0,0,1-1.907,10.144,77.573,77.573,0,0,1-8.933,18.258c-3.57,5.68-7.513,11.016-11.239,16.385a110.36,110.36,0,0,0-9.914,16.466c-2.7,5.924-5.281,12.091-8.412,18.083a70.607,70.607,0,0,1-11.753,16.906,43.626,43.626,0,0,1-17.752,11.408,52.022,52.022,0,0,1-20.727,2.2h.257c-.751,0-1.352-.034-1.961-.081s-1.245-.095-1.853-.169c-1.231-.115-2.428-.325-3.638-.507a71.687,71.687,0,0,1-7.1-1.609A73.653,73.653,0,0,1,498.22,429.1c-1.1-.487-2.117-1.136-3.178-1.7a33.847,33.847,0,0,1-3.1-1.819l-3.03-1.941c-.987-.676-1.934-1.42-2.894-2.123-1.961-1.352-3.712-3.016-5.538-4.544s-3.422-3.32-5.133-4.97a1.51,1.51,0,1,1,2.029-2.238l.115.095c1.745,1.495,3.381,3.084,5.214,4.5a68.378,68.378,0,0,0,5.545,4.058,77.016,77.016,0,0,0,11.915,6.627l3.138,1.352,3.2,1.143c2.143.71,4.308,1.352,6.505,1.887a66.516,66.516,0,0,0,6.62,1.258c1.109.122,2.218.277,3.32.338.555.047,1.1.081,1.643.088s1.123,0,1.542,0h.257a46.488,46.488,0,0,0,18.259-2.5,39.3,39.3,0,0,0,14.979-10.144,74.714,74.714,0,0,0,10.82-15.425c3.124-5.62,5.8-11.557,8.71-17.582,6.2-12.429,15.256-22.255,22.593-32.946a76.538,76.538,0,0,0,9.15-16.825,37.086,37.086,0,0,0,2.029-18.583,1.508,1.508,0,0,1,2.962-.554Z" transform="translate(-170.636 -66.807)" fill="#2e2e2e"></path>
    </g>
  </g>
</svg>
