<svg id="face-neutral" xmlns="http://www.w3.org/2000/svg" width="22.048" height="22.048"><path id="Caminho_104" data-name="Caminho 104" d="M13.274 2.25A11.024 11.024 0 1 0 24.3 13.274 11.024 11.024 0 0 0 13.274 2.25Zm0 20.473a9.449 9.449 0 1 1 9.449-9.449 9.449 9.449 0 0 1-9.449 9.449Z" transform="translate(-2.25 -2.25)" fill="#0c9256"/><path id="Caminho_105" data-name="Caminho 105" d="M12.094 12.375a1.969 1.969 0 1 0 1.969 1.969 1.969 1.969 0 0 0-1.969-1.969Z" transform="translate(-4.613 -5.288)" fill="#0c9256"/><path id="Caminho_106" data-name="Caminho 106" d="M22.219 12.375a1.969 1.969 0 1 0 1.969 1.969 1.969 1.969 0 0 0-1.969-1.969Z" transform="translate(-7.651 -5.288)" fill="#0c9256"/><path id="Caminho_107" data-name="Caminho 107" d="M11.25 22.5h9.45v1.575h-9.45Z" transform="translate(-4.951 -8.326)" fill="#0c9256"/></svg>