<svg id="face-satisfied" xmlns="http://www.w3.org/2000/svg" width="22.048" height="22.048"><path id="Caminho_100" data-name="Caminho 100" d="M13.274 2.25A11.024 11.024 0 1 0 24.3 13.274 11.024 11.024 0 0 0 13.274 2.25Zm0 20.473a9.449 9.449 0 1 1 9.449-9.449 9.449 9.449 0 0 1-9.449 9.449Z" transform="translate(-2.25 -2.25)" fill="#0c653d"/><path id="Caminho_101" data-name="Caminho 101" d="M12.094 12.375a1.953 1.953 0 1 0 1.4.572 1.969 1.969 0 0 0-1.4-.572Z" transform="translate(-4.613 -5.288)" fill="#0c653d"/><path id="Caminho_102" data-name="Caminho 102" d="M22.219 12.375a1.953 1.953 0 1 0 1.4.572 1.969 1.969 0 0 0-1.4-.572Z" transform="translate(-7.651 -5.288)" fill="#0c653d"/><path id="Caminho_103" data-name="Caminho 103" d="M15.687 25.349a6.3 6.3 0 0 0 5.394-3.063l-1.347-.786a4.725 4.725 0 0 1-8.095 0l-1.347.787a6.3 6.3 0 0 0 5.394 3.063Z" transform="translate(-4.663 -8.026)" fill="#0c653d"/></svg>