<svg id="fundo" xmlns="http://www.w3.org/2000/svg" xmlns:xlink="http://www.w3.org/1999/xlink" width="1920" height="4502" viewBox="0 0 1920 4502">
  <defs>
    <clipPath id="clip-path">
      <rect id="Ret칙ngulo_233" data-name="Ret칙ngulo 233" width="1920" height="4502" fill="#fff"></rect>
    </clipPath>
  </defs>
  <g id="Grupo_de_m치scara_53" data-name="Grupo de m치scara 53" clip-path="url('#clip-path')">
    <g id="Grupo_183" data-name="Grupo 183" transform="translate(7844.179 -8121.271)" opacity="0.1">
      <path id="Caminho_732" data-name="Caminho 732" d="M742.475,205.613H627.113a28.564,28.564,0,0,1-28.564-28.564V61.685A61.685,61.685,0,0,0,536.865,0H267.3a61.686,61.686,0,0,0-61.686,61.688V177.049a28.564,28.564,0,0,1-28.564,28.564H61.688A61.687,61.687,0,0,0,0,267.3V536.861a61.688,61.688,0,0,0,61.688,61.688H177.049a28.564,28.564,0,0,1,28.564,28.563V742.474A61.686,61.686,0,0,0,267.3,804.16H536.863a61.686,61.686,0,0,0,61.686-61.686V715.4c0-.271.009-.551.027-.822,6.816-107.15-27.088-141.529-56.783-151.485-29.529-9.885-62.521,3.3-75.294,21.945-15,19.243-32.935,25.852-51.9,19.1-25.934-9.238-45.633-39.851-45.037-69.859,2.549-27.31-1.16-51.3-4.747-74.511-2.608-16.885-5.3-34.319-5.541-53.092a18.9,18.9,0,0,1,.163-2.747c2.2-16.038,8.892-27.887,19.908-35.241,15.517-10.352,40.213-12.039,66.145-4.536l1.91.495c19.85,4.394,38.139,4.124,55.818,3.88,25.781-.371,48.032-.687,69.439,13.868,15.562,11.025,26.33,28.991,26.8,44.7.31,10.467-3.843,19.01-12.7,26.111-15.96,12.8-44.794,50.94-32.066,87.165,13.758,39.143,66.028,58.174,159.8,58.174h27.995a61.688,61.688,0,0,0,61.688-61.687V267.3a61.687,61.687,0,0,0-61.688-61.686m28.564,331.247a28.564,28.564,0,0,1-28.564,28.564H714.48c-104.593,0-124.739-25.2-128.545-36.031-6.458-18.377,12.531-43.118,21.536-50.338,16.794-13.467,25.706-32.266,25.092-52.939-.774-25.981-16.773-53.751-41.017-70.926-30.319-20.62-60.065-20.2-88.8-19.781-16.263.228-31.646.45-47.468-2.945-.352-.075-.71-.167-1.057-.266-35.536-10.168-69.481-6.931-93.265,8.94-19.522,13.032-31.473,33.9-34.6,60.407-.07,1.32-.143,2.682-.213,4,.133,21.706,3.087,40.8,5.94,59.28,3.356,21.7,6.65,43.231,4.509,66.312-.045.709-.09,1.429-.135,2.139-1.03,44.241,27.723,88.064,67.034,102.063,32.94,11.743,65.591.628,89.563-30.483.253-.33.492-.667.723-1.012,3.422-5.208,20.783-14.945,37.492-9.342,26.12,8.756,38.584,52.088,34.2,118.891,0,.034,0,.066,0,.1-.01.15-.014.3-.019.449s-.01.288-.011.431c0,.035,0,.07,0,.105v27.995a28.562,28.562,0,0,1-28.562,28.563H267.3a28.563,28.563,0,0,1-28.564-28.563V627.111a61.686,61.686,0,0,0-61.686-61.686H61.688a28.564,28.564,0,0,1-28.564-28.564V267.3a28.564,28.564,0,0,1,28.564-28.564H177.049a61.686,61.686,0,0,0,61.686-61.686V61.688A28.564,28.564,0,0,1,267.3,33.124H536.863a28.564,28.564,0,0,1,28.563,28.564V177.049a61.687,61.687,0,0,0,61.688,61.686H742.475A28.564,28.564,0,0,1,771.039,267.3Z" transform="translate(-6447.337 12340.887)" fill="#40c187" stroke="#40c187" stroke-width="1"></path>
      <path id="Caminho_733" data-name="Caminho 733" d="M217.6,353.461a69.2,69.2,0,0,0,19.1-2.63c.326-.094.651-.2.972-.311,33.2-11.771,43.145-32.487,45.645-47.794,4.306-26.351-11.329-57.808-39.833-80.144-28.956-22.69-62.055-29.488-88.535-18.184-.2.085-.4.174-.593.267-33.124,15.7-45.98,45.914-33.55,78.846,13.681,36.249,55.9,69.95,96.792,69.95M168.231,234.743c17.855-7.416,40,2.3,54.822,13.913,18.548,14.533,29.885,34.573,27.572,48.729-1.523,9.324-9.434,16.635-23.516,21.734-26.93,7.268-65.13-20.315-75.317-47.3-6.358-16.846-1.135-28.634,16.44-37.072" transform="translate(-6406.936 12410.123)" fill="#40c187" stroke="#40c187" stroke-width="1"></path>
      <path id="Caminho_734" data-name="Caminho 734" d="M278.339,373.453c-16.116-43.215-70.007-62.241-108.291-52.275-31.943,8.31-48.594,34.314-43.456,67.868q.069.447.162.89c5.953,28.413,28.467,50.968,60.224,60.33A102.975,102.975,0,0,0,216,454.545c20.451,0,39.06-6.583,51.25-18.908,8.609-8.7,21.536-28.232,11.407-61.255-.1-.31-.2-.622-.315-.929M243.7,412.344c-9.067,9.167-28.545,11.694-47.356,6.149-19.688-5.807-33.513-18.839-37.078-34.922-2.379-16.448,3.88-26.372,19.121-30.338,23.919-6.218,58.991,6.123,68.749,31.35,3.7,12.38,2.541,21.718-3.436,27.76" transform="translate(-6403.621 12451.709)" fill="#40c187" stroke="#40c187" stroke-width="1"></path>
      <path id="Caminho_735" data-name="Caminho 735" d="M412.6,129.71c-.071-.035-.142-.071-.217-.105-43.134-20.2-71.826.385-83.3,24.144-18.321,37.956-5.256,99.172,39.053,121.212.227.115.46.221.692.325,10.966,4.837,20.923,6.933,29.84,6.933,24.325,0,40.945-15.595,49.345-33.719,17.765-38.336,6.165-98.577-35.416-118.79m5.363,104.862c-6.826,14.728-18.082,18.088-35.4,10.566-26.326-13.394-35.024-53.41-23.642-76.988,2.626-5.441,10.593-21.992,39.305-8.6,23.512,11.532,30.631,51.518,19.741,75.023" transform="translate(-6335.651 12383.118)" fill="#40c187" stroke="#40c187" stroke-width="1"></path>
      <path id="Caminho_736" data-name="Caminho 736" d="M318.827,138.8c-37.4-32.63-72.179-28.421-92.341-13.5C199.2,145.488,192.2,186.087,209.4,224.115c14.8,36.142,50.965,62.1,84.935,62.1a64.262,64.262,0,0,0,7.461-.429c27.647-3.225,47.086-24.206,52-56.126.058-.361.1-.724.132-1.086,2.734-31.45-8.2-60.791-32.486-87.229l-2.616-2.551m2.231,85.241a20.692,20.692,0,0,1-.274,2.255c-2.9,16.223-10.57,25.169-22.825,26.6-18.956,2.223-46.811-13.952-58-41.548q-.133-.33-.282-.654c-12.079-26.48-5.871-49.607,6.509-58.768a24.93,24.93,0,0,1,15.146-4.829c10.4,0,22.508,5.408,34.761,15.844a19.249,19.249,0,0,1,1.787,1.739c16.948,18.794,24.542,38.25,23.172,59.364" transform="translate(-6377.75 12380.557)" fill="#40c187" stroke="#40c187" stroke-width="1"></path>
    </g>
    <g id="Grupo_184" data-name="Grupo 184" transform="translate(105.918 4149.945)" opacity="0.1">
      <path id="Caminho_776" data-name="Caminho 776" d="M11.433,38.107h21.38a5.294,5.294,0,0,0,5.294-5.294V11.432A11.432,11.432,0,0,1,49.539,0H99.5A11.432,11.432,0,0,1,110.93,11.433v21.38a5.294,5.294,0,0,0,5.294,5.294H137.6a11.433,11.433,0,0,1,11.433,11.432V99.5A11.433,11.433,0,0,1,137.6,110.93h-21.38a5.294,5.294,0,0,0-5.294,5.294V137.6A11.432,11.432,0,0,1,99.5,149.037H49.539A11.432,11.432,0,0,1,38.107,137.6v-5.017c0-.05,0-.1,0-.152-1.263-19.858,5.02-26.23,10.524-28.075,5.473-1.832,11.587.611,13.954,4.067,2.78,3.566,6.1,4.791,9.619,3.539,4.806-1.712,8.457-7.386,8.347-12.947a54.092,54.092,0,0,1,.88-13.809,69.011,69.011,0,0,0,1.027-9.84,3.5,3.5,0,0,0-.03-.509,8.86,8.86,0,0,0-3.69-6.531c-2.876-1.918-7.453-2.231-12.259-.841l-.354.092a43.314,43.314,0,0,1-10.345.719c-4.778-.069-8.9-.127-12.869,2.57-2.884,2.043-4.88,5.373-4.966,8.285a5.694,5.694,0,0,0,2.354,4.839c2.958,2.372,8.3,9.441,5.943,16.154C43.687,107.4,34,110.93,16.621,110.93H11.433A11.433,11.433,0,0,1,0,99.5V49.539A11.433,11.433,0,0,1,11.433,38.107M6.139,99.5a5.294,5.294,0,0,0,5.294,5.294h5.188c19.384,0,23.118-4.67,23.824-6.678,1.2-3.406-2.322-7.991-3.991-9.329a11.92,11.92,0,0,1-4.65-9.811c.143-4.815,3.108-9.962,7.6-13.145,5.619-3.821,11.132-3.743,16.458-3.666a38.477,38.477,0,0,0,8.8-.546c.065-.014.132-.031.2-.049,6.586-1.885,12.877-1.284,17.285,1.657,3.618,2.415,5.833,6.284,6.413,11.2l.039.742a72.417,72.417,0,0,1-1.1,10.987,49.108,49.108,0,0,0-.836,12.29l.025.4c.191,8.2-5.138,16.321-12.424,18.915-6.1,2.176-12.156.116-16.6-5.649-.047-.061-.091-.124-.134-.188-.634-.965-3.852-2.77-6.948-1.731-4.841,1.623-7.151,9.654-6.338,22.034,0,.006,0,.012,0,.018,0,.028,0,.055,0,.083s0,.053,0,.08c0,.006,0,.013,0,.019V137.6a5.294,5.294,0,0,0,5.294,5.294H99.5a5.294,5.294,0,0,0,5.294-5.294V116.224a11.432,11.432,0,0,1,11.432-11.432H137.6A5.294,5.294,0,0,0,142.9,99.5V49.539a5.294,5.294,0,0,0-5.294-5.294h-21.38a11.432,11.432,0,0,1-11.432-11.432V11.433A5.294,5.294,0,0,0,99.5,6.139H49.539a5.294,5.294,0,0,0-5.294,5.294v21.38A11.433,11.433,0,0,1,32.813,44.245H11.433a5.294,5.294,0,0,0-5.294,5.294Z" transform="translate(0)" fill="#40c187" stroke="#40c187" stroke-width="1"></path>
      <path id="Caminho_777" data-name="Caminho 777" d="M128.453,227.655a12.825,12.825,0,0,1-3.54-.487c-.06-.017-.121-.037-.18-.058-6.153-2.182-8-6.021-8.459-8.858-.8-4.884,2.1-10.714,7.382-14.853,5.366-4.205,11.5-5.465,16.408-3.37l.11.049c6.139,2.91,8.521,8.509,6.218,14.613-2.535,6.718-10.36,12.964-17.939,12.964m9.149-22c-3.309-1.374-7.413.426-10.16,2.578-3.438,2.693-5.539,6.407-5.11,9.031.282,1.728,1.748,3.083,4.358,4.028,4.991,1.347,12.071-3.765,13.959-8.767,1.178-3.122.21-5.307-3.047-6.871" transform="translate(-27.231 -149.315)" fill="#40c187" stroke="#40c187" stroke-width="1"></path>
      <path id="Caminho_778" data-name="Caminho 778" d="M126.417,328.752c2.987-8.009,12.974-11.535,20.07-9.688,5.92,1.54,9.006,6.359,8.054,12.578q-.013.083-.03.165c-1.1,5.266-5.276,9.446-11.161,11.181a19.085,19.085,0,0,1-5.378.793,13.256,13.256,0,0,1-9.5-3.5c-1.6-1.612-3.991-5.232-2.114-11.353.018-.057.037-.115.058-.172m6.42,7.208c1.68,1.7,5.29,2.167,8.776,1.14,3.649-1.076,6.211-3.492,6.872-6.472.441-3.048-.719-4.888-3.544-5.623-4.433-1.152-10.933,1.135-12.741,5.81-.685,2.294-.471,4.025.637,5.145" transform="translate(-37.067 -239)" fill="#40c187" stroke="#40c187" stroke-width="1"></path>
      <path id="Caminho_779" data-name="Caminho 779" d="M329.121,122.943l.04-.019c7.994-3.743,13.312.071,15.438,4.475,3.4,7.034.974,18.38-7.238,22.464-.042.021-.085.041-.128.06a13.719,13.719,0,0,1-5.53,1.285c-4.508,0-7.588-2.89-9.145-6.249-3.292-7.1-1.143-18.27,6.564-22.016m-.994,19.434c1.265,2.73,3.351,3.352,6.562,1.958,4.879-2.482,6.491-9.9,4.382-14.268-.487-1.008-1.963-4.076-7.285-1.594-4.358,2.137-5.677,9.548-3.659,13.9" transform="translate(-277.251 -91.076)" fill="#40c187" stroke="#40c187" stroke-width="1"></path>
      <path id="Caminho_780" data-name="Caminho 780" d="M206.627,118.629c6.931-6.047,13.377-5.267,17.114-2.5,5.058,3.743,6.355,11.267,3.166,18.315-2.744,6.7-9.446,11.51-15.741,11.51a11.9,11.9,0,0,1-1.383-.079c-5.124-.6-8.727-4.486-9.637-10.4-.011-.067-.018-.134-.024-.2-.507-5.829,1.519-11.267,6.021-16.166l.485-.473m-.413,15.8a3.831,3.831,0,0,0,.051.418c.537,3.007,1.959,4.665,4.23,4.929,3.513.412,8.676-2.586,10.748-7.7.017-.041.034-.081.052-.121,2.239-4.908,1.088-9.194-1.206-10.892a4.62,4.62,0,0,0-2.807-.9c-1.927,0-4.171,1-6.442,2.936a3.57,3.57,0,0,0-.331.322c-3.141,3.483-4.548,7.089-4.295,11" transform="translate(-129.575 -85.553)" fill="#40c187" stroke="#40c187" stroke-width="1"></path>
    </g>
    <g id="Grupo_181" data-name="Grupo 181" transform="translate(136.98 2203.308)" opacity="0.1">
      <path id="Caminho_776-2" data-name="Caminho 776" d="M11.433,38.107h21.38a5.294,5.294,0,0,0,5.294-5.294V11.432A11.432,11.432,0,0,1,49.539,0H99.5A11.432,11.432,0,0,1,110.93,11.433v21.38a5.294,5.294,0,0,0,5.294,5.294H137.6a11.433,11.433,0,0,1,11.433,11.432V99.5A11.433,11.433,0,0,1,137.6,110.93h-21.38a5.294,5.294,0,0,0-5.294,5.294V137.6A11.432,11.432,0,0,1,99.5,149.037H49.539A11.432,11.432,0,0,1,38.107,137.6v-5.017c0-.05,0-.1,0-.152-1.263-19.858,5.02-26.23,10.524-28.075,5.473-1.832,11.587.611,13.954,4.067,2.78,3.566,6.1,4.791,9.619,3.539,4.806-1.712,8.457-7.386,8.347-12.947a54.092,54.092,0,0,1,.88-13.809,69.011,69.011,0,0,0,1.027-9.84,3.5,3.5,0,0,0-.03-.509,8.86,8.86,0,0,0-3.69-6.531c-2.876-1.918-7.453-2.231-12.259-.841l-.354.092a43.314,43.314,0,0,1-10.345.719c-4.778-.069-8.9-.127-12.869,2.57-2.884,2.043-4.88,5.373-4.966,8.285a5.694,5.694,0,0,0,2.354,4.839c2.958,2.372,8.3,9.441,5.943,16.154C43.687,107.4,34,110.93,16.621,110.93H11.433A11.433,11.433,0,0,1,0,99.5V49.539A11.433,11.433,0,0,1,11.433,38.107M6.139,99.5a5.294,5.294,0,0,0,5.294,5.294h5.188c19.384,0,23.118-4.67,23.824-6.678,1.2-3.406-2.322-7.991-3.991-9.329a11.92,11.92,0,0,1-4.65-9.811c.143-4.815,3.108-9.962,7.6-13.145,5.619-3.821,11.132-3.743,16.458-3.666a38.477,38.477,0,0,0,8.8-.546c.065-.014.132-.031.2-.049,6.586-1.885,12.877-1.284,17.285,1.657,3.618,2.415,5.833,6.284,6.413,11.2l.039.742a72.417,72.417,0,0,1-1.1,10.987,49.108,49.108,0,0,0-.836,12.29l.025.4c.191,8.2-5.138,16.321-12.424,18.915-6.1,2.176-12.156.116-16.6-5.649-.047-.061-.091-.124-.134-.188-.634-.965-3.852-2.77-6.948-1.731-4.841,1.623-7.151,9.654-6.338,22.034,0,.006,0,.012,0,.018,0,.028,0,.055,0,.083s0,.053,0,.08c0,.006,0,.013,0,.019V137.6a5.294,5.294,0,0,0,5.294,5.294H99.5a5.294,5.294,0,0,0,5.294-5.294V116.224a11.432,11.432,0,0,1,11.432-11.432H137.6A5.294,5.294,0,0,0,142.9,99.5V49.539a5.294,5.294,0,0,0-5.294-5.294h-21.38a11.432,11.432,0,0,1-11.432-11.432V11.433A5.294,5.294,0,0,0,99.5,6.139H49.539a5.294,5.294,0,0,0-5.294,5.294v21.38A11.433,11.433,0,0,1,32.813,44.245H11.433a5.294,5.294,0,0,0-5.294,5.294Z" transform="translate(0)" fill="#40c187" stroke="#40c187" stroke-width="1"></path>
      <path id="Caminho_777-2" data-name="Caminho 777" d="M128.453,227.655a12.825,12.825,0,0,1-3.54-.487c-.06-.017-.121-.037-.18-.058-6.153-2.182-8-6.021-8.459-8.858-.8-4.884,2.1-10.714,7.382-14.853,5.366-4.205,11.5-5.465,16.408-3.37l.11.049c6.139,2.91,8.521,8.509,6.218,14.613-2.535,6.718-10.36,12.964-17.939,12.964m9.149-22c-3.309-1.374-7.413.426-10.16,2.578-3.438,2.693-5.539,6.407-5.11,9.031.282,1.728,1.748,3.083,4.358,4.028,4.991,1.347,12.071-3.765,13.959-8.767,1.178-3.122.21-5.307-3.047-6.871" transform="translate(-27.231 -149.315)" fill="#40c187" stroke="#40c187" stroke-width="1"></path>
      <path id="Caminho_778-2" data-name="Caminho 778" d="M126.417,328.752c2.987-8.009,12.974-11.535,20.07-9.688,5.92,1.54,9.006,6.359,8.054,12.578q-.013.083-.03.165c-1.1,5.266-5.276,9.446-11.161,11.181a19.085,19.085,0,0,1-5.378.793,13.256,13.256,0,0,1-9.5-3.5c-1.6-1.612-3.991-5.232-2.114-11.353.018-.057.037-.115.058-.172m6.42,7.208c1.68,1.7,5.29,2.167,8.776,1.14,3.649-1.076,6.211-3.492,6.872-6.472.441-3.048-.719-4.888-3.544-5.623-4.433-1.152-10.933,1.135-12.741,5.81-.685,2.294-.471,4.025.637,5.145" transform="translate(-37.067 -239)" fill="#40c187" stroke="#40c187" stroke-width="1"></path>
      <path id="Caminho_779-2" data-name="Caminho 779" d="M329.121,122.943l.04-.019c7.994-3.743,13.312.071,15.438,4.475,3.4,7.034.974,18.38-7.238,22.464-.042.021-.085.041-.128.06a13.719,13.719,0,0,1-5.53,1.285c-4.508,0-7.588-2.89-9.145-6.249-3.292-7.1-1.143-18.27,6.564-22.016m-.994,19.434c1.265,2.73,3.351,3.352,6.562,1.958,4.879-2.482,6.491-9.9,4.382-14.268-.487-1.008-1.963-4.076-7.285-1.594-4.358,2.137-5.677,9.548-3.659,13.9" transform="translate(-277.251 -91.076)" fill="#40c187" stroke="#40c187" stroke-width="1"></path>
      <path id="Caminho_780-2" data-name="Caminho 780" d="M206.627,118.629c6.931-6.047,13.377-5.267,17.114-2.5,5.058,3.743,6.355,11.267,3.166,18.315-2.744,6.7-9.446,11.51-15.741,11.51a11.9,11.9,0,0,1-1.383-.079c-5.124-.6-8.727-4.486-9.637-10.4-.011-.067-.018-.134-.024-.2-.507-5.829,1.519-11.267,6.021-16.166l.485-.473m-.413,15.8a3.831,3.831,0,0,0,.051.418c.537,3.007,1.959,4.665,4.23,4.929,3.513.412,8.676-2.586,10.748-7.7.017-.041.034-.081.052-.121,2.239-4.908,1.088-9.194-1.206-10.892a4.62,4.62,0,0,0-2.807-.9c-1.927,0-4.171,1-6.442,2.936a3.57,3.57,0,0,0-.331.322c-3.141,3.483-4.548,7.089-4.295,11" transform="translate(-129.575 -85.553)" fill="#40c187" stroke="#40c187" stroke-width="1"></path>
    </g>
    <g id="Grupo_170" data-name="Grupo 170" transform="translate(7598.197 -10014.122)" opacity="0.1">
      <path id="Caminho_776-3" data-name="Caminho 776" d="M742.475,205.613H627.113a28.564,28.564,0,0,1-28.564-28.564V61.685A61.685,61.685,0,0,0,536.865,0H267.3a61.686,61.686,0,0,0-61.686,61.688V177.049a28.564,28.564,0,0,1-28.564,28.564H61.688A61.687,61.687,0,0,0,0,267.3V536.861a61.688,61.688,0,0,0,61.688,61.688H177.049a28.564,28.564,0,0,1,28.564,28.563V742.474A61.686,61.686,0,0,0,267.3,804.16H536.863a61.686,61.686,0,0,0,61.686-61.686V715.4c0-.271.009-.551.027-.822,6.816-107.15-27.088-141.529-56.783-151.485-29.529-9.885-62.521,3.3-75.294,21.945-15,19.243-32.935,25.852-51.9,19.1-25.934-9.238-45.633-39.851-45.037-69.859,2.549-27.31-1.16-51.3-4.747-74.511-2.608-16.885-5.3-34.319-5.541-53.092a18.9,18.9,0,0,1,.163-2.747c2.2-16.038,8.892-27.887,19.908-35.241,15.517-10.352,40.213-12.039,66.145-4.536l1.91.495c19.85,4.394,38.139,4.124,55.818,3.88,25.781-.371,48.032-.687,69.439,13.868,15.562,11.025,26.33,28.991,26.8,44.7.31,10.467-3.843,19.01-12.7,26.111-15.96,12.8-44.794,50.94-32.066,87.165,13.758,39.143,66.028,58.174,159.8,58.174h27.995a61.688,61.688,0,0,0,61.688-61.687V267.3a61.687,61.687,0,0,0-61.688-61.686m28.564,331.247a28.564,28.564,0,0,1-28.564,28.564H714.48c-104.593,0-124.739-25.2-128.545-36.031-6.458-18.377,12.531-43.118,21.536-50.338,16.794-13.467,25.706-32.266,25.092-52.939-.774-25.981-16.773-53.751-41.017-70.926-30.319-20.62-60.065-20.2-88.8-19.781-16.263.228-31.646.45-47.468-2.945-.352-.075-.71-.167-1.057-.266-35.536-10.168-69.481-6.931-93.265,8.94-19.522,13.032-31.473,33.9-34.6,60.407-.07,1.32-.143,2.682-.213,4,.133,21.706,3.087,40.8,5.94,59.28,3.356,21.7,6.65,43.231,4.509,66.312-.045.709-.09,1.429-.135,2.139-1.03,44.241,27.723,88.064,67.034,102.063,32.94,11.743,65.591.628,89.563-30.483.253-.33.492-.667.723-1.012,3.422-5.208,20.783-14.945,37.492-9.342,26.12,8.756,38.584,52.088,34.2,118.891,0,.034,0,.066,0,.1-.01.15-.014.3-.019.449s-.01.288-.011.431c0,.035,0,.07,0,.105v27.995a28.562,28.562,0,0,1-28.562,28.563H267.3a28.563,28.563,0,0,1-28.564-28.563V627.111a61.686,61.686,0,0,0-61.686-61.686H61.688a28.564,28.564,0,0,1-28.564-28.564V267.3a28.564,28.564,0,0,1,28.564-28.564H177.049a61.686,61.686,0,0,0,61.686-61.686V61.688A28.564,28.564,0,0,1,267.3,33.124H536.863a28.564,28.564,0,0,1,28.563,28.564V177.049a61.687,61.687,0,0,0,61.688,61.686H742.475A28.564,28.564,0,0,1,771.039,267.3Z" transform="translate(-6199.697 10381.887)" fill="#40c187" stroke="#40c187" stroke-width="1"></path>
      <path id="Caminho_777-3" data-name="Caminho 777" d="M217.6,353.461a69.2,69.2,0,0,0,19.1-2.63c.326-.094.651-.2.972-.311,33.2-11.771,43.145-32.487,45.645-47.794,4.306-26.351-11.329-57.808-39.833-80.144-28.956-22.69-62.055-29.488-88.535-18.184-.2.085-.4.174-.593.267-33.124,15.7-45.98,45.914-33.55,78.846,13.681,36.249,55.9,69.95,96.792,69.95M168.231,234.743c17.855-7.416,40,2.3,54.822,13.913,18.548,14.533,29.885,34.573,27.572,48.729-1.523,9.324-9.434,16.635-23.516,21.734-26.93,7.268-65.13-20.315-75.317-47.3-6.358-16.846-1.135-28.634,16.44-37.072" transform="translate(-6159.295 10451.123)" fill="#40c187" stroke="#40c187" stroke-width="1"></path>
      <path id="Caminho_778-3" data-name="Caminho 778" d="M278.339,373.453c-16.116-43.215-70.007-62.241-108.291-52.275-31.943,8.31-48.594,34.314-43.456,67.868q.069.447.162.89c5.953,28.413,28.467,50.968,60.224,60.33A102.975,102.975,0,0,0,216,454.545c20.451,0,39.06-6.583,51.25-18.908,8.609-8.7,21.536-28.232,11.407-61.255-.1-.31-.2-.622-.315-.929M243.7,412.344c-9.067,9.167-28.545,11.694-47.356,6.149-19.688-5.807-33.513-18.839-37.078-34.922-2.379-16.448,3.88-26.372,19.121-30.338,23.919-6.218,58.991,6.123,68.749,31.35,3.7,12.38,2.541,21.718-3.436,27.76" transform="translate(-6155.98 10492.709)" fill="#40c187" stroke="#40c187" stroke-width="1"></path>
      <path id="Caminho_779-3" data-name="Caminho 779" d="M412.6,129.71c-.071-.035-.142-.071-.217-.105-43.134-20.2-71.826.385-83.3,24.144-18.321,37.956-5.256,99.172,39.053,121.212.227.115.46.221.692.325,10.966,4.837,20.923,6.933,29.84,6.933,24.325,0,40.945-15.595,49.345-33.719,17.765-38.336,6.165-98.577-35.416-118.79m5.363,104.862c-6.826,14.728-18.082,18.088-35.4,10.566-26.326-13.394-35.024-53.41-23.642-76.988,2.626-5.441,10.593-21.992,39.305-8.6,23.512,11.532,30.631,51.518,19.741,75.023" transform="translate(-6088.011 10424.118)" fill="#40c187" stroke="#40c187" stroke-width="1"></path>
      <path id="Caminho_780-3" data-name="Caminho 780" d="M318.827,138.8c-37.4-32.63-72.179-28.421-92.341-13.5C199.2,145.488,192.2,186.087,209.4,224.115c14.8,36.142,50.965,62.1,84.935,62.1a64.262,64.262,0,0,0,7.461-.429c27.647-3.225,47.086-24.206,52-56.126.058-.361.1-.724.132-1.086,2.734-31.45-8.2-60.791-32.486-87.229l-2.616-2.551m2.231,85.241a20.692,20.692,0,0,1-.274,2.255c-2.9,16.223-10.57,25.169-22.825,26.6-18.956,2.223-46.811-13.952-58-41.548q-.133-.33-.282-.654c-12.079-26.48-5.871-49.607,6.509-58.768a24.93,24.93,0,0,1,15.146-4.829c10.4,0,22.508,5.408,34.761,15.844a19.249,19.249,0,0,1,1.787,1.739c16.948,18.794,24.542,38.25,23.172,59.364" transform="translate(-6130.109 10421.557)" fill="#40c187" stroke="#40c187" stroke-width="1"></path>
    </g>
    <g id="Grupo_178" data-name="Grupo 178" transform="translate(-282.663 1273.844)" opacity="0.1">
      <path id="Caminho_776-4" data-name="Caminho 776" d="M47.611,158.695h89.038a22.046,22.046,0,0,0,22.046-22.046V47.609A47.61,47.61,0,0,1,206.3,0H414.358a47.61,47.61,0,0,1,47.61,47.611v89.038a22.046,22.046,0,0,0,22.046,22.046h89.038a47.611,47.611,0,0,1,47.611,47.61V414.356a47.612,47.612,0,0,1-47.611,47.611H484.014a22.046,22.046,0,0,0-22.046,22.045v89.039a47.61,47.61,0,0,1-47.61,47.61H206.305a47.61,47.61,0,0,1-47.61-47.61V552.158c0-.209-.007-.425-.021-.635-5.261-82.7,20.907-109.234,43.826-116.918,22.791-7.63,48.254,2.545,58.113,16.937,11.578,14.852,25.42,19.953,40.058,14.74,20.016-7.13,35.22-30.757,34.76-53.918-1.967-21.079.9-39.6,3.664-57.509,2.013-13.032,4.092-26.488,4.277-40.977a14.59,14.59,0,0,0-.126-2.12c-1.7-12.379-6.863-21.524-15.365-27.2-11.976-7.989-31.037-9.292-51.051-3.5l-1.474.382c-15.32,3.391-29.436,3.183-43.081,2.995-19.9-.286-37.072-.531-53.594,10.7-12.011,8.51-20.322,22.376-20.682,34.5-.239,8.079,2.966,14.672,9.8,20.153,12.318,9.877,34.572,39.316,24.749,67.275-10.618,30.211-50.961,44.9-123.333,44.9H47.611A47.612,47.612,0,0,1,0,414.356V206.305a47.611,47.611,0,0,1,47.611-47.61M25.565,414.356A22.046,22.046,0,0,0,47.611,436.4H69.218c80.726,0,96.275-19.448,99.213-27.809,4.984-14.183-9.672-33.279-16.622-38.852-12.962-10.394-19.841-24.9-19.366-40.859.6-20.053,12.945-41.486,31.657-54.741,23.4-15.914,46.359-15.589,68.538-15.267,12.552.176,24.425.347,36.636-2.273.272-.058.548-.129.816-.2,27.427-7.848,53.626-5.349,71.983,6.9,15.068,10.059,24.291,26.168,26.707,46.623.054,1.018.11,2.07.164,3.089-.1,16.753-2.382,31.491-4.585,45.753-2.59,16.75-5.133,33.366-3.48,51.18.034.547.07,1.1.1,1.651.795,34.146-21.4,67.969-51.738,78.773-25.424,9.063-50.624.485-69.126-23.527-.2-.255-.38-.515-.558-.781-2.641-4.02-16.04-11.535-28.937-7.21-20.16,6.758-29.779,40.2-26.394,91.761,0,.026,0,.051,0,.076.007.115.011.231.015.346s.007.223.008.333c0,.027,0,.054,0,.081v21.607A22.045,22.045,0,0,0,206.305,595.1H414.358A22.045,22.045,0,0,0,436.4,573.051V484.012a47.61,47.61,0,0,1,47.61-47.61h89.038A22.046,22.046,0,0,0,595.1,414.356V206.305a22.046,22.046,0,0,0-22.046-22.046H484.014a47.61,47.61,0,0,1-47.61-47.61V47.611a22.046,22.046,0,0,0-22.046-22.046H206.305A22.046,22.046,0,0,0,184.26,47.611v89.038a47.611,47.611,0,0,1-47.611,47.61H47.611a22.046,22.046,0,0,0-22.046,22.046Z" transform="translate(0)" fill="#40c187" stroke="#40c187" stroke-width="1"></path>
      <path id="Caminho_777-4" data-name="Caminho 777" d="M167.411,318.223a53.409,53.409,0,0,1-14.743-2.03c-.252-.073-.5-.153-.75-.24-25.623-9.085-33.3-25.074-35.229-36.888-3.324-20.338,8.744-44.617,30.744-61.856,22.349-17.512,47.9-22.759,68.333-14.035.154.066.306.134.458.206,25.565,12.118,35.488,35.437,25.894,60.854-10.559,27.978-43.144,53.988-74.706,53.988m38.1-91.628c-13.781-5.724-30.87,1.773-42.312,10.738-14.315,11.216-23.065,26.684-21.28,37.61,1.175,7.2,7.281,12.839,18.15,16.775,20.785,5.609,50.268-15.679,58.131-36.51,4.907-13,.876-22.1-12.688-28.612" transform="translate(254.128 8.02)" fill="#40c187" stroke="#40c187" stroke-width="1"></path>
      <path id="Caminho_778-4" data-name="Caminho 778" d="M128.775,360.932c12.439-33.354,54.032-48.039,83.58-40.347,24.654,6.413,37.506,26.484,33.54,52.381q-.053.345-.125.687c-4.595,21.929-21.971,39.338-46.481,46.564a79.478,79.478,0,0,1-22.4,3.3c-15.784,0-30.147-5.081-39.555-14.593-6.644-6.715-16.622-21.79-8.8-47.277.075-.239.156-.48.243-.717m26.736,30.017c7,7.075,22.031,9.026,36.55,4.746,15.2-4.482,25.866-14.54,28.618-26.953,1.836-12.695-2.995-20.355-14.758-23.415-18.461-4.8-45.53,4.726-53.061,24.2-2.853,9.555-1.961,16.762,2.652,21.426" transform="translate(243.321 12.837)" fill="#40c187" stroke="#40c187" stroke-width="1"></path>
      <path id="Caminho_779-4" data-name="Caminho 779" d="M354.609,127.814c.055-.027.11-.055.167-.081,33.292-15.587,55.436.3,64.289,18.635,14.14,29.295,4.057,76.542-30.142,93.553-.175.088-.355.17-.534.251-8.464,3.734-16.148,5.351-23.031,5.351-18.774,0-31.6-12.036-38.085-26.025-13.711-29.588-4.758-76.083,27.335-91.683m-4.139,80.934c5.268,11.367,13.956,13.961,27.325,8.155,20.319-10.337,27.032-41.223,18.247-59.421-2.027-4.2-8.176-16.973-30.336-6.638-18.147,8.9-23.642,39.762-15.236,57.9" transform="translate(-138.6 4.892)" fill="#40c187" stroke="#40c187" stroke-width="1"></path>
      <path id="Caminho_780-4" data-name="Caminho 780" d="M227.454,133.147c28.863-25.185,55.709-21.936,71.27-10.421,21.063,15.586,26.466,46.92,13.186,76.271-11.426,27.895-39.336,47.932-65.554,47.932a49.6,49.6,0,0,1-5.758-.331c-21.338-2.489-36.342-18.683-40.134-43.319-.045-.279-.077-.559-.1-.838-2.11-24.273,6.325-46.919,25.073-67.325l2.019-1.969m-1.722,65.79a15.968,15.968,0,0,0,.211,1.74C228.18,213.2,234.1,220.1,243.56,221.206c14.631,1.715,36.129-10.768,44.762-32.067.069-.17.142-.338.218-.5,9.323-20.438,4.531-38.287-5.024-45.358a19.242,19.242,0,0,0-11.69-3.727c-8.024,0-17.372,4.174-26.829,12.229a14.858,14.858,0,0,0-1.379,1.342c-13.081,14.506-18.942,29.521-17.885,45.818" transform="translate(93.426 4.595)" fill="#40c187" stroke="#40c187" stroke-width="1"></path>
    </g>
    <g id="Grupo_182" data-name="Grupo 182" transform="translate(-296.163 3165.485)" opacity="0.1">
      <path id="Caminho_776-5" data-name="Caminho 776" d="M61.688,205.613H177.049a28.564,28.564,0,0,0,28.564-28.564V61.685A61.685,61.685,0,0,1,267.3,0H536.863A61.686,61.686,0,0,1,598.55,61.688V177.049a28.564,28.564,0,0,0,28.564,28.564H742.475A61.687,61.687,0,0,1,804.163,267.3V536.861a61.688,61.688,0,0,1-61.687,61.688H627.113a28.564,28.564,0,0,0-28.564,28.563V742.474a61.686,61.686,0,0,1-61.686,61.686H267.3a61.686,61.686,0,0,1-61.686-61.686V715.4c0-.271-.009-.551-.027-.822-6.816-107.15,27.088-141.529,56.783-151.485,29.529-9.885,62.521,3.3,75.294,21.945,15,19.243,32.935,25.852,51.9,19.1C415.5,594.9,435.2,564.29,434.6,534.281c-2.549-27.31,1.16-51.3,4.747-74.511,2.608-16.885,5.3-34.319,5.541-53.092a18.9,18.9,0,0,0-.163-2.747c-2.2-16.038-8.892-27.887-19.908-35.241-15.517-10.352-40.213-12.039-66.145-4.536l-1.91.495c-19.85,4.394-38.139,4.124-55.818,3.88-25.781-.371-48.032-.687-69.439,13.868-15.562,11.025-26.33,28.991-26.8,44.7-.31,10.467,3.843,19.01,12.7,26.111,15.96,12.8,44.794,50.94,32.066,87.165-13.758,39.143-66.028,58.174-159.8,58.174H61.688A61.688,61.688,0,0,1,0,536.861V267.3a61.687,61.687,0,0,1,61.688-61.686M33.124,536.861a28.564,28.564,0,0,0,28.564,28.564H89.682c104.593,0,124.739-25.2,128.545-36.031,6.458-18.377-12.531-43.118-21.536-50.338-16.794-13.467-25.706-32.266-25.092-52.939.774-25.981,16.773-53.751,41.017-70.926,30.319-20.62,60.065-20.2,88.8-19.781,16.263.228,31.646.45,47.468-2.945.352-.075.71-.167,1.057-.266,35.536-10.168,69.481-6.931,93.265,8.94,19.522,13.032,31.473,33.9,34.6,60.407.07,1.32.143,2.682.213,4-.133,21.706-3.087,40.8-5.94,59.28-3.356,21.7-6.65,43.231-4.509,66.312.045.709.09,1.429.135,2.139,1.03,44.241-27.723,88.064-67.034,102.063-32.94,11.743-65.591.628-89.563-30.483-.253-.33-.492-.667-.723-1.012-3.422-5.208-20.783-14.945-37.492-9.342-26.12,8.756-38.584,52.088-34.2,118.891,0,.034,0,.066,0,.1.01.15.014.3.019.449s.01.288.011.431c0,.035,0,.07,0,.105v27.995A28.562,28.562,0,0,0,267.3,771.037H536.863a28.563,28.563,0,0,0,28.564-28.563V627.111a61.686,61.686,0,0,1,61.686-61.686H742.475a28.564,28.564,0,0,0,28.564-28.564V267.3a28.564,28.564,0,0,0-28.564-28.564H627.113a61.686,61.686,0,0,1-61.686-61.686V61.688a28.564,28.564,0,0,0-28.564-28.564H267.3a28.564,28.564,0,0,0-28.562,28.564V177.049a61.687,61.687,0,0,1-61.688,61.686H61.688A28.564,28.564,0,0,0,33.124,267.3Z" transform="translate(0)" fill="#40c187" stroke="#40c187" stroke-width="1"></path>
      <path id="Caminho_777-5" data-name="Caminho 777" d="M182.568,353.461a69.2,69.2,0,0,1-19.1-2.63c-.326-.094-.651-.2-.972-.311-33.2-11.771-43.145-32.487-45.645-47.794-4.306-26.351,11.329-57.808,39.833-80.144,28.956-22.69,62.055-29.488,88.535-18.184.2.085.4.174.593.267,33.124,15.7,45.98,45.914,33.55,78.846-13.681,36.249-55.9,69.95-96.792,69.95m49.364-118.718c-17.855-7.416-40,2.3-54.822,13.913-18.548,14.533-29.885,34.573-27.572,48.729,1.523,9.324,9.434,16.635,23.516,21.734,26.93,7.268,65.13-20.315,75.317-47.3,6.358-16.846,1.135-28.634-16.44-37.072" transform="translate(363.598 69.236)" fill="#40c187" stroke="#40c187" stroke-width="1"></path>
      <path id="Caminho_778-5" data-name="Caminho 778" d="M129.693,373.453c16.116-43.215,70.007-62.241,108.291-52.275,31.943,8.31,48.594,34.314,43.456,67.868q-.069.447-.162.89c-5.953,28.413-28.467,50.968-60.224,60.33a102.975,102.975,0,0,1-29.021,4.279c-20.451,0-39.06-6.583-51.25-18.908-8.609-8.7-21.536-28.232-11.407-61.255.1-.31.2-.622.315-.929m34.64,38.891c9.067,9.167,28.545,11.694,47.356,6.149,19.688-5.807,33.513-18.839,37.078-34.922,2.379-16.448-3.88-26.372-19.121-30.338-23.919-6.218-58.991,6.123-68.749,31.35-3.7,12.38-2.541,21.718,3.436,27.76" transform="translate(352.415 110.822)" fill="#40c187" stroke="#40c187" stroke-width="1"></path>
      <path id="Caminho_779-5" data-name="Caminho 779" d="M364.526,129.71c.071-.035.142-.071.217-.105,43.134-20.2,71.826.385,83.3,24.144,18.321,37.956,5.256,99.172-39.053,121.212-.227.115-.46.221-.692.325-10.966,4.837-20.923,6.933-29.84,6.933-24.325,0-40.945-15.595-49.345-33.719-17.765-38.336-6.165-98.577,35.416-118.79m-5.363,104.862c6.826,14.728,18.082,18.088,35.4,10.566,26.326-13.394,35.024-53.41,23.642-76.988-2.626-5.441-10.593-21.992-39.305-8.6-23.512,11.532-30.631,51.518-19.741,75.023" transform="translate(-84.654 42.231)" fill="#40c187" stroke="#40c187" stroke-width="1"></path>
      <path id="Caminho_780-5" data-name="Caminho 780" d="M235.558,138.8c37.4-32.63,72.179-28.421,92.341-13.5,27.29,20.194,34.291,60.793,17.084,98.821-14.8,36.142-50.965,62.1-84.935,62.1a64.262,64.262,0,0,1-7.461-.429c-27.647-3.225-47.086-24.206-52-56.126-.058-.361-.1-.724-.132-1.086-2.734-31.45,8.2-60.791,32.486-87.229l2.616-2.551m-2.231,85.241a20.692,20.692,0,0,0,.274,2.255c2.9,16.223,10.57,25.169,22.825,26.6,18.956,2.223,46.811-13.952,58-41.548q.133-.33.282-.654c12.079-26.48,5.871-49.607-6.509-58.768a24.93,24.93,0,0,0-15.146-4.829c-10.4,0-22.508,5.408-34.761,15.844a19.249,19.249,0,0,0-1.787,1.739c-16.948,18.794-24.542,38.25-23.172,59.364" transform="translate(180.191 39.67)" fill="#40c187" stroke="#40c187" stroke-width="1"></path>
    </g>
    <g id="Grupo_180" data-name="Grupo 180" transform="translate(1366.5 2240.685)" opacity="0.1">
      <path id="Caminho_776-6" data-name="Caminho 776" d="M61.688,205.613H177.049a28.564,28.564,0,0,0,28.564-28.564V61.685A61.685,61.685,0,0,1,267.3,0H536.863A61.686,61.686,0,0,1,598.55,61.688V177.049a28.564,28.564,0,0,0,28.564,28.564H742.475A61.687,61.687,0,0,1,804.163,267.3V536.861a61.688,61.688,0,0,1-61.687,61.688H627.113a28.564,28.564,0,0,0-28.564,28.563V742.474a61.686,61.686,0,0,1-61.686,61.686H267.3a61.686,61.686,0,0,1-61.686-61.686V715.4c0-.271-.009-.551-.027-.822-6.816-107.15,27.088-141.529,56.783-151.485,29.529-9.885,62.521,3.3,75.294,21.945,15,19.243,32.935,25.852,51.9,19.1C415.5,594.9,435.2,564.29,434.6,534.281c-2.549-27.31,1.16-51.3,4.747-74.511,2.608-16.885,5.3-34.319,5.541-53.092a18.9,18.9,0,0,0-.163-2.747c-2.2-16.038-8.892-27.887-19.908-35.241-15.517-10.352-40.213-12.039-66.145-4.536l-1.91.495c-19.85,4.394-38.139,4.124-55.818,3.88-25.781-.371-48.032-.687-69.439,13.868-15.562,11.025-26.33,28.991-26.8,44.7-.31,10.467,3.843,19.01,12.7,26.111,15.96,12.8,44.794,50.94,32.066,87.165-13.758,39.143-66.028,58.174-159.8,58.174H61.688A61.688,61.688,0,0,1,0,536.861V267.3a61.687,61.687,0,0,1,61.688-61.686M33.124,536.861a28.564,28.564,0,0,0,28.564,28.564H89.682c104.593,0,124.739-25.2,128.545-36.031,6.458-18.377-12.531-43.118-21.536-50.338-16.794-13.467-25.706-32.266-25.092-52.939.774-25.981,16.773-53.751,41.017-70.926,30.319-20.62,60.065-20.2,88.8-19.781,16.263.228,31.646.45,47.468-2.945.352-.075.71-.167,1.057-.266,35.536-10.168,69.481-6.931,93.265,8.94,19.522,13.032,31.473,33.9,34.6,60.407.07,1.32.143,2.682.213,4-.133,21.706-3.087,40.8-5.94,59.28-3.356,21.7-6.65,43.231-4.509,66.312.045.709.09,1.429.135,2.139,1.03,44.241-27.723,88.064-67.034,102.063-32.94,11.743-65.591.628-89.563-30.483-.253-.33-.492-.667-.723-1.012-3.422-5.208-20.783-14.945-37.492-9.342-26.12,8.756-38.584,52.088-34.2,118.891,0,.034,0,.066,0,.1.01.15.014.3.019.449s.01.288.011.431c0,.035,0,.07,0,.105v27.995A28.562,28.562,0,0,0,267.3,771.037H536.863a28.563,28.563,0,0,0,28.564-28.563V627.111a61.686,61.686,0,0,1,61.686-61.686H742.475a28.564,28.564,0,0,0,28.564-28.564V267.3a28.564,28.564,0,0,0-28.564-28.564H627.113a61.686,61.686,0,0,1-61.686-61.686V61.688a28.564,28.564,0,0,0-28.564-28.564H267.3a28.564,28.564,0,0,0-28.562,28.564V177.049a61.687,61.687,0,0,1-61.688,61.686H61.688A28.564,28.564,0,0,0,33.124,267.3Z" transform="translate(0)" fill="#40c187" stroke="#40c187" stroke-width="1"></path>
      <path id="Caminho_777-6" data-name="Caminho 777" d="M182.568,353.461a69.2,69.2,0,0,1-19.1-2.63c-.326-.094-.651-.2-.972-.311-33.2-11.771-43.145-32.487-45.645-47.794-4.306-26.351,11.329-57.808,39.833-80.144,28.956-22.69,62.055-29.488,88.535-18.184.2.085.4.174.593.267,33.124,15.7,45.98,45.914,33.55,78.846-13.681,36.249-55.9,69.95-96.792,69.95m49.364-118.718c-17.855-7.416-40,2.3-54.822,13.913-18.548,14.533-29.885,34.573-27.572,48.729,1.523,9.324,9.434,16.635,23.516,21.734,26.93,7.268,65.13-20.315,75.317-47.3,6.358-16.846,1.135-28.634-16.44-37.072" transform="translate(363.598 69.236)" fill="#40c187" stroke="#40c187" stroke-width="1"></path>
      <path id="Caminho_778-6" data-name="Caminho 778" d="M129.693,373.453c16.116-43.215,70.007-62.241,108.291-52.275,31.943,8.31,48.594,34.314,43.456,67.868q-.069.447-.162.89c-5.953,28.413-28.467,50.968-60.224,60.33a102.975,102.975,0,0,1-29.021,4.279c-20.451,0-39.06-6.583-51.25-18.908-8.609-8.7-21.536-28.232-11.407-61.255.1-.31.2-.622.315-.929m34.64,38.891c9.067,9.167,28.545,11.694,47.356,6.149,19.688-5.807,33.513-18.839,37.078-34.922,2.379-16.448-3.88-26.372-19.121-30.338-23.919-6.218-58.991,6.123-68.749,31.35-3.7,12.38-2.541,21.718,3.436,27.76" transform="translate(352.415 110.822)" fill="#40c187" stroke="#40c187" stroke-width="1"></path>
      <path id="Caminho_779-6" data-name="Caminho 779" d="M364.526,129.71c.071-.035.142-.071.217-.105,43.134-20.2,71.826.385,83.3,24.144,18.321,37.956,5.256,99.172-39.053,121.212-.227.115-.46.221-.692.325-10.966,4.837-20.923,6.933-29.84,6.933-24.325,0-40.945-15.595-49.345-33.719-17.765-38.336-6.165-98.577,35.416-118.79m-5.363,104.862c6.826,14.728,18.082,18.088,35.4,10.566,26.326-13.394,35.024-53.41,23.642-76.988-2.626-5.441-10.593-21.992-39.305-8.6-23.512,11.532-30.631,51.518-19.741,75.023" transform="translate(-84.654 42.231)" fill="#40c187" stroke="#40c187" stroke-width="1"></path>
      <path id="Caminho_780-6" data-name="Caminho 780" d="M235.558,138.8c37.4-32.63,72.179-28.421,92.341-13.5,27.29,20.194,34.291,60.793,17.084,98.821-14.8,36.142-50.965,62.1-84.935,62.1a64.262,64.262,0,0,1-7.461-.429c-27.647-3.225-47.086-24.206-52-56.126-.058-.361-.1-.724-.132-1.086-2.734-31.45,8.2-60.791,32.486-87.229l2.616-2.551m-2.231,85.241a20.692,20.692,0,0,0,.274,2.255c2.9,16.223,10.57,25.169,22.825,26.6,18.956,2.223,46.811-13.952,58-41.548q.133-.33.282-.654c12.079-26.48,5.871-49.607-6.509-58.768a24.93,24.93,0,0,0-15.146-4.829c-10.4,0-22.508,5.408-34.761,15.844a19.249,19.249,0,0,0-1.787,1.739c-16.948,18.794-24.542,38.25-23.172,59.364" transform="translate(180.191 39.67)" fill="#40c187" stroke="#40c187" stroke-width="1"></path>
    </g>
    <g id="paw" transform="translate(236.797 924.162) rotate(45)">
      <path id="Caminho_846" data-name="Caminho 846" d="M46.418,15.849a8.216,8.216,0,0,0-4.476-4.615l-.026-.01a7.8,7.8,0,0,0-2.853-.537h-.107c-4.572.069-9.241,3.956-11.614,9.671-1.74,4.18-1.941,8.676-.535,12.025A8.2,8.2,0,0,0,31.291,37l.021.01a7.811,7.811,0,0,0,2.853.537c4.617,0,9.332-3.887,11.75-9.678,1.719-4.175,1.907-8.666.5-12.018Z" transform="translate(34.336 10.148)" fill="#eaf8f2"></path>
      <path id="Caminho_847" data-name="Caminho 847" d="M56.166,33.478c-2.638-1.585-5.13-3.084-6.759-5.775C44.915,20.248,42.2,15.75,35.091,15.75S25.26,20.248,20.757,27.7c-1.631,2.7-4.13,4.2-6.775,5.787-3.034,1.824-6.167,3.705-7.52,7.413a11.235,11.235,0,0,0-.781,4.2A10.73,10.73,0,0,0,16.157,56.041c2.979,0,6.15-1.031,9.506-2.125,3.225-1.05,6.563-2.137,9.444-2.137s6.212,1.086,9.425,2.137c3.349,1.089,6.506,2.12,9.492,2.12A10.722,10.722,0,0,0,64.481,45.093a11.247,11.247,0,0,0-.8-4.2c-1.354-3.71-4.488-5.6-7.52-7.417Z" transform="translate(6.317 17.171)" fill="#eaf8f2"></path>
      <path id="Caminho_848" data-name="Caminho 848" d="M12.695,27.019a9.271,9.271,0,0,0,7.138,3.887,7.2,7.2,0,0,0,1.063-.079c5.433-.8,8.819-7.429,7.708-15.107a17.8,17.8,0,0,0-3.488-8.466A9.269,9.269,0,0,0,17.98,3.375a7.2,7.2,0,0,0-1.063.079c-5.433.8-8.819,7.429-7.708,15.107a17.742,17.742,0,0,0,3.486,8.456Z" transform="translate(10.92 0.003)" fill="#eaf8f2"></path>
      <path id="Caminho_849" data-name="Caminho 849" d="M26.621,30.827a7.2,7.2,0,0,0,1.062.079,9.271,9.271,0,0,0,7.138-3.887A17.832,17.832,0,0,0,38.3,18.559c1.11-7.675-2.275-14.3-7.709-15.107a7.2,7.2,0,0,0-1.062-.079A9.289,9.289,0,0,0,22.4,7.257a17.77,17.77,0,0,0-3.486,8.468c-1.11,7.675,2.275,14.3,7.709,15.1Z" transform="translate(24.382 0)" fill="#eaf8f2"></path>
      <path id="Caminho_850" data-name="Caminho 850" d="M17.167,37.008l.024-.01a8.189,8.189,0,0,0,4.481-4.612c1.406-3.357,1.208-7.847-.528-12.027-2.406-5.785-7.121-9.671-11.734-9.671a7.788,7.788,0,0,0-2.853.537l-.024.01a8.175,8.175,0,0,0-4.476,4.612C.651,19.2.849,23.694,2.585,27.874c2.406,5.782,7.121,9.671,11.734,9.671a7.787,7.787,0,0,0,2.848-.537Z" transform="translate(0 10.148)" fill="#eaf8f2"></path>
    </g>
    <g id="paw-2" data-name="paw" transform="translate(1632.532 1430.622) rotate(135)">
      <path id="Caminho_846-2" data-name="Caminho 846" d="M46.418,15.849a8.216,8.216,0,0,0-4.476-4.615l-.026-.01a7.8,7.8,0,0,0-2.853-.537h-.107c-4.572.069-9.241,3.956-11.614,9.671-1.74,4.18-1.941,8.676-.535,12.025A8.2,8.2,0,0,0,31.291,37l.021.01a7.811,7.811,0,0,0,2.853.537c4.617,0,9.332-3.887,11.75-9.678,1.719-4.175,1.907-8.666.5-12.018Z" transform="translate(34.336 10.148)" fill="#eaf8f2"></path>
      <path id="Caminho_847-2" data-name="Caminho 847" d="M56.166,33.478c-2.638-1.585-5.13-3.084-6.759-5.775C44.915,20.248,42.2,15.75,35.091,15.75S25.26,20.248,20.757,27.7c-1.631,2.7-4.13,4.2-6.775,5.787-3.034,1.824-6.167,3.705-7.52,7.413a11.235,11.235,0,0,0-.781,4.2A10.73,10.73,0,0,0,16.157,56.041c2.979,0,6.15-1.031,9.506-2.125,3.225-1.05,6.563-2.137,9.444-2.137s6.212,1.086,9.425,2.137c3.349,1.089,6.506,2.12,9.492,2.12A10.722,10.722,0,0,0,64.481,45.093a11.247,11.247,0,0,0-.8-4.2c-1.354-3.71-4.488-5.6-7.52-7.417Z" transform="translate(6.317 17.171)" fill="#eaf8f2"></path>
      <path id="Caminho_848-2" data-name="Caminho 848" d="M12.695,27.019a9.271,9.271,0,0,0,7.138,3.887,7.2,7.2,0,0,0,1.063-.079c5.433-.8,8.819-7.429,7.708-15.107a17.8,17.8,0,0,0-3.488-8.466A9.269,9.269,0,0,0,17.98,3.375a7.2,7.2,0,0,0-1.063.079c-5.433.8-8.819,7.429-7.708,15.107a17.742,17.742,0,0,0,3.486,8.456Z" transform="translate(10.92 0.003)" fill="#eaf8f2"></path>
      <path id="Caminho_849-2" data-name="Caminho 849" d="M26.621,30.827a7.2,7.2,0,0,0,1.062.079,9.271,9.271,0,0,0,7.138-3.887A17.832,17.832,0,0,0,38.3,18.559c1.11-7.675-2.275-14.3-7.709-15.107a7.2,7.2,0,0,0-1.062-.079A9.289,9.289,0,0,0,22.4,7.257a17.77,17.77,0,0,0-3.486,8.468c-1.11,7.675,2.275,14.3,7.709,15.1Z" transform="translate(24.382 0)" fill="#eaf8f2"></path>
      <path id="Caminho_850-2" data-name="Caminho 850" d="M17.167,37.008l.024-.01a8.189,8.189,0,0,0,4.481-4.612c1.406-3.357,1.208-7.847-.528-12.027-2.406-5.785-7.121-9.671-11.734-9.671a7.788,7.788,0,0,0-2.853.537l-.024.01a8.175,8.175,0,0,0-4.476,4.612C.651,19.2.849,23.694,2.585,27.874c2.406,5.782,7.121,9.671,11.734,9.671a7.787,7.787,0,0,0,2.848-.537Z" transform="translate(0 10.148)" fill="#eaf8f2"></path>
    </g>
    <g id="paw-3" data-name="paw" transform="translate(703.867 1452.204) rotate(30)">
      <path id="Caminho_846-3" data-name="Caminho 846" d="M41.018,14.492a6.056,6.056,0,0,0-3.3-3.4l-.019-.007a5.749,5.749,0,0,0-2.1-.4h-.079c-3.37.051-6.812,2.916-8.561,7.129a11.85,11.85,0,0,0-.394,8.864,6.043,6.043,0,0,0,3.306,3.4l.016.007a5.758,5.758,0,0,0,2.1.4c3.4,0,6.879-2.865,8.661-7.134a11.9,11.9,0,0,0,.37-8.858Z" transform="translate(18.803 5.557)" fill="#eaf8f2"></path>
      <path id="Caminho_847-3" data-name="Caminho 847" d="M42.894,28.818c-1.944-1.168-3.782-2.274-4.982-4.257C34.6,19.065,32.6,15.75,27.359,15.75s-7.246,3.315-10.565,8.809c-1.2,1.987-3.044,3.094-4.994,4.266-2.237,1.344-4.545,2.731-5.543,5.464a8.281,8.281,0,0,0-.575,3.094A7.909,7.909,0,0,0,13.4,45.449a23.758,23.758,0,0,0,7.007-1.566,24.368,24.368,0,0,1,6.961-1.575,24.216,24.216,0,0,1,6.947,1.575,23.722,23.722,0,0,0,7,1.563,7.9,7.9,0,0,0,7.708-8.067,8.29,8.29,0,0,0-.588-3.094c-1-2.735-3.308-4.125-5.543-5.467Z" transform="translate(3.459 9.403)" fill="#eaf8f2"></path>
      <path id="Caminho_848-3" data-name="Caminho 848" d="M11.723,20.8a6.834,6.834,0,0,0,5.262,2.865,5.307,5.307,0,0,0,.783-.058c4-.589,6.5-5.476,5.682-11.135a13.118,13.118,0,0,0-2.571-6.24,6.832,6.832,0,0,0-5.26-2.86,5.306,5.306,0,0,0-.783.058c-4,.589-6.5,5.476-5.682,11.135A13.077,13.077,0,0,0,11.723,20.8Z" transform="translate(5.98 0.002)" fill="#eaf8f2"></path>
      <path id="Caminho_849-3" data-name="Caminho 849" d="M24.539,23.61a5.306,5.306,0,0,0,.783.058A6.834,6.834,0,0,0,30.584,20.8a13.144,13.144,0,0,0,2.567-6.236c.818-5.657-1.677-10.544-5.682-11.135a5.306,5.306,0,0,0-.783-.058,6.847,6.847,0,0,0-5.26,2.863,13.1,13.1,0,0,0-2.569,6.242c-.818,5.657,1.677,10.544,5.682,11.134Z" transform="translate(13.351 0)" fill="#eaf8f2"></path>
      <path id="Caminho_850-3" data-name="Caminho 850" d="M12.95,30.089l.018-.007a6.036,6.036,0,0,0,3.3-3.4,11.868,11.868,0,0,0-.389-8.865c-1.774-4.264-5.249-7.129-8.649-7.129a5.74,5.74,0,0,0-2.1.4l-.018.007a6.026,6.026,0,0,0-3.3,3.4A11.868,11.868,0,0,0,2.2,23.356c1.774,4.262,5.249,7.129,8.649,7.129a5.74,5.74,0,0,0,2.1-.4Z" transform="translate(0 5.557)" fill="#eaf8f2"></path>
    </g>
    <g id="paw-4" data-name="paw" transform="translate(1237.583 932.654) rotate(150)">
      <path id="Caminho_846-4" data-name="Caminho 846" d="M15.141,15.994a6.056,6.056,0,0,1-3.3,3.4l-.019.007a5.749,5.749,0,0,1-2.1.4H9.64c-3.37-.051-6.812-2.916-8.561-7.129A11.85,11.85,0,0,1,.685,3.806,6.043,6.043,0,0,1,3.991.4L4.007.4A5.758,5.758,0,0,1,6.11,0c3.4,0,6.879,2.865,8.661,7.134a11.9,11.9,0,0,1,.37,8.858Z" transform="translate(43.552 18.808)" fill="#eaf8f2"></path>
      <path id="Caminho_847-4" data-name="Caminho 847" d="M37.213,16.631c-1.944,1.168-3.782,2.274-4.982,4.257-3.312,5.5-5.311,8.811-10.553,8.811s-7.246-3.315-10.565-8.809C9.911,18.9,8.069,17.8,6.119,16.624,3.882,15.28,1.573,13.893.576,11.16A8.281,8.281,0,0,1,0,8.067,7.909,7.909,0,0,1,7.722,0a23.758,23.758,0,0,1,7.007,1.566,24.368,24.368,0,0,0,6.961,1.575,24.216,24.216,0,0,0,6.947-1.575,23.722,23.722,0,0,1,7-1.563A7.9,7.9,0,0,1,43.342,8.07a8.29,8.29,0,0,1-.588,3.094c-1,2.735-3.308,4.125-5.543,5.467Z" transform="translate(8.013 0)" fill="#eaf8f2"></path>
      <path id="Caminho_848-4" data-name="Caminho 848" d="M2.724,2.865A6.834,6.834,0,0,1,7.986,0a5.307,5.307,0,0,1,.783.058c4,.589,6.5,5.476,5.682,11.135a13.118,13.118,0,0,1-2.571,6.24,6.832,6.832,0,0,1-5.26,2.86,5.306,5.306,0,0,1-.783-.058c-4-.589-6.5-5.476-5.682-11.135A13.078,13.078,0,0,1,2.724,2.867Z" transform="translate(13.851 31.182)" fill="#eaf8f2"></path>
      <path id="Caminho_849-4" data-name="Caminho 849" d="M5.837.058A5.306,5.306,0,0,1,6.62,0a6.834,6.834,0,0,1,5.262,2.865A13.144,13.144,0,0,1,14.449,9.1c.818,5.657-1.677,10.544-5.682,11.136a5.305,5.305,0,0,1-.783.058,6.847,6.847,0,0,1-5.26-2.863A13.1,13.1,0,0,1,.155,11.19C-.663,5.533,1.832.646,5.837.056Z" transform="translate(30.926 31.184)" fill="#eaf8f2"></path>
      <path id="Caminho_850-4" data-name="Caminho 850" d="M11.823.4,11.84.4a6.036,6.036,0,0,1,3.3,3.4,11.869,11.869,0,0,1-.389,8.865C12.981,16.932,9.505,19.8,6.105,19.8A5.74,5.74,0,0,1,4,19.4l-.018-.007a6.026,6.026,0,0,1-3.3-3.4,11.869,11.869,0,0,1,.389-8.865C2.848,2.867,6.324,0,9.724,0a5.74,5.74,0,0,1,2.1.4Z" transform="translate(0 18.81)" fill="#eaf8f2"></path>
    </g>
  </g>
</svg>
