<svg xmlns="http://www.w3.org/2000/svg" width="376" height="4645"><defs><clipPath id="clip-path"><path id="Retângulo_233" data-name="Retângulo 233" fill="#fff" d="M0 0h376v4645H0z"/></clipPath><clipPath id="clip-path-2"><path id="Retângulo_235" data-name="Retângulo 235" transform="translate(0 1742)" fill="#fff" d="M0 0h376v972H0z"/></clipPath></defs><g id="fundo_mobile" data-name="fundo mobile" clip-path="url('#clip-path')"><path id="União_5" data-name="União 5" d="M-780.151 1285.414h-1094.134V453.382s-175.5-74.321-148.922-120.062-176.2-63.1 133.945-93.073 332.615 34.705 536.679 66.256 373.069-25.24 476.182-113.731S-780.151 0-780.151 0Z" transform="translate(1447.296 3491.5)" fill="#eefffd" opacity=".57"/><g id="Grupo_232" data-name="Grupo 232"><g id="União_3" data-name="União 3" fill="none"><path d="M493.648 544.641c-10.783-16.735-85.518-124.07-223.079-114.9q-10.4.694-18.874.5a207.3 207.3 0 0 1-38.569 3.332C96.218 432.779.8 335.076.005 215.349S93.334-.791 210.241 0c101.786.7 187.285 74.862 208.223 173.053 10.049 21.427 54.454 98.592 177.159 111.138a204.914 204.914 0 0 1 97.015-23.481c116.907.8 212.324 98.5 213.12 218.226s-93.329 216.14-210.235 215.344c-93.531-.637-173.304-63.293-201.875-149.639Z" transform="rotate(-74.99 292.288 218.964)"/><path d="M696.96 686.285c53.155 0 103.178-20.888 140.854-58.815 39.031-39.292 60.32-92.023 59.945-148.48-.767-115.184-92.808-209.515-205.176-210.28l-1.38-.005c-32.437 0-63.343 7.593-91.86 22.569l-2.135 1.12-2.399-.244c-126.043-12.887-172.387-91.816-183.588-115.7l-.39-.83-.191-.898C390.18 78.77 305.877 8.656 210.187 8.005L208.804 8C155.648 8 105.625 28.888 67.949 66.815c-39.031 39.292-60.32 92.023-59.944 148.48.766 115.184 92.807 209.515 205.175 210.28l1.382.005c12 0 24.01-1.08 35.7-3.208l.795-.144 4.374.054c4.486 0 9.353-.17 14.605-.52a256.247 256.247 0 0 1 17.076-.573c129.925 0 200.444 99.227 213.26 119.119l.552.854.32.966c28.331 85.623 106.428 143.554 194.333 144.152l1.383.005m0 8c-.485 0-.952-.002-1.437-.005-93.531-.637-173.304-63.293-201.875-149.64-10.783-16.734-85.519-124.069-223.08-114.896-6.936.463-13.224.62-18.874.5a207.272 207.272 0 0 1-38.569 3.33C96.218 432.78.801 335.077.005 215.35-.791 95.62 93.334-.791 210.241.005c101.786.693 187.285 74.857 208.223 173.048 10.049 21.427 54.454 98.592 177.16 111.138 28.996-15.227 61.982-23.719 97.014-23.481 116.907.796 212.324 98.5 213.12 218.226.793 119.23-92.566 215.349-208.798 215.349Z" fill="#fff" transform="rotate(-74.99 292.288 218.964)"/></g><g id="paw" transform="rotate(135 -626.327 1734.583)" fill="#f8f8f8"><path id="Caminho_846" data-name="Caminho 846" d="M13.034 3.275A5.213 5.213 0 0 0 10.193.347l-.016-.006A4.949 4.949 0 0 0 8.366 0H8.3C5.4.044 2.434 2.51.929 6.137a10.2 10.2 0 0 0-.339 7.63A5.2 5.2 0 0 0 3.436 16.7l.014.006a4.957 4.957 0 0 0 1.81.341c2.93 0 5.922-2.466 7.456-6.141a10.245 10.245 0 0 0 .318-7.626Z" transform="translate(37.492 11.081)"/><path id="Caminho_847" data-name="Caminho 847" d="M32.035 11.249a11.349 11.349 0 0 1-4.289-3.664C24.9 2.854 23.174 0 18.662 0s-6.238 2.854-9.1 7.583a11.377 11.377 0 0 1-4.3 3.672C3.342 12.413 1.354 13.606.5 15.959a7.129 7.129 0 0 0-.5 2.663 6.808 6.808 0 0 0 6.647 6.944 20.452 20.452 0 0 0 6.032-1.348 20.977 20.977 0 0 1 5.993-1.356 20.846 20.846 0 0 1 5.981 1.356 20.421 20.421 0 0 0 6.023 1.345 6.8 6.8 0 0 0 6.635-6.944 7.136 7.136 0 0 0-.506-2.663c-.859-2.354-2.848-3.551-4.772-4.707Z" transform="translate(6.898 18.749)"/><path id="Caminho_848" data-name="Caminho 848" d="M2.345 15a5.883 5.883 0 0 0 4.529 2.466 4.568 4.568 0 0 0 .674-.05c3.448-.507 5.6-4.714 4.891-9.586a11.293 11.293 0 0 0-2.213-5.372A5.881 5.881 0 0 0 5.7 0a4.568 4.568 0 0 0-.674.05C1.577.557-.571 4.764.134 9.636A11.258 11.258 0 0 0 2.345 15Z" transform="translate(11.924 .003)"/><path id="Caminho_849" data-name="Caminho 849" d="M5.025 17.421a4.568 4.568 0 0 0 .674.05A5.883 5.883 0 0 0 10.228 15a11.315 11.315 0 0 0 2.21-5.369c.7-4.87-1.444-9.077-4.891-9.586A4.567 4.567 0 0 0 6.873 0a5.894 5.894 0 0 0-4.528 2.465A11.275 11.275 0 0 0 .134 7.838c-.7 4.87 1.444 9.077 4.891 9.584Z" transform="translate(26.623)"/><path id="Caminho_850" data-name="Caminho 850" d="m10.178 16.7.015-.006a5.2 5.2 0 0 0 2.843-2.927 10.217 10.217 0 0 0-.336-7.63C11.174 2.466 8.183 0 5.256 0a4.941 4.941 0 0 0-1.81.341L3.43.347A5.187 5.187 0 0 0 .59 3.274a10.217 10.217 0 0 0 .335 7.632c1.527 3.669 4.519 6.137 7.445 6.137a4.941 4.941 0 0 0 1.807-.341Z" transform="translate(0 11.081)"/></g><g id="paw-2" data-name="paw" transform="rotate(-45 3595.036 1188.281)" opacity=".04" fill="#707070"><path id="Caminho_846-2" data-name="Caminho 846" d="M28.446 7.148a11.377 11.377 0 0 0-6.2-6.391l-.035-.013A10.8 10.8 0 0 0 18.26 0h-.149C11.78.1 5.313 5.478 2.027 13.393c-2.41 5.789-2.688 12.015-.741 16.653A11.354 11.354 0 0 0 7.5 36.44l.03.013a10.818 10.818 0 0 0 3.951.744c6.394 0 12.924-5.382 16.273-13.4 2.38-5.782 2.642-12 .694-16.643Z" transform="translate(81.826 24.184)"/><path id="Caminho_847-2" data-name="Caminho 847" d="M69.915 24.551c-3.653-2.2-7.1-4.272-9.36-8C54.333 6.229 50.578 0 40.729 0s-13.615 6.229-19.85 16.551c-2.258 3.733-5.72 5.812-9.383 8.014C7.294 27.09 2.956 29.7 1.082 34.83A15.559 15.559 0 0 0 0 40.642C0 49 6.51 55.8 14.508 55.8c4.126 0 8.517-1.428 13.165-2.942C32.139 51.4 36.761 49.9 40.752 49.9s8.6 1.5 13.053 2.959c4.639 1.508 9.009 2.936 13.145 2.936 7.984 0 14.481-6.8 14.481-15.155a15.575 15.575 0 0 0-1.1-5.812c-1.875-5.138-6.216-7.75-10.414-10.272Z" transform="translate(15.054 40.92)"/><path id="Caminho_848-2" data-name="Caminho 848" d="M5.118 32.744c2.767 3.471 6.275 5.382 9.885 5.382a9.97 9.97 0 0 0 1.472-.109C24 36.91 28.688 27.729 27.151 17.1A24.646 24.646 0 0 0 22.32 5.372C19.56 1.908 16.045 0 12.438 0a9.97 9.97 0 0 0-1.472.109C3.442 1.217-1.246 10.4.291 21.03a24.57 24.57 0 0 0 4.827 11.71Z" transform="translate(26.024 .007)"/><path id="Caminho_849-2" data-name="Caminho 849" d="M10.967 38.021a9.968 9.968 0 0 0 1.471.109c3.61 0 7.118-1.911 9.885-5.382a24.7 24.7 0 0 0 4.824-11.718C28.685 10.4 24 1.22 16.472.109A9.968 9.968 0 0 0 15 0c-3.607.007-7.121 1.914-9.882 5.379A24.609 24.609 0 0 0 .291 17.106c-1.537 10.629 3.151 19.81 10.676 20.918Z" transform="translate(58.103)"/><path id="Caminho_850-2" data-name="Caminho 850" d="m22.213 36.45.033-.013a11.341 11.341 0 0 0 6.206-6.387c1.947-4.648 1.673-10.867-.731-16.656C24.388 5.382 17.858 0 11.471 0A10.785 10.785 0 0 0 7.52.744l-.033.013a11.321 11.321 0 0 0-6.2 6.387C-.659 11.793-.385 18.012 2.019 23.8c3.333 8.007 9.862 13.393 16.25 13.393a10.784 10.784 0 0 0 3.944-.744Z" transform="translate(0 24.184)"/></g><g id="paw-3" data-name="paw" transform="rotate(135 -217.982 748.752)" fill="#f8f8f8"><path id="Caminho_846-3" data-name="Caminho 846" d="M13.034 3.275A5.213 5.213 0 0 0 10.193.347l-.016-.006A4.949 4.949 0 0 0 8.366 0H8.3C5.4.044 2.434 2.51.929 6.137a10.2 10.2 0 0 0-.339 7.63A5.2 5.2 0 0 0 3.436 16.7l.014.006a4.957 4.957 0 0 0 1.81.341c2.93 0 5.922-2.466 7.456-6.141a10.245 10.245 0 0 0 .318-7.626Z" transform="translate(37.492 11.081)"/><path id="Caminho_847-3" data-name="Caminho 847" d="M32.035 11.249a11.349 11.349 0 0 1-4.289-3.664C24.9 2.854 23.174 0 18.662 0s-6.238 2.854-9.1 7.583a11.377 11.377 0 0 1-4.3 3.672C3.342 12.413 1.354 13.606.5 15.959a7.129 7.129 0 0 0-.5 2.663 6.808 6.808 0 0 0 6.647 6.944 20.452 20.452 0 0 0 6.032-1.348 20.977 20.977 0 0 1 5.993-1.356 20.846 20.846 0 0 1 5.981 1.356 20.421 20.421 0 0 0 6.023 1.345 6.8 6.8 0 0 0 6.635-6.944 7.136 7.136 0 0 0-.506-2.663c-.859-2.354-2.848-3.551-4.772-4.707Z" transform="translate(6.898 18.749)"/><path id="Caminho_848-3" data-name="Caminho 848" d="M2.345 15a5.883 5.883 0 0 0 4.529 2.466 4.568 4.568 0 0 0 .674-.05c3.448-.507 5.6-4.714 4.891-9.586a11.293 11.293 0 0 0-2.213-5.372A5.881 5.881 0 0 0 5.7 0a4.568 4.568 0 0 0-.674.05C1.577.557-.571 4.764.134 9.636A11.258 11.258 0 0 0 2.345 15Z" transform="translate(11.924 .003)"/><path id="Caminho_849-3" data-name="Caminho 849" d="M5.025 17.421a4.568 4.568 0 0 0 .674.05A5.883 5.883 0 0 0 10.228 15a11.315 11.315 0 0 0 2.21-5.369c.7-4.87-1.444-9.077-4.891-9.586A4.567 4.567 0 0 0 6.873 0a5.894 5.894 0 0 0-4.528 2.465A11.275 11.275 0 0 0 .134 7.838c-.7 4.87 1.444 9.077 4.891 9.584Z" transform="translate(26.623)"/><path id="Caminho_850-3" data-name="Caminho 850" d="m10.178 16.7.015-.006a5.2 5.2 0 0 0 2.843-2.927 10.217 10.217 0 0 0-.336-7.63C11.174 2.466 8.183 0 5.256 0a4.941 4.941 0 0 0-1.81.341L3.43.347A5.187 5.187 0 0 0 .59 3.274a10.217 10.217 0 0 0 .335 7.632c1.527 3.669 4.519 6.137 7.445 6.137a4.941 4.941 0 0 0 1.807-.341Z" transform="translate(0 11.081)"/></g><g id="paw-4" data-name="paw" transform="rotate(45 -1098.613 758.334)" opacity=".04" fill="#707070"><path id="Caminho_846-4" data-name="Caminho 846" d="M13.034 3.275A5.213 5.213 0 0 0 10.193.347l-.016-.006A4.949 4.949 0 0 0 8.366 0H8.3C5.4.044 2.434 2.51.929 6.137a10.2 10.2 0 0 0-.339 7.63A5.2 5.2 0 0 0 3.436 16.7l.014.006a4.957 4.957 0 0 0 1.81.341c2.93 0 5.922-2.466 7.456-6.141a10.245 10.245 0 0 0 .318-7.626Z" transform="translate(37.492 11.081)"/><path id="Caminho_847-4" data-name="Caminho 847" d="M32.035 11.249a11.349 11.349 0 0 1-4.289-3.664C24.9 2.854 23.174 0 18.662 0s-6.238 2.854-9.1 7.583a11.377 11.377 0 0 1-4.3 3.672C3.342 12.413 1.354 13.606.5 15.959a7.129 7.129 0 0 0-.5 2.663 6.808 6.808 0 0 0 6.647 6.944 20.452 20.452 0 0 0 6.032-1.348 20.977 20.977 0 0 1 5.993-1.356 20.846 20.846 0 0 1 5.981 1.356 20.421 20.421 0 0 0 6.023 1.345 6.8 6.8 0 0 0 6.635-6.944 7.136 7.136 0 0 0-.506-2.663c-.859-2.354-2.848-3.551-4.772-4.707Z" transform="translate(6.898 18.749)"/><path id="Caminho_848-4" data-name="Caminho 848" d="M2.345 15a5.883 5.883 0 0 0 4.529 2.466 4.568 4.568 0 0 0 .674-.05c3.448-.507 5.6-4.714 4.891-9.586a11.293 11.293 0 0 0-2.213-5.372A5.881 5.881 0 0 0 5.7 0a4.568 4.568 0 0 0-.674.05C1.577.557-.571 4.764.134 9.636A11.258 11.258 0 0 0 2.345 15Z" transform="translate(11.924 .003)"/><path id="Caminho_849-4" data-name="Caminho 849" d="M5.025 17.421a4.568 4.568 0 0 0 .674.05A5.883 5.883 0 0 0 10.228 15a11.315 11.315 0 0 0 2.21-5.369c.7-4.87-1.444-9.077-4.891-9.586A4.567 4.567 0 0 0 6.873 0a5.894 5.894 0 0 0-4.528 2.465A11.275 11.275 0 0 0 .134 7.838c-.7 4.87 1.444 9.077 4.891 9.584Z" transform="translate(26.623)"/><path id="Caminho_850-4" data-name="Caminho 850" d="m10.178 16.7.015-.006a5.2 5.2 0 0 0 2.843-2.927 10.217 10.217 0 0 0-.336-7.63C11.174 2.466 8.183 0 5.256 0a4.941 4.941 0 0 0-1.81.341L3.43.347A5.187 5.187 0 0 0 .59 3.274a10.217 10.217 0 0 0 .335 7.632c1.527 3.669 4.519 6.137 7.445 6.137a4.941 4.941 0 0 0 1.807-.341Z" transform="translate(0 11.081)"/></g><g id="paw-5" data-name="paw" transform="rotate(45 -651.817 555.064)" opacity=".11" fill="#17c3b2"><path id="Caminho_846-5" data-name="Caminho 846" d="M13.034 3.275A5.213 5.213 0 0 0 10.193.347l-.016-.006A4.949 4.949 0 0 0 8.366 0H8.3C5.4.044 2.434 2.51.929 6.137a10.2 10.2 0 0 0-.339 7.63A5.2 5.2 0 0 0 3.436 16.7l.014.006a4.957 4.957 0 0 0 1.81.341c2.93 0 5.922-2.466 7.456-6.141a10.245 10.245 0 0 0 .318-7.626Z" transform="translate(37.492 11.081)"/><path id="Caminho_847-5" data-name="Caminho 847" d="M32.035 11.249a11.349 11.349 0 0 1-4.289-3.664C24.9 2.854 23.174 0 18.662 0s-6.238 2.854-9.1 7.583a11.377 11.377 0 0 1-4.3 3.672C3.342 12.413 1.354 13.606.5 15.959a7.129 7.129 0 0 0-.5 2.663 6.808 6.808 0 0 0 6.647 6.944 20.452 20.452 0 0 0 6.032-1.348 20.977 20.977 0 0 1 5.993-1.356 20.846 20.846 0 0 1 5.981 1.356 20.421 20.421 0 0 0 6.023 1.345 6.8 6.8 0 0 0 6.635-6.944 7.136 7.136 0 0 0-.506-2.663c-.859-2.354-2.848-3.551-4.772-4.707Z" transform="translate(6.898 18.749)"/><path id="Caminho_848-5" data-name="Caminho 848" d="M2.345 15a5.883 5.883 0 0 0 4.529 2.466 4.568 4.568 0 0 0 .674-.05c3.448-.507 5.6-4.714 4.891-9.586a11.293 11.293 0 0 0-2.213-5.372A5.881 5.881 0 0 0 5.7 0a4.568 4.568 0 0 0-.674.05C1.577.557-.571 4.764.134 9.636A11.258 11.258 0 0 0 2.345 15Z" transform="translate(11.924 .003)"/><path id="Caminho_849-5" data-name="Caminho 849" d="M5.025 17.421a4.568 4.568 0 0 0 .674.05A5.883 5.883 0 0 0 10.228 15a11.315 11.315 0 0 0 2.21-5.369c.7-4.87-1.444-9.077-4.891-9.586A4.567 4.567 0 0 0 6.873 0a5.894 5.894 0 0 0-4.528 2.465A11.275 11.275 0 0 0 .134 7.838c-.7 4.87 1.444 9.077 4.891 9.584Z" transform="translate(26.623)"/><path id="Caminho_850-5" data-name="Caminho 850" d="m10.178 16.7.015-.006a5.2 5.2 0 0 0 2.843-2.927 10.217 10.217 0 0 0-.336-7.63C11.174 2.466 8.183 0 5.256 0a4.941 4.941 0 0 0-1.81.341L3.43.347A5.187 5.187 0 0 0 .59 3.274a10.217 10.217 0 0 0 .335 7.632c1.527 3.669 4.519 6.137 7.445 6.137a4.941 4.941 0 0 0 1.807-.341Z" transform="translate(0 11.081)"/></g><g id="paw-6" data-name="paw" transform="rotate(135 -158.989 514.988)" opacity=".04" fill="#707070"><path id="Caminho_846-6" data-name="Caminho 846" d="M13.034 3.275A5.213 5.213 0 0 0 10.193.347l-.016-.006A4.949 4.949 0 0 0 8.366 0H8.3C5.4.044 2.434 2.51.929 6.137a10.2 10.2 0 0 0-.339 7.63A5.2 5.2 0 0 0 3.436 16.7l.014.006a4.957 4.957 0 0 0 1.81.341c2.93 0 5.922-2.466 7.456-6.141a10.245 10.245 0 0 0 .318-7.626Z" transform="translate(37.492 11.081)"/><path id="Caminho_847-6" data-name="Caminho 847" d="M32.035 11.249a11.349 11.349 0 0 1-4.289-3.664C24.9 2.854 23.174 0 18.662 0s-6.238 2.854-9.1 7.583a11.377 11.377 0 0 1-4.3 3.672C3.342 12.413 1.354 13.606.5 15.959a7.129 7.129 0 0 0-.5 2.663 6.808 6.808 0 0 0 6.647 6.944 20.452 20.452 0 0 0 6.032-1.348 20.977 20.977 0 0 1 5.993-1.356 20.846 20.846 0 0 1 5.981 1.356 20.421 20.421 0 0 0 6.023 1.345 6.8 6.8 0 0 0 6.635-6.944 7.136 7.136 0 0 0-.506-2.663c-.859-2.354-2.848-3.551-4.772-4.707Z" transform="translate(6.898 18.749)"/><path id="Caminho_848-6" data-name="Caminho 848" d="M2.345 15a5.883 5.883 0 0 0 4.529 2.466 4.568 4.568 0 0 0 .674-.05c3.448-.507 5.6-4.714 4.891-9.586a11.293 11.293 0 0 0-2.213-5.372A5.881 5.881 0 0 0 5.7 0a4.568 4.568 0 0 0-.674.05C1.577.557-.571 4.764.134 9.636A11.258 11.258 0 0 0 2.345 15Z" transform="translate(11.924 .003)"/><path id="Caminho_849-6" data-name="Caminho 849" d="M5.025 17.421a4.568 4.568 0 0 0 .674.05A5.883 5.883 0 0 0 10.228 15a11.315 11.315 0 0 0 2.21-5.369c.7-4.87-1.444-9.077-4.891-9.586A4.567 4.567 0 0 0 6.873 0a5.894 5.894 0 0 0-4.528 2.465A11.275 11.275 0 0 0 .134 7.838c-.7 4.87 1.444 9.077 4.891 9.584Z" transform="translate(26.623)"/><path id="Caminho_850-6" data-name="Caminho 850" d="m10.178 16.7.015-.006a5.2 5.2 0 0 0 2.843-2.927 10.217 10.217 0 0 0-.336-7.63C11.174 2.466 8.183 0 5.256 0a4.941 4.941 0 0 0-1.81.341L3.43.347A5.187 5.187 0 0 0 .59 3.274a10.217 10.217 0 0 0 .335 7.632c1.527 3.669 4.519 6.137 7.445 6.137a4.941 4.941 0 0 0 1.807-.341Z" transform="translate(0 11.081)"/></g><g id="paw-7" data-name="paw" transform="rotate(-74.99 1433.493 769.415)" opacity=".04" fill="#707070"><path id="Caminho_846-7" data-name="Caminho 846" d="M13.034 3.275A5.213 5.213 0 0 0 10.193.347l-.016-.006A4.949 4.949 0 0 0 8.366 0H8.3C5.4.044 2.434 2.51.929 6.137a10.2 10.2 0 0 0-.339 7.63A5.2 5.2 0 0 0 3.436 16.7l.014.006a4.957 4.957 0 0 0 1.81.341c2.93 0 5.922-2.466 7.456-6.141a10.245 10.245 0 0 0 .318-7.626Z" transform="translate(37.492 11.081)"/><path id="Caminho_847-7" data-name="Caminho 847" d="M32.035 11.249a11.349 11.349 0 0 1-4.289-3.664C24.9 2.854 23.174 0 18.662 0s-6.238 2.854-9.1 7.583a11.377 11.377 0 0 1-4.3 3.672C3.342 12.413 1.354 13.606.5 15.959a7.129 7.129 0 0 0-.5 2.663 6.808 6.808 0 0 0 6.647 6.944 20.452 20.452 0 0 0 6.032-1.348 20.977 20.977 0 0 1 5.993-1.356 20.846 20.846 0 0 1 5.981 1.356 20.421 20.421 0 0 0 6.023 1.345 6.8 6.8 0 0 0 6.635-6.944 7.136 7.136 0 0 0-.506-2.663c-.859-2.354-2.848-3.551-4.772-4.707Z" transform="translate(6.898 18.749)"/><path id="Caminho_848-7" data-name="Caminho 848" d="M2.345 15a5.883 5.883 0 0 0 4.529 2.466 4.568 4.568 0 0 0 .674-.05c3.448-.507 5.6-4.714 4.891-9.586a11.293 11.293 0 0 0-2.213-5.372A5.881 5.881 0 0 0 5.7 0a4.568 4.568 0 0 0-.674.05C1.577.557-.571 4.764.134 9.636A11.258 11.258 0 0 0 2.345 15Z" transform="translate(11.924 .003)"/><path id="Caminho_849-7" data-name="Caminho 849" d="M5.025 17.421a4.568 4.568 0 0 0 .674.05A5.883 5.883 0 0 0 10.228 15a11.315 11.315 0 0 0 2.21-5.369c.7-4.87-1.444-9.077-4.891-9.586A4.567 4.567 0 0 0 6.873 0a5.894 5.894 0 0 0-4.528 2.465A11.275 11.275 0 0 0 .134 7.838c-.7 4.87 1.444 9.077 4.891 9.584Z" transform="translate(26.623)"/><path id="Caminho_850-7" data-name="Caminho 850" d="m10.178 16.7.015-.006a5.2 5.2 0 0 0 2.843-2.927 10.217 10.217 0 0 0-.336-7.63C11.174 2.466 8.183 0 5.256 0a4.941 4.941 0 0 0-1.81.341L3.43.347A5.187 5.187 0 0 0 .59 3.274a10.217 10.217 0 0 0 .335 7.632c1.527 3.669 4.519 6.137 7.445 6.137a4.941 4.941 0 0 0 1.807-.341Z" transform="translate(0 11.081)"/></g><g id="paw-8" data-name="paw" transform="rotate(105.01 -603.522 927.904)" opacity=".04" fill="#707070"><path id="Caminho_846-8" data-name="Caminho 846" d="M28.446 7.148a11.377 11.377 0 0 0-6.2-6.391l-.035-.013A10.8 10.8 0 0 0 18.26 0h-.149C11.78.1 5.313 5.478 2.027 13.393c-2.41 5.789-2.688 12.015-.741 16.653A11.354 11.354 0 0 0 7.5 36.44l.03.013a10.818 10.818 0 0 0 3.951.744c6.394 0 12.924-5.382 16.273-13.4 2.38-5.782 2.642-12 .694-16.643Z" transform="translate(81.826 24.184)"/><path id="Caminho_847-8" data-name="Caminho 847" d="M69.915 24.551c-3.653-2.2-7.1-4.272-9.36-8C54.333 6.229 50.578 0 40.729 0s-13.615 6.229-19.85 16.551c-2.258 3.733-5.72 5.812-9.383 8.014C7.294 27.09 2.956 29.7 1.082 34.83A15.559 15.559 0 0 0 0 40.642C0 49 6.51 55.8 14.508 55.8c4.126 0 8.517-1.428 13.165-2.942C32.139 51.4 36.761 49.9 40.752 49.9s8.6 1.5 13.053 2.959c4.639 1.508 9.009 2.936 13.145 2.936 7.984 0 14.481-6.8 14.481-15.155a15.575 15.575 0 0 0-1.1-5.812c-1.875-5.138-6.216-7.75-10.414-10.272Z" transform="translate(15.054 40.92)"/><path id="Caminho_848-8" data-name="Caminho 848" d="M5.118 32.744c2.767 3.471 6.275 5.382 9.885 5.382a9.97 9.97 0 0 0 1.472-.109C24 36.91 28.688 27.729 27.151 17.1A24.646 24.646 0 0 0 22.32 5.372C19.56 1.908 16.045 0 12.438 0a9.97 9.97 0 0 0-1.472.109C3.442 1.217-1.246 10.4.291 21.03a24.57 24.57 0 0 0 4.827 11.71Z" transform="translate(26.024 .007)"/><path id="Caminho_849-8" data-name="Caminho 849" d="M10.967 38.021a9.968 9.968 0 0 0 1.471.109c3.61 0 7.118-1.911 9.885-5.382a24.7 24.7 0 0 0 4.824-11.718C28.685 10.4 24 1.22 16.472.109A9.968 9.968 0 0 0 15 0c-3.607.007-7.121 1.914-9.882 5.379A24.609 24.609 0 0 0 .291 17.106c-1.537 10.629 3.151 19.81 10.676 20.918Z" transform="translate(58.103)"/><path id="Caminho_850-8" data-name="Caminho 850" d="m22.213 36.45.033-.013a11.341 11.341 0 0 0 6.206-6.387c1.947-4.648 1.673-10.867-.731-16.656C24.388 5.382 17.858 0 11.471 0A10.785 10.785 0 0 0 7.52.744l-.033.013a11.321 11.321 0 0 0-6.2 6.387C-.659 11.793-.385 18.012 2.019 23.8c3.333 8.007 9.862 13.393 16.25 13.393a10.784 10.784 0 0 0 3.944-.744Z" transform="translate(0 24.184)"/></g><g id="paw-9" data-name="paw" transform="rotate(45 -78.624 82.71)" opacity=".11" fill="#17c3b2"><path id="Caminho_846-9" data-name="Caminho 846" d="M6.795 1.707A2.718 2.718 0 0 0 5.314.181h-.009A2.58 2.58 0 0 0 4.361 0h-.035C2.814.023 1.269 1.309.484 3.2a5.318 5.318 0 0 0-.177 3.977A2.712 2.712 0 0 0 1.791 8.7h.007a2.584 2.584 0 0 0 .944.178c1.527 0 3.087-1.286 3.887-3.2a5.341 5.341 0 0 0 .166-3.975Z" transform="translate(19.545 5.777)"/><path id="Caminho_847-9" data-name="Caminho 847" d="M16.7 5.864a5.916 5.916 0 0 1-2.236-1.91C12.978 1.488 12.081 0 9.728 0S6.476 1.488 4.987 3.953a5.931 5.931 0 0 1-2.241 1.914A5.032 5.032 0 0 0 .258 8.319 3.716 3.716 0 0 0 0 9.708a3.549 3.549 0 0 0 3.465 3.62 10.662 10.662 0 0 0 3.145-.7 10.935 10.935 0 0 1 3.124-.707 10.867 10.867 0 0 1 3.118.707 10.646 10.646 0 0 0 3.14.7 3.547 3.547 0 0 0 3.459-3.62 3.72 3.72 0 0 0-.264-1.388A5.032 5.032 0 0 0 16.7 5.864Z" transform="translate(3.596 9.774)"/><path id="Caminho_848-9" data-name="Caminho 848" d="M1.223 7.821a3.067 3.067 0 0 0 2.361 1.286 2.381 2.381 0 0 0 .352-.026c1.8-.265 2.917-2.458 2.55-5a5.887 5.887 0 0 0-1.154-2.8A3.066 3.066 0 0 0 2.971 0a2.381 2.381 0 0 0-.352.026C.822.291-.3 2.484.07 5.023a5.869 5.869 0 0 0 1.153 2.8Z" transform="translate(6.216 .002)"/><path id="Caminho_849-9" data-name="Caminho 849" d="M2.62 9.081a2.381 2.381 0 0 0 .351.026 3.067 3.067 0 0 0 2.361-1.285 5.9 5.9 0 0 0 1.152-2.8c.367-2.539-.753-4.732-2.55-5A2.381 2.381 0 0 0 3.583 0a3.073 3.073 0 0 0-2.36 1.285A5.878 5.878 0 0 0 .07 4.086c-.367 2.539.753 4.732 2.55 5Z" transform="translate(13.878)"/><path id="Caminho_850-9" data-name="Caminho 850" d="M5.306 8.706h.008A2.709 2.709 0 0 0 6.8 7.178 5.326 5.326 0 0 0 6.621 3.2C5.825 1.286 4.266 0 2.74 0a2.576 2.576 0 0 0-.94.178h-.008A2.7 2.7 0 0 0 .308 1.707a5.326 5.326 0 0 0 .174 3.978c.8 1.913 2.356 3.2 3.881 3.2a2.576 2.576 0 0 0 .942-.178Z" transform="translate(0 5.777)"/></g></g><g id="Grupo_de_máscara_53" data-name="Grupo de máscara 53" clip-path="url('#clip-path-2')" fill="#eefffd"><path id="Caminho_904" data-name="Caminho 904" d="M-.072 335h1094.134v82.221s175.5 61.765 148.922 99.78 176.2 52.441-133.945 77.35-332.615-28.843-536.679-55.064-373.069 20.976-476.182 94.518S-.072 794.01-.072 794.01Z" transform="translate(-310.805 2137.877)" opacity=".57"/><path id="União_6" data-name="União 6" d="M-1388.029 966.317Zm-486.256-10.9V453.382s-175.5-74.321-148.922-120.063-176.2-63.1 133.945-93.074 332.616 34.7 536.679 66.256S-979.514 281.262-876.4 192.77c84.938-72.892 95.253-156.5 96.25-183.71v946.354ZM-780.151 0s.213 3.238 0 9.06Z" transform="translate(1748.028 1517.683)" opacity=".57"/></g></g></svg>