<svg xmlns="http://www.w3.org/2000/svg" xmlns:xlink="http://www.w3.org/1999/xlink" width="1920" height="4437" viewBox="0 0 1920 4437">
  <defs>
    <clipPath id="clip-path">
      <rect id="Retângulo_232" data-name="Retângulo 232" width="1920" height="1120" transform="translate(0 3547)" fill="#fff"></rect>
    </clipPath>
    <clipPath id="clip-path-2">
      <rect id="Retângulo_231" data-name="Retângulo 231" width="1920" height="929" transform="translate(0 230)" fill="#fff"></rect>
    </clipPath>
    <clipPath id="clip-path-3">
      <rect id="Retângulo_230" data-name="Retângulo 230" width="1920" height="1334" transform="translate(0 1388)" fill="#fff"></rect>
    </clipPath>
    <clipPath id="clip-path-4">
      <rect id="Retângulo_235" data-name="Retângulo 235" width="888" height="1001" transform="translate(0 1656)" fill="#fff"></rect>
    </clipPath>
    <clipPath id="clip-path-5">
      <rect id="Retângulo_234" data-name="Retângulo 234" width="1954.553" height="903.159" transform="translate(0 0)" fill="none"></rect>
    </clipPath>
  </defs>
  <g id="Grupo_230" data-name="Grupo 230" transform="translate(0 -230)">
    <g id="Grupo_de_máscara_52" data-name="Grupo de máscara 52" clip-path="url('#clip-path')">
      <path id="Caminho_896" data-name="Caminho 896" d="M0-230H1920V502.032s307.978,74.321,261.33,120.063,309.191,63.1-235.049,93.073S1362.6,680.463,1004.51,648.912,349.844,674.152,168.9,762.644,0,955.414,0,955.414Z" transform="translate(1919.834 4485.8) rotate(180)" fill="#eefffd"></path>
    </g>
    <g id="Grupo_de_máscara_51" data-name="Grupo de máscara 51" clip-path="url('#clip-path-2')">
      <path id="Caminho_894" data-name="Caminho 894" d="M0,0H1920V502.032s307.978,74.321,261.33,120.063,309.191,63.1-235.049,93.073S1362.6,680.463,1004.51,648.912,349.844,674.152,168.9,762.644,0,955.414,0,955.414Z" transform="translate(0 230)" fill="#eefffd" opacity="0.57"></path>
    </g>
    <g id="Grupo_de_máscara_50" data-name="Grupo de máscara 50" clip-path="url('#clip-path-3')">
      <path id="Caminho_895" data-name="Caminho 895" d="M0-248.684S74.1-137.632,182.621-75.461,434.1,0,434.1,0,543.766,31.81,871.991,31.81c149.014,0,374.5-76.9,642.207-97.8S1942.807-51.8,1942.807-51.8C2294.59,8.146,1920,77.455,1920,173V903.629s183.007-142.8,143.013-111.455,57.882,167.955-272.908,227.161-534.775-31.156-873.938-14.2-343.014,82.03-482.717,82.03-156.173-9.465-260.289-50.48-177.168-145.6-222.428-189.3S0,854.21,0,854.21Z" transform="translate(0 1639)" fill="#eefffd"></path>
    </g>
    <g id="paw" transform="translate(195.407 3298.258) rotate(45)" opacity="0.04">
      <path id="Caminho_846" data-name="Caminho 846" d="M13.034,3.275A5.213,5.213,0,0,0,10.193.347L10.177.341A4.949,4.949,0,0,0,8.366,0H8.3C5.4.044,2.434,2.51.929,6.137a10.2,10.2,0,0,0-.339,7.63A5.2,5.2,0,0,0,3.436,16.7l.014.006a4.957,4.957,0,0,0,1.81.341c2.93,0,5.922-2.466,7.456-6.141a10.245,10.245,0,0,0,.318-7.626Z" transform="translate(37.492 11.081)" fill="#707070"></path>
      <path id="Caminho_847" data-name="Caminho 847" d="M32.035,11.249a11.349,11.349,0,0,1-4.289-3.664C24.9,2.854,23.174,0,18.662,0s-6.238,2.854-9.1,7.583a11.377,11.377,0,0,1-4.3,3.672C3.342,12.413,1.354,13.606.5,15.959A7.129,7.129,0,0,0,0,18.622a6.808,6.808,0,0,0,6.647,6.944,20.452,20.452,0,0,0,6.032-1.348,20.977,20.977,0,0,1,5.993-1.356,20.846,20.846,0,0,1,5.981,1.356,20.421,20.421,0,0,0,6.023,1.345,6.8,6.8,0,0,0,6.635-6.944,7.136,7.136,0,0,0-.506-2.663c-.859-2.354-2.848-3.551-4.772-4.707Z" transform="translate(6.898 18.749)" fill="#707070"></path>
      <path id="Caminho_848" data-name="Caminho 848" d="M2.345,15a5.883,5.883,0,0,0,4.529,2.466,4.568,4.568,0,0,0,.674-.05c3.448-.507,5.6-4.714,4.891-9.586a11.293,11.293,0,0,0-2.213-5.372A5.881,5.881,0,0,0,5.7,0a4.568,4.568,0,0,0-.674.05C1.577.557-.571,4.764.134,9.636A11.258,11.258,0,0,0,2.345,15Z" transform="translate(11.924 0.003)" fill="#707070"></path>
      <path id="Caminho_849" data-name="Caminho 849" d="M5.025,17.421a4.568,4.568,0,0,0,.674.05A5.883,5.883,0,0,0,10.228,15a11.315,11.315,0,0,0,2.21-5.369c.7-4.87-1.444-9.077-4.891-9.586A4.567,4.567,0,0,0,6.873,0,5.894,5.894,0,0,0,2.345,2.465,11.275,11.275,0,0,0,.134,7.838c-.7,4.87,1.444,9.077,4.891,9.584Z" transform="translate(26.623 0)" fill="#707070"></path>
      <path id="Caminho_850" data-name="Caminho 850" d="M10.178,16.7l.015-.006a5.2,5.2,0,0,0,2.843-2.927A10.217,10.217,0,0,0,12.7,6.137C11.174,2.466,8.183,0,5.256,0a4.941,4.941,0,0,0-1.81.341L3.43.347A5.187,5.187,0,0,0,.59,3.274a10.217,10.217,0,0,0,.335,7.632c1.527,3.669,4.519,6.137,7.445,6.137a4.941,4.941,0,0,0,1.807-.341Z" transform="translate(0 11.081)" fill="#707070"></path>
    </g>
    <g id="paw-2" data-name="paw" transform="translate(1737.037 3304.411) rotate(-45)" opacity="0.04">
      <path id="Caminho_846-2" data-name="Caminho 846" d="M28.446,7.148a11.377,11.377,0,0,0-6.2-6.391L22.211.744A10.8,10.8,0,0,0,18.26,0h-.149C11.78.1,5.313,5.478,2.027,13.393c-2.41,5.789-2.688,12.015-.741,16.653A11.354,11.354,0,0,0,7.5,36.44l.03.013a10.818,10.818,0,0,0,3.951.744c6.394,0,12.924-5.382,16.273-13.4,2.38-5.782,2.642-12,.694-16.643Z" transform="translate(81.826 24.184)" fill="#707070"></path>
      <path id="Caminho_847-2" data-name="Caminho 847" d="M69.915,24.551c-3.653-2.2-7.1-4.272-9.36-8C54.333,6.229,50.578,0,40.729,0S27.114,6.229,20.879,16.551c-2.258,3.733-5.72,5.812-9.383,8.014C7.294,27.09,2.956,29.7,1.082,34.83A15.559,15.559,0,0,0,0,40.642C0,49,6.51,55.8,14.508,55.8c4.126,0,8.517-1.428,13.165-2.942C32.139,51.4,36.761,49.9,40.752,49.9s8.6,1.5,13.053,2.959c4.639,1.508,9.009,2.936,13.145,2.936,7.984,0,14.481-6.8,14.481-15.155a15.575,15.575,0,0,0-1.1-5.812c-1.875-5.138-6.216-7.75-10.414-10.272Z" transform="translate(15.054 40.92)" fill="#707070"></path>
      <path id="Caminho_848-2" data-name="Caminho 848" d="M5.118,32.744c2.767,3.471,6.275,5.382,9.885,5.382a9.97,9.97,0,0,0,1.472-.109C24,36.91,28.688,27.729,27.151,17.1A24.646,24.646,0,0,0,22.32,5.372C19.56,1.908,16.045,0,12.438,0a9.97,9.97,0,0,0-1.472.109C3.442,1.217-1.246,10.4.291,21.03a24.57,24.57,0,0,0,4.827,11.71Z" transform="translate(26.024 0.007)" fill="#707070"></path>
      <path id="Caminho_849-2" data-name="Caminho 849" d="M10.967,38.021a9.968,9.968,0,0,0,1.471.109c3.61,0,7.118-1.911,9.885-5.382A24.7,24.7,0,0,0,27.147,21.03C28.685,10.4,24,1.22,16.472.109A9.968,9.968,0,0,0,15,0C11.393.007,7.879,1.914,5.118,5.379A24.609,24.609,0,0,0,.291,17.106c-1.537,10.629,3.151,19.81,10.676,20.918Z" transform="translate(58.103 0)" fill="#707070"></path>
      <path id="Caminho_850-2" data-name="Caminho 850" d="M22.213,36.45l.033-.013a11.341,11.341,0,0,0,6.206-6.387c1.947-4.648,1.673-10.867-.731-16.656C24.388,5.382,17.858,0,11.471,0A10.785,10.785,0,0,0,7.52.744L7.487.757a11.321,11.321,0,0,0-6.2,6.387C-.659,11.793-.385,18.012,2.019,23.8c3.333,8.007,9.862,13.393,16.25,13.393a10.784,10.784,0,0,0,3.944-.744Z" transform="translate(0 24.184)" fill="#707070"></path>
    </g>
    <g id="paw-3" data-name="paw" transform="translate(284.721 2933.114) rotate(-45)" opacity="0.04">
      <path id="Caminho_846-3" data-name="Caminho 846" d="M28.446,7.148a11.377,11.377,0,0,0-6.2-6.391L22.211.744A10.8,10.8,0,0,0,18.26,0h-.149C11.78.1,5.313,5.478,2.027,13.393c-2.41,5.789-2.688,12.015-.741,16.653A11.354,11.354,0,0,0,7.5,36.44l.03.013a10.818,10.818,0,0,0,3.951.744c6.394,0,12.924-5.382,16.273-13.4,2.38-5.782,2.642-12,.694-16.643Z" transform="translate(81.826 24.184)" fill="#707070"></path>
      <path id="Caminho_847-3" data-name="Caminho 847" d="M69.915,24.551c-3.653-2.2-7.1-4.272-9.36-8C54.333,6.229,50.578,0,40.729,0S27.114,6.229,20.879,16.551c-2.258,3.733-5.72,5.812-9.383,8.014C7.294,27.09,2.956,29.7,1.082,34.83A15.559,15.559,0,0,0,0,40.642C0,49,6.51,55.8,14.508,55.8c4.126,0,8.517-1.428,13.165-2.942C32.139,51.4,36.761,49.9,40.752,49.9s8.6,1.5,13.053,2.959c4.639,1.508,9.009,2.936,13.145,2.936,7.984,0,14.481-6.8,14.481-15.155a15.575,15.575,0,0,0-1.1-5.812c-1.875-5.138-6.216-7.75-10.414-10.272Z" transform="translate(15.054 40.92)" fill="#707070"></path>
      <path id="Caminho_848-3" data-name="Caminho 848" d="M5.118,32.744c2.767,3.471,6.275,5.382,9.885,5.382a9.97,9.97,0,0,0,1.472-.109C24,36.91,28.688,27.729,27.151,17.1A24.646,24.646,0,0,0,22.32,5.372C19.56,1.908,16.045,0,12.438,0a9.97,9.97,0,0,0-1.472.109C3.442,1.217-1.246,10.4.291,21.03a24.57,24.57,0,0,0,4.827,11.71Z" transform="translate(26.024 0.007)" fill="#707070"></path>
      <path id="Caminho_849-3" data-name="Caminho 849" d="M10.967,38.021a9.968,9.968,0,0,0,1.471.109c3.61,0,7.118-1.911,9.885-5.382A24.7,24.7,0,0,0,27.147,21.03C28.685,10.4,24,1.22,16.472.109A9.968,9.968,0,0,0,15,0C11.393.007,7.879,1.914,5.118,5.379A24.609,24.609,0,0,0,.291,17.106c-1.537,10.629,3.151,19.81,10.676,20.918Z" transform="translate(58.103 0)" fill="#707070"></path>
      <path id="Caminho_850-3" data-name="Caminho 850" d="M22.213,36.45l.033-.013a11.341,11.341,0,0,0,6.206-6.387c1.947-4.648,1.673-10.867-.731-16.656C24.388,5.382,17.858,0,11.471,0A10.785,10.785,0,0,0,7.52.744L7.487.757a11.321,11.321,0,0,0-6.2,6.387C-.659,11.793-.385,18.012,2.019,23.8c3.333,8.007,9.862,13.393,16.25,13.393a10.784,10.784,0,0,0,3.944-.744Z" transform="translate(0 24.184)" fill="#707070"></path>
    </g>
    <g id="paw-4" data-name="paw" transform="translate(636.482 1535.336) rotate(135)">
      <path id="Caminho_846-4" data-name="Caminho 846" d="M13.034,3.275A5.213,5.213,0,0,0,10.193.347L10.177.341A4.949,4.949,0,0,0,8.366,0H8.3C5.4.044,2.434,2.51.929,6.137a10.2,10.2,0,0,0-.339,7.63A5.2,5.2,0,0,0,3.436,16.7l.014.006a4.957,4.957,0,0,0,1.81.341c2.93,0,5.922-2.466,7.456-6.141a10.245,10.245,0,0,0,.318-7.626Z" transform="translate(37.492 11.081)" fill="#f8f8f8"></path>
      <path id="Caminho_847-4" data-name="Caminho 847" d="M32.035,11.249a11.349,11.349,0,0,1-4.289-3.664C24.9,2.854,23.174,0,18.662,0s-6.238,2.854-9.1,7.583a11.377,11.377,0,0,1-4.3,3.672C3.342,12.413,1.354,13.606.5,15.959A7.129,7.129,0,0,0,0,18.622a6.808,6.808,0,0,0,6.647,6.944,20.452,20.452,0,0,0,6.032-1.348,20.977,20.977,0,0,1,5.993-1.356,20.846,20.846,0,0,1,5.981,1.356,20.421,20.421,0,0,0,6.023,1.345,6.8,6.8,0,0,0,6.635-6.944,7.136,7.136,0,0,0-.506-2.663c-.859-2.354-2.848-3.551-4.772-4.707Z" transform="translate(6.898 18.749)" fill="#f8f8f8"></path>
      <path id="Caminho_848-4" data-name="Caminho 848" d="M2.345,15a5.883,5.883,0,0,0,4.529,2.466,4.568,4.568,0,0,0,.674-.05c3.448-.507,5.6-4.714,4.891-9.586a11.293,11.293,0,0,0-2.213-5.372A5.881,5.881,0,0,0,5.7,0a4.568,4.568,0,0,0-.674.05C1.577.557-.571,4.764.134,9.636A11.258,11.258,0,0,0,2.345,15Z" transform="translate(11.924 0.003)" fill="#f8f8f8"></path>
      <path id="Caminho_849-4" data-name="Caminho 849" d="M5.025,17.421a4.568,4.568,0,0,0,.674.05A5.883,5.883,0,0,0,10.228,15a11.315,11.315,0,0,0,2.21-5.369c.7-4.87-1.444-9.077-4.891-9.586A4.567,4.567,0,0,0,6.873,0,5.894,5.894,0,0,0,2.345,2.465,11.275,11.275,0,0,0,.134,7.838c-.7,4.87,1.444,9.077,4.891,9.584Z" transform="translate(26.623 0)" fill="#f8f8f8"></path>
      <path id="Caminho_850-4" data-name="Caminho 850" d="M10.178,16.7l.015-.006a5.2,5.2,0,0,0,2.843-2.927A10.217,10.217,0,0,0,12.7,6.137C11.174,2.466,8.183,0,5.256,0a4.941,4.941,0,0,0-1.81.341L3.43.347A5.187,5.187,0,0,0,.59,3.274a10.217,10.217,0,0,0,.335,7.632c1.527,3.669,4.519,6.137,7.445,6.137a4.941,4.941,0,0,0,1.807-.341Z" transform="translate(0 11.081)" fill="#f8f8f8"></path>
    </g>
    <g id="paw-5" data-name="paw" transform="matrix(0.259, -0.966, 0.966, 0.259, 1193.323, 1627.869)">
      <path id="Caminho_846-5" data-name="Caminho 846" d="M13.034,3.275A5.213,5.213,0,0,0,10.193.347L10.177.341A4.949,4.949,0,0,0,8.366,0H8.3C5.4.044,2.434,2.51.929,6.137a10.2,10.2,0,0,0-.339,7.63A5.2,5.2,0,0,0,3.436,16.7l.014.006a4.957,4.957,0,0,0,1.81.341c2.93,0,5.922-2.466,7.456-6.141a10.245,10.245,0,0,0,.318-7.626Z" transform="translate(37.492 11.081)" fill="#f8f8f8"></path>
      <path id="Caminho_847-5" data-name="Caminho 847" d="M32.035,11.249a11.349,11.349,0,0,1-4.289-3.664C24.9,2.854,23.174,0,18.662,0s-6.238,2.854-9.1,7.583a11.377,11.377,0,0,1-4.3,3.672C3.342,12.413,1.354,13.606.5,15.959A7.129,7.129,0,0,0,0,18.622a6.808,6.808,0,0,0,6.647,6.944,20.452,20.452,0,0,0,6.032-1.348,20.977,20.977,0,0,1,5.993-1.356,20.846,20.846,0,0,1,5.981,1.356,20.421,20.421,0,0,0,6.023,1.345,6.8,6.8,0,0,0,6.635-6.944,7.136,7.136,0,0,0-.506-2.663c-.859-2.354-2.848-3.551-4.772-4.707Z" transform="translate(6.898 18.749)" fill="#f8f8f8"></path>
      <path id="Caminho_848-5" data-name="Caminho 848" d="M2.345,15a5.883,5.883,0,0,0,4.529,2.466,4.568,4.568,0,0,0,.674-.05c3.448-.507,5.6-4.714,4.891-9.586a11.293,11.293,0,0,0-2.213-5.372A5.881,5.881,0,0,0,5.7,0a4.568,4.568,0,0,0-.674.05C1.577.557-.571,4.764.134,9.636A11.258,11.258,0,0,0,2.345,15Z" transform="translate(11.924 0.003)" fill="#f8f8f8"></path>
      <path id="Caminho_849-5" data-name="Caminho 849" d="M5.025,17.421a4.568,4.568,0,0,0,.674.05A5.883,5.883,0,0,0,10.228,15a11.315,11.315,0,0,0,2.21-5.369c.7-4.87-1.444-9.077-4.891-9.586A4.567,4.567,0,0,0,6.873,0,5.894,5.894,0,0,0,2.345,2.465,11.275,11.275,0,0,0,.134,7.838c-.7,4.87,1.444,9.077,4.891,9.584Z" transform="translate(26.623 0)" fill="#f8f8f8"></path>
      <path id="Caminho_850-5" data-name="Caminho 850" d="M10.178,16.7l.015-.006a5.2,5.2,0,0,0,2.843-2.927A10.217,10.217,0,0,0,12.7,6.137C11.174,2.466,8.183,0,5.256,0a4.941,4.941,0,0,0-1.81.341L3.43.347A5.187,5.187,0,0,0,.59,3.274a10.217,10.217,0,0,0,.335,7.632c1.527,3.669,4.519,6.137,7.445,6.137a4.941,4.941,0,0,0,1.807-.341Z" transform="translate(0 11.081)" fill="#f8f8f8"></path>
    </g>
    <g id="paw-6" data-name="paw" transform="translate(189.407 1101.947) rotate(45)" opacity="0.04">
      <path id="Caminho_846-6" data-name="Caminho 846" d="M13.034,3.275A5.213,5.213,0,0,0,10.193.347L10.177.341A4.949,4.949,0,0,0,8.366,0H8.3C5.4.044,2.434,2.51.929,6.137a10.2,10.2,0,0,0-.339,7.63A5.2,5.2,0,0,0,3.436,16.7l.014.006a4.957,4.957,0,0,0,1.81.341c2.93,0,5.922-2.466,7.456-6.141a10.245,10.245,0,0,0,.318-7.626Z" transform="translate(37.492 11.081)" fill="#707070"></path>
      <path id="Caminho_847-6" data-name="Caminho 847" d="M32.035,11.249a11.349,11.349,0,0,1-4.289-3.664C24.9,2.854,23.174,0,18.662,0s-6.238,2.854-9.1,7.583a11.377,11.377,0,0,1-4.3,3.672C3.342,12.413,1.354,13.606.5,15.959A7.129,7.129,0,0,0,0,18.622a6.808,6.808,0,0,0,6.647,6.944,20.452,20.452,0,0,0,6.032-1.348,20.977,20.977,0,0,1,5.993-1.356,20.846,20.846,0,0,1,5.981,1.356,20.421,20.421,0,0,0,6.023,1.345,6.8,6.8,0,0,0,6.635-6.944,7.136,7.136,0,0,0-.506-2.663c-.859-2.354-2.848-3.551-4.772-4.707Z" transform="translate(6.898 18.749)" fill="#707070"></path>
      <path id="Caminho_848-6" data-name="Caminho 848" d="M2.345,15a5.883,5.883,0,0,0,4.529,2.466,4.568,4.568,0,0,0,.674-.05c3.448-.507,5.6-4.714,4.891-9.586a11.293,11.293,0,0,0-2.213-5.372A5.881,5.881,0,0,0,5.7,0a4.568,4.568,0,0,0-.674.05C1.577.557-.571,4.764.134,9.636A11.258,11.258,0,0,0,2.345,15Z" transform="translate(11.924 0.003)" fill="#707070"></path>
      <path id="Caminho_849-6" data-name="Caminho 849" d="M5.025,17.421a4.568,4.568,0,0,0,.674.05A5.883,5.883,0,0,0,10.228,15a11.315,11.315,0,0,0,2.21-5.369c.7-4.87-1.444-9.077-4.891-9.586A4.567,4.567,0,0,0,6.873,0,5.894,5.894,0,0,0,2.345,2.465,11.275,11.275,0,0,0,.134,7.838c-.7,4.87,1.444,9.077,4.891,9.584Z" transform="translate(26.623 0)" fill="#707070"></path>
      <path id="Caminho_850-6" data-name="Caminho 850" d="M10.178,16.7l.015-.006a5.2,5.2,0,0,0,2.843-2.927A10.217,10.217,0,0,0,12.7,6.137C11.174,2.466,8.183,0,5.256,0a4.941,4.941,0,0,0-1.81.341L3.43.347A5.187,5.187,0,0,0,.59,3.274a10.217,10.217,0,0,0,.335,7.632c1.527,3.669,4.519,6.137,7.445,6.137a4.941,4.941,0,0,0,1.807-.341Z" transform="translate(0 11.081)" fill="#707070"></path>
    </g>
    <g id="paw-7" data-name="paw" transform="matrix(-0.966, -0.259, 0.259, -0.966, 1797.196, 1779.656)" opacity="0.04">
      <path id="Caminho_846-7" data-name="Caminho 846" d="M13.034,3.275A5.213,5.213,0,0,0,10.193.347L10.177.341A4.949,4.949,0,0,0,8.366,0H8.3C5.4.044,2.434,2.51.929,6.137a10.2,10.2,0,0,0-.339,7.63A5.2,5.2,0,0,0,3.436,16.7l.014.006a4.957,4.957,0,0,0,1.81.341c2.93,0,5.922-2.466,7.456-6.141a10.245,10.245,0,0,0,.318-7.626Z" transform="translate(37.492 11.081)" fill="#707070"></path>
      <path id="Caminho_847-7" data-name="Caminho 847" d="M32.035,11.249a11.349,11.349,0,0,1-4.289-3.664C24.9,2.854,23.174,0,18.662,0s-6.238,2.854-9.1,7.583a11.377,11.377,0,0,1-4.3,3.672C3.342,12.413,1.354,13.606.5,15.959A7.129,7.129,0,0,0,0,18.622a6.808,6.808,0,0,0,6.647,6.944,20.452,20.452,0,0,0,6.032-1.348,20.977,20.977,0,0,1,5.993-1.356,20.846,20.846,0,0,1,5.981,1.356,20.421,20.421,0,0,0,6.023,1.345,6.8,6.8,0,0,0,6.635-6.944,7.136,7.136,0,0,0-.506-2.663c-.859-2.354-2.848-3.551-4.772-4.707Z" transform="translate(6.898 18.749)" fill="#707070"></path>
      <path id="Caminho_848-7" data-name="Caminho 848" d="M2.345,15a5.883,5.883,0,0,0,4.529,2.466,4.568,4.568,0,0,0,.674-.05c3.448-.507,5.6-4.714,4.891-9.586a11.293,11.293,0,0,0-2.213-5.372A5.881,5.881,0,0,0,5.7,0a4.568,4.568,0,0,0-.674.05C1.577.557-.571,4.764.134,9.636A11.258,11.258,0,0,0,2.345,15Z" transform="translate(11.924 0.003)" fill="#707070"></path>
      <path id="Caminho_849-7" data-name="Caminho 849" d="M5.025,17.421a4.568,4.568,0,0,0,.674.05A5.883,5.883,0,0,0,10.228,15a11.315,11.315,0,0,0,2.21-5.369c.7-4.87-1.444-9.077-4.891-9.586A4.567,4.567,0,0,0,6.873,0,5.894,5.894,0,0,0,2.345,2.465,11.275,11.275,0,0,0,.134,7.838c-.7,4.87,1.444,9.077,4.891,9.584Z" transform="translate(26.623 0)" fill="#707070"></path>
      <path id="Caminho_850-7" data-name="Caminho 850" d="M10.178,16.7l.015-.006a5.2,5.2,0,0,0,2.843-2.927A10.217,10.217,0,0,0,12.7,6.137C11.174,2.466,8.183,0,5.256,0a4.941,4.941,0,0,0-1.81.341L3.43.347A5.187,5.187,0,0,0,.59,3.274a10.217,10.217,0,0,0,.335,7.632c1.527,3.669,4.519,6.137,7.445,6.137a4.941,4.941,0,0,0,1.807-.341Z" transform="translate(0 11.081)" fill="#707070"></path>
    </g>
    <g id="paw-8" data-name="paw" transform="translate(1109.477 726.479) rotate(45)" opacity="0.11">
      <path id="Caminho_846-8" data-name="Caminho 846" d="M13.034,3.275A5.213,5.213,0,0,0,10.193.347L10.177.341A4.949,4.949,0,0,0,8.366,0H8.3C5.4.044,2.434,2.51.929,6.137a10.2,10.2,0,0,0-.339,7.63A5.2,5.2,0,0,0,3.436,16.7l.014.006a4.957,4.957,0,0,0,1.81.341c2.93,0,5.922-2.466,7.456-6.141a10.245,10.245,0,0,0,.318-7.626Z" transform="translate(37.492 11.081)" fill="#17c3b2"></path>
      <path id="Caminho_847-8" data-name="Caminho 847" d="M32.035,11.249a11.349,11.349,0,0,1-4.289-3.664C24.9,2.854,23.174,0,18.662,0s-6.238,2.854-9.1,7.583a11.377,11.377,0,0,1-4.3,3.672C3.342,12.413,1.354,13.606.5,15.959A7.129,7.129,0,0,0,0,18.622a6.808,6.808,0,0,0,6.647,6.944,20.452,20.452,0,0,0,6.032-1.348,20.977,20.977,0,0,1,5.993-1.356,20.846,20.846,0,0,1,5.981,1.356,20.421,20.421,0,0,0,6.023,1.345,6.8,6.8,0,0,0,6.635-6.944,7.136,7.136,0,0,0-.506-2.663c-.859-2.354-2.848-3.551-4.772-4.707Z" transform="translate(6.898 18.749)" fill="#17c3b2"></path>
      <path id="Caminho_848-8" data-name="Caminho 848" d="M2.345,15a5.883,5.883,0,0,0,4.529,2.466,4.568,4.568,0,0,0,.674-.05c3.448-.507,5.6-4.714,4.891-9.586a11.293,11.293,0,0,0-2.213-5.372A5.881,5.881,0,0,0,5.7,0a4.568,4.568,0,0,0-.674.05C1.577.557-.571,4.764.134,9.636A11.258,11.258,0,0,0,2.345,15Z" transform="translate(11.924 0.003)" fill="#17c3b2"></path>
      <path id="Caminho_849-8" data-name="Caminho 849" d="M5.025,17.421a4.568,4.568,0,0,0,.674.05A5.883,5.883,0,0,0,10.228,15a11.315,11.315,0,0,0,2.21-5.369c.7-4.87-1.444-9.077-4.891-9.586A4.567,4.567,0,0,0,6.873,0,5.894,5.894,0,0,0,2.345,2.465,11.275,11.275,0,0,0,.134,7.838c-.7,4.87,1.444,9.077,4.891,9.584Z" transform="translate(26.623 0)" fill="#17c3b2"></path>
      <path id="Caminho_850-8" data-name="Caminho 850" d="M10.178,16.7l.015-.006a5.2,5.2,0,0,0,2.843-2.927A10.217,10.217,0,0,0,12.7,6.137C11.174,2.466,8.183,0,5.256,0a4.941,4.941,0,0,0-1.81.341L3.43.347A5.187,5.187,0,0,0,.59,3.274a10.217,10.217,0,0,0,.335,7.632c1.527,3.669,4.519,6.137,7.445,6.137a4.941,4.941,0,0,0,1.807-.341Z" transform="translate(0 11.081)" fill="#17c3b2"></path>
    </g>
    <g id="paw-9" data-name="paw" transform="translate(1692.741 1094.561) rotate(135)" opacity="0.04">
      <path id="Caminho_846-9" data-name="Caminho 846" d="M13.034,3.275A5.213,5.213,0,0,0,10.193.347L10.177.341A4.949,4.949,0,0,0,8.366,0H8.3C5.4.044,2.434,2.51.929,6.137a10.2,10.2,0,0,0-.339,7.63A5.2,5.2,0,0,0,3.436,16.7l.014.006a4.957,4.957,0,0,0,1.81.341c2.93,0,5.922-2.466,7.456-6.141a10.245,10.245,0,0,0,.318-7.626Z" transform="translate(37.492 11.081)" fill="#707070"></path>
      <path id="Caminho_847-9" data-name="Caminho 847" d="M32.035,11.249a11.349,11.349,0,0,1-4.289-3.664C24.9,2.854,23.174,0,18.662,0s-6.238,2.854-9.1,7.583a11.377,11.377,0,0,1-4.3,3.672C3.342,12.413,1.354,13.606.5,15.959A7.129,7.129,0,0,0,0,18.622a6.808,6.808,0,0,0,6.647,6.944,20.452,20.452,0,0,0,6.032-1.348,20.977,20.977,0,0,1,5.993-1.356,20.846,20.846,0,0,1,5.981,1.356,20.421,20.421,0,0,0,6.023,1.345,6.8,6.8,0,0,0,6.635-6.944,7.136,7.136,0,0,0-.506-2.663c-.859-2.354-2.848-3.551-4.772-4.707Z" transform="translate(6.898 18.749)" fill="#707070"></path>
      <path id="Caminho_848-9" data-name="Caminho 848" d="M2.345,15a5.883,5.883,0,0,0,4.529,2.466,4.568,4.568,0,0,0,.674-.05c3.448-.507,5.6-4.714,4.891-9.586a11.293,11.293,0,0,0-2.213-5.372A5.881,5.881,0,0,0,5.7,0a4.568,4.568,0,0,0-.674.05C1.577.557-.571,4.764.134,9.636A11.258,11.258,0,0,0,2.345,15Z" transform="translate(11.924 0.003)" fill="#707070"></path>
      <path id="Caminho_849-9" data-name="Caminho 849" d="M5.025,17.421a4.568,4.568,0,0,0,.674.05A5.883,5.883,0,0,0,10.228,15a11.315,11.315,0,0,0,2.21-5.369c.7-4.87-1.444-9.077-4.891-9.586A4.567,4.567,0,0,0,6.873,0,5.894,5.894,0,0,0,2.345,2.465,11.275,11.275,0,0,0,.134,7.838c-.7,4.87,1.444,9.077,4.891,9.584Z" transform="translate(26.623 0)" fill="#707070"></path>
      <path id="Caminho_850-9" data-name="Caminho 850" d="M10.178,16.7l.015-.006a5.2,5.2,0,0,0,2.843-2.927A10.217,10.217,0,0,0,12.7,6.137C11.174,2.466,8.183,0,5.256,0a4.941,4.941,0,0,0-1.81.341L3.43.347A5.187,5.187,0,0,0,.59,3.274a10.217,10.217,0,0,0,.335,7.632c1.527,3.669,4.519,6.137,7.445,6.137a4.941,4.941,0,0,0,1.807-.341Z" transform="translate(0 11.081)" fill="#707070"></path>
    </g>
    <g id="paw-10" data-name="paw" transform="translate(664.483 792.501) rotate(135)" opacity="0.11">
      <path id="Caminho_846-10" data-name="Caminho 846" d="M7.912,1.988A3.165,3.165,0,0,0,6.188.211l-.01,0A3,3,0,0,0,5.079,0H5.038C3.277.027,1.478,1.524.564,3.725A6.193,6.193,0,0,0,.358,8.358a3.158,3.158,0,0,0,1.728,1.779l.008,0a3.009,3.009,0,0,0,1.1.207c1.779,0,3.595-1.5,4.526-3.728a6.219,6.219,0,0,0,.193-4.629Z" transform="translate(22.76 6.727)" fill="#17c3b2"></path>
      <path id="Caminho_847-10" data-name="Caminho 847" d="M19.447,6.829a6.889,6.889,0,0,1-2.6-2.225C15.113,1.733,14.069,0,11.329,0S7.542,1.733,5.808,4.6A6.907,6.907,0,0,1,3.2,6.833,5.86,5.86,0,0,0,.3,9.688,4.328,4.328,0,0,0,0,11.3a4.133,4.133,0,0,0,4.035,4.216A12.416,12.416,0,0,0,7.7,14.7a12.735,12.735,0,0,1,3.638-.823,12.655,12.655,0,0,1,3.631.823,12.4,12.4,0,0,0,3.656.817A4.13,4.13,0,0,0,22.651,11.3a4.332,4.332,0,0,0-.307-1.617,5.86,5.86,0,0,0-2.9-2.857Z" transform="translate(4.187 11.382)" fill="#17c3b2"></path>
      <path id="Caminho_848-10" data-name="Caminho 848" d="M1.424,9.108a3.571,3.571,0,0,0,2.75,1.5,2.773,2.773,0,0,0,.409-.03c2.093-.308,3.4-2.862,2.969-5.819A6.856,6.856,0,0,0,6.209,1.494,3.57,3.57,0,0,0,3.46,0,2.773,2.773,0,0,0,3.05.03C.957.338-.347,2.892.081,5.85A6.834,6.834,0,0,0,1.424,9.107Z" transform="translate(7.239 0.002)" fill="#17c3b2"></path>
      <path id="Caminho_849-10" data-name="Caminho 849" d="M3.051,10.576a2.773,2.773,0,0,0,.409.03,3.571,3.571,0,0,0,2.75-1.5A6.869,6.869,0,0,0,7.551,5.85C7.979,2.893,6.675.339,4.582.03A2.773,2.773,0,0,0,4.172,0,3.578,3.578,0,0,0,1.424,1.5,6.845,6.845,0,0,0,.081,4.758c-.428,2.957.876,5.51,2.969,5.818Z" transform="translate(16.162 0)" fill="#17c3b2"></path>
      <path id="Caminho_850-10" data-name="Caminho 850" d="M6.179,10.139l.009,0A3.155,3.155,0,0,0,7.914,8.358a6.2,6.2,0,0,0-.2-4.633C6.784,1.5,4.967,0,3.191,0a3,3,0,0,0-1.1.207l-.009,0A3.149,3.149,0,0,0,.358,1.987a6.2,6.2,0,0,0,.2,4.633c.927,2.227,2.743,3.725,4.52,3.725a3,3,0,0,0,1.1-.207Z" transform="translate(0 6.727)" fill="#17c3b2"></path>
    </g>
    <g id="paw-11" data-name="paw" transform="translate(1737.037 1392.75) rotate(-45)" opacity="0.04">
      <path id="Caminho_846-11" data-name="Caminho 846" d="M28.446,7.148a11.377,11.377,0,0,0-6.2-6.391L22.211.744A10.8,10.8,0,0,0,18.26,0h-.149C11.78.1,5.313,5.478,2.027,13.393c-2.41,5.789-2.688,12.015-.741,16.653A11.354,11.354,0,0,0,7.5,36.44l.03.013a10.818,10.818,0,0,0,3.951.744c6.394,0,12.924-5.382,16.273-13.4,2.38-5.782,2.642-12,.694-16.643Z" transform="translate(81.826 24.184)" fill="#707070"></path>
      <path id="Caminho_847-11" data-name="Caminho 847" d="M69.915,24.551c-3.653-2.2-7.1-4.272-9.36-8C54.333,6.229,50.578,0,40.729,0S27.114,6.229,20.879,16.551c-2.258,3.733-5.72,5.812-9.383,8.014C7.294,27.09,2.956,29.7,1.082,34.83A15.559,15.559,0,0,0,0,40.642C0,49,6.51,55.8,14.508,55.8c4.126,0,8.517-1.428,13.165-2.942C32.139,51.4,36.761,49.9,40.752,49.9s8.6,1.5,13.053,2.959c4.639,1.508,9.009,2.936,13.145,2.936,7.984,0,14.481-6.8,14.481-15.155a15.575,15.575,0,0,0-1.1-5.812c-1.875-5.138-6.216-7.75-10.414-10.272Z" transform="translate(15.054 40.92)" fill="#707070"></path>
      <path id="Caminho_848-11" data-name="Caminho 848" d="M5.118,32.744c2.767,3.471,6.275,5.382,9.885,5.382a9.97,9.97,0,0,0,1.472-.109C24,36.91,28.688,27.729,27.151,17.1A24.646,24.646,0,0,0,22.32,5.372C19.56,1.908,16.045,0,12.438,0a9.97,9.97,0,0,0-1.472.109C3.442,1.217-1.246,10.4.291,21.03a24.57,24.57,0,0,0,4.827,11.71Z" transform="translate(26.024 0.007)" fill="#707070"></path>
      <path id="Caminho_849-11" data-name="Caminho 849" d="M10.967,38.021a9.968,9.968,0,0,0,1.471.109c3.61,0,7.118-1.911,9.885-5.382A24.7,24.7,0,0,0,27.147,21.03C28.685,10.4,24,1.22,16.472.109A9.968,9.968,0,0,0,15,0C11.393.007,7.879,1.914,5.118,5.379A24.609,24.609,0,0,0,.291,17.106c-1.537,10.629,3.151,19.81,10.676,20.918Z" transform="translate(58.103 0)" fill="#707070"></path>
      <path id="Caminho_850-11" data-name="Caminho 850" d="M22.213,36.45l.033-.013a11.341,11.341,0,0,0,6.206-6.387c1.947-4.648,1.673-10.867-.731-16.656C24.388,5.382,17.858,0,11.471,0A10.785,10.785,0,0,0,7.52.744L7.487.757a11.321,11.321,0,0,0-6.2,6.387C-.659,11.793-.385,18.012,2.019,23.8c3.333,8.007,9.862,13.393,16.25,13.393a10.784,10.784,0,0,0,3.944-.744Z" transform="translate(0 24.184)" fill="#707070"></path>
    </g>
    <g id="paw-12" data-name="paw" transform="translate(86.673 382.745) rotate(-45)" opacity="0.11">
      <path id="Caminho_846-12" data-name="Caminho 846" d="M12.168,3.058A4.867,4.867,0,0,0,9.517.324L9.5.318A4.62,4.62,0,0,0,7.811,0H7.747C5.039.041,2.273,2.343.867,5.729A9.524,9.524,0,0,0,.55,12.853a4.857,4.857,0,0,0,2.657,2.735l.013.006a4.628,4.628,0,0,0,1.69.318c2.735,0,5.528-2.3,6.961-5.733a9.565,9.565,0,0,0,.3-7.119Z" transform="translate(35.003 10.345)" fill="#17c3b2"></path>
      <path id="Caminho_847-12" data-name="Caminho 847" d="M29.908,10.5a10.6,10.6,0,0,1-4-3.421C23.242,2.664,21.636,0,17.423,0S11.6,2.664,8.931,7.08a10.622,10.622,0,0,1-4.014,3.428C3.12,11.589,1.265,12.7.463,14.9A6.656,6.656,0,0,0,0,17.386a6.356,6.356,0,0,0,6.206,6.483,19.1,19.1,0,0,0,5.632-1.259,19.584,19.584,0,0,1,5.595-1.266,19.462,19.462,0,0,1,5.584,1.266,19.065,19.065,0,0,0,5.623,1.256,6.352,6.352,0,0,0,6.195-6.483,6.663,6.663,0,0,0-.472-2.486c-.8-2.2-2.659-3.315-4.455-4.394Z" transform="translate(6.44 17.504)" fill="#17c3b2"></path>
      <path id="Caminho_848-12" data-name="Caminho 848" d="M2.19,14.007a5.492,5.492,0,0,0,4.229,2.3,4.265,4.265,0,0,0,.63-.047c3.219-.474,5.224-4.4,4.567-8.95A10.543,10.543,0,0,0,9.548,2.3,5.491,5.491,0,0,0,5.321,0a4.265,4.265,0,0,0-.63.047C1.472.52-.533,4.448.125,9A10.51,10.51,0,0,0,2.19,14.006Z" transform="translate(11.132 0.003)" fill="#17c3b2"></path>
      <path id="Caminho_849-12" data-name="Caminho 849" d="M4.691,16.264a4.264,4.264,0,0,0,.629.047,5.492,5.492,0,0,0,4.229-2.3A10.564,10.564,0,0,0,11.613,9C12.27,4.449,10.265.522,7.046.047A4.264,4.264,0,0,0,6.417,0,5.5,5.5,0,0,0,2.19,2.3,10.527,10.527,0,0,0,.125,7.317c-.658,4.547,1.348,8.474,4.567,8.948Z" transform="translate(24.855 0)" fill="#17c3b2"></path>
      <path id="Caminho_850-12" data-name="Caminho 850" d="M9.5,15.592l.014-.006a4.851,4.851,0,0,0,2.655-2.732,9.539,9.539,0,0,0-.313-7.125C10.433,2.3,7.639,0,4.907,0a4.613,4.613,0,0,0-1.69.318L3.2.324A4.843,4.843,0,0,0,.551,3.056a9.539,9.539,0,0,0,.313,7.125c1.426,3.425,4.219,5.729,6.951,5.729A4.613,4.613,0,0,0,9.5,15.592Z" transform="translate(0 10.345)" fill="#17c3b2"></path>
    </g>
    <g id="paw-13" data-name="paw" transform="translate(938.036 370.91) rotate(45)" opacity="0.11">
      <path id="Caminho_846-13" data-name="Caminho 846" d="M6.795,1.707A2.718,2.718,0,0,0,5.314.181l-.009,0A2.58,2.58,0,0,0,4.361,0H4.326C2.814.023,1.269,1.309.484,3.2A5.318,5.318,0,0,0,.307,7.177,2.712,2.712,0,0,0,1.791,8.7l.007,0a2.584,2.584,0,0,0,.944.178c1.527,0,3.087-1.286,3.887-3.2a5.341,5.341,0,0,0,.166-3.975Z" transform="translate(19.545 5.777)" fill="#17c3b2"></path>
      <path id="Caminho_847-13" data-name="Caminho 847" d="M16.7,5.864a5.916,5.916,0,0,1-2.236-1.91C12.978,1.488,12.081,0,9.728,0S6.476,1.488,4.987,3.953A5.931,5.931,0,0,1,2.746,5.867,5.032,5.032,0,0,0,.258,8.319,3.716,3.716,0,0,0,0,9.708a3.549,3.549,0,0,0,3.465,3.62,10.662,10.662,0,0,0,3.145-.7,10.935,10.935,0,0,1,3.124-.707,10.867,10.867,0,0,1,3.118.707,10.646,10.646,0,0,0,3.14.7,3.547,3.547,0,0,0,3.459-3.62,3.72,3.72,0,0,0-.264-1.388A5.032,5.032,0,0,0,16.7,5.864Z" transform="translate(3.596 9.774)" fill="#17c3b2"></path>
      <path id="Caminho_848-13" data-name="Caminho 848" d="M1.223,7.821A3.067,3.067,0,0,0,3.584,9.107a2.381,2.381,0,0,0,.352-.026c1.8-.265,2.917-2.458,2.55-5a5.887,5.887,0,0,0-1.154-2.8A3.066,3.066,0,0,0,2.971,0a2.381,2.381,0,0,0-.352.026C.822.291-.3,2.484.07,5.023a5.869,5.869,0,0,0,1.153,2.8Z" transform="translate(6.216 0.002)" fill="#17c3b2"></path>
      <path id="Caminho_849-13" data-name="Caminho 849" d="M2.62,9.081a2.381,2.381,0,0,0,.351.026A3.067,3.067,0,0,0,5.332,7.822a5.9,5.9,0,0,0,1.152-2.8c.367-2.539-.753-4.732-2.55-5A2.381,2.381,0,0,0,3.583,0a3.073,3.073,0,0,0-2.36,1.285A5.878,5.878,0,0,0,.07,4.086c-.367,2.539.753,4.732,2.55,5Z" transform="translate(13.878 0)" fill="#17c3b2"></path>
      <path id="Caminho_850-13" data-name="Caminho 850" d="M5.306,8.706l.008,0A2.709,2.709,0,0,0,6.8,7.178,5.326,5.326,0,0,0,6.621,3.2C5.825,1.286,4.266,0,2.74,0A2.576,2.576,0,0,0,1.8.178l-.008,0A2.7,2.7,0,0,0,.308,1.707,5.326,5.326,0,0,0,.482,5.685c.8,1.913,2.356,3.2,3.881,3.2a2.576,2.576,0,0,0,.942-.178Z" transform="translate(0 5.777)" fill="#17c3b2"></path>
    </g>
    <g id="Grupo_de_máscara_54" data-name="Grupo de máscara 54" clip-path="url('#clip-path-4')">
      <g id="Grupo_232" data-name="Grupo 232" transform="translate(602.42 2791.938) rotate(-150)">
        <g id="Grupo_231" data-name="Grupo 231" transform="translate(0 0)" clip-path="url('#clip-path-5')">
          <path id="Caminho_902" data-name="Caminho 902" d="M1206.29,173.594c-71.3,34.439-230.085,89.836-399.412,8.346-26.762-12.88-50.585-31-71.327-52.258a428.475,428.475,0,0,0-92.881-72.1C437.621-60.8,175.566,9.2,57.351,213.958S9.54,680.654,214.589,799.039A428.725,428.725,0,0,0,727.308,735.91a250.84,250.84,0,0,1,82.2-53.218c57.457-22.727,147.43-41.265,262.652-10.645,50.276,13.362,94.833,42.234,128.745,81.682a427.312,427.312,0,0,0,110.967,91.846C1516.93,963.965,1778.988,893.956,1897.2,689.2s47.813-466.7-157.245-585.086a428.855,428.855,0,0,0-485.214,38.645,246.853,246.853,0,0,1-48.453,30.833" transform="translate(0 0.001)" fill="#004075"></path>
        </g>
      </g>
    </g>
  </g>
</svg>
