<svg xmlns="http://www.w3.org/2000/svg" xmlns:xlink="http://www.w3.org/1999/xlink" width="376" height="4645" viewBox="0 0 376 4645">
  <defs>
    <clipPath id="clip-path">
      <rect id="Retângulo_233" data-name="Retângulo 233" width="376" height="4645" fill="#fff"></rect>
    </clipPath>
    <clipPath id="clip-path-2">
      <rect id="Retângulo_235" data-name="Retângulo 235" width="376" height="972" transform="translate(0 1742)" fill="#fff"></rect>
    </clipPath>
  </defs>
  <g id="fundo_mobile" data-name="fundo mobile" clip-path="url('#clip-path')">
    <path id="União_5" data-name="União 5" d="M-780.151,1285.414H-1874.285V453.382s-175.5-74.321-148.922-120.062-176.2-63.1,133.945-93.073,332.615,34.705,536.679,66.256,373.069-25.24,476.182-113.731S-780.151,0-780.151,0Z" transform="translate(1447.296 3491.5)" fill="#eefffd" opacity="0.57"></path>
    <g id="Grupo_232" data-name="Grupo 232">
      <g id="União_3" data-name="União 3" transform="matrix(0.259, -0.966, 0.966, 0.259, 5.066, 444.603)" fill="none">
        <path d="M493.648,544.641c-10.783-16.735-85.518-124.07-223.079-114.9q-10.4.694-18.874.5a207.3,207.3,0,0,1-38.569,3.332C96.218,432.779.8,335.076.005,215.349S93.334-.791,210.241,0C312.027.7,397.526,74.862,418.464,173.053c10.049,21.427,54.454,98.592,177.159,111.138a204.914,204.914,0,0,1,97.015-23.481c116.907.8,212.324,98.5,213.12,218.226S812.429,695.076,695.523,694.28C601.992,693.643,522.219,630.987,493.648,544.641Z" stroke="none"></path>
        <path d="M 696.9598388671875 686.2847290039062 C 750.115234375 686.2847290039062 800.138427734375 665.397216796875 837.8143920898438 627.4697875976562 C 876.845458984375 588.1782836914062 898.134033203125 535.4469604492188 897.7586669921875 478.9893493652344 C 896.9920654296875 363.8058166503906 804.9509887695312 269.4747619628906 692.5833740234375 268.7095642089844 L 691.2020874023438 268.7048645019531 C 658.7664184570312 268.7048645019531 627.8604125976562 276.2981567382812 599.342529296875 291.27392578125 L 597.2079467773438 292.3948669433594 L 594.8094482421875 292.1495666503906 C 468.7660522460938 279.2626342773438 422.4223022460938 200.3340454101562 411.2207641601562 176.4502716064453 L 410.8309936523438 175.6193389892578 L 410.6395874023438 174.7216949462891 C 390.1793518066406 78.77086639404297 305.8765258789062 8.656277656555176 210.1865386962891 8.004630088806152 L 208.8038330078125 7.999924659729004 C 155.6481781005859 7.999924659729004 105.625 28.88757133483887 67.94876861572266 66.81510162353516 C 28.91782760620117 106.1066284179688 7.629356384277344 158.8379211425781 8.004768371582031 215.2953338623047 C 8.771121025085449 330.4788513183594 100.8120651245117 424.8099365234375 213.1800689697266 425.5751037597656 L 214.5617065429688 425.5798034667969 C 226.5615844726562 425.5796813964844 238.5725402832031 424.5006408691406 250.2612457275391 422.3724975585938 L 251.0567626953125 422.2276916503906 L 255.4306488037109 422.2822875976562 C 259.9165344238281 422.2822875976562 264.7843017578125 422.1122741699219 270.0362854003906 421.7620544433594 C 275.8427734375 421.374755859375 281.5228881835938 421.189208984375 287.1123046875 421.189208984375 C 417.0365295410156 421.189208984375 487.5556945800781 520.416259765625 500.3728942871094 540.3076782226562 L 500.9237060546875 541.1624145507812 L 501.2431335449219 542.1278076171875 C 529.5750122070312 627.751220703125 607.6718139648438 685.6815795898438 695.576904296875 686.280029296875 L 696.9598388671875 686.2847290039062 M 696.9597778320312 694.2847290039062 C 696.475341796875 694.2847290039062 696.0077514648438 694.2830810546875 695.5225219726562 694.27978515625 C 601.9918212890625 693.6431274414062 522.218994140625 630.9867553710938 493.6480712890625 544.640869140625 C 482.8647766113281 527.9059448242188 408.1294860839844 420.5712585449219 270.5686645507812 429.7442626953125 C 263.6319580078125 430.2070007324219 257.3436584472656 430.364013671875 251.6941833496094 430.2431030273438 C 239.1974945068359 432.518310546875 226.3043518066406 433.6649169921875 213.1251220703125 433.5748596191406 C 96.21841430664062 432.7788696289062 0.8014741539955139 335.0755615234375 0.005003561731427908 215.3485107421875 C -0.7913494110107422 95.6214599609375 93.33388519287109 -0.7911286354064941 210.2408905029297 0.004865607712417841 C 312.0274658203125 0.6979244351387024 397.5256042480469 74.86168670654297 418.4637145996094 173.0533294677734 C 428.5128784179688 194.4800415039062 472.9178161621094 271.6454467773438 595.6231079101562 284.1911010742188 C 624.6201171875 268.9638061523438 657.6063232421875 260.4721374511719 692.63818359375 260.7098083496094 C 809.5448608398438 261.5057983398438 904.9617309570312 359.2091064453125 905.7584228515625 478.9361572265625 C 906.5513305664062 598.1663208007812 813.1915893554688 694.2847290039062 696.9597778320312 694.2847290039062 Z" stroke="none" fill="#fff"></path>
      </g>
      <g id="paw" transform="translate(157.329 3403.998) rotate(135)">
        <path id="Caminho_846" data-name="Caminho 846" d="M13.034,3.275A5.213,5.213,0,0,0,10.193.347L10.177.341A4.949,4.949,0,0,0,8.366,0H8.3C5.4.044,2.434,2.51.929,6.137a10.2,10.2,0,0,0-.339,7.63A5.2,5.2,0,0,0,3.436,16.7l.014.006a4.957,4.957,0,0,0,1.81.341c2.93,0,5.922-2.466,7.456-6.141a10.245,10.245,0,0,0,.318-7.626Z" transform="translate(37.492 11.081)" fill="#f8f8f8"></path>
        <path id="Caminho_847" data-name="Caminho 847" d="M32.035,11.249a11.349,11.349,0,0,1-4.289-3.664C24.9,2.854,23.174,0,18.662,0s-6.238,2.854-9.1,7.583a11.377,11.377,0,0,1-4.3,3.672C3.342,12.413,1.354,13.606.5,15.959A7.129,7.129,0,0,0,0,18.622a6.808,6.808,0,0,0,6.647,6.944,20.452,20.452,0,0,0,6.032-1.348,20.977,20.977,0,0,1,5.993-1.356,20.846,20.846,0,0,1,5.981,1.356,20.421,20.421,0,0,0,6.023,1.345,6.8,6.8,0,0,0,6.635-6.944,7.136,7.136,0,0,0-.506-2.663c-.859-2.354-2.848-3.551-4.772-4.707Z" transform="translate(6.898 18.749)" fill="#f8f8f8"></path>
        <path id="Caminho_848" data-name="Caminho 848" d="M2.345,15a5.883,5.883,0,0,0,4.529,2.466,4.568,4.568,0,0,0,.674-.05c3.448-.507,5.6-4.714,4.891-9.586a11.293,11.293,0,0,0-2.213-5.372A5.881,5.881,0,0,0,5.7,0a4.568,4.568,0,0,0-.674.05C1.577.557-.571,4.764.134,9.636A11.258,11.258,0,0,0,2.345,15Z" transform="translate(11.924 0.003)" fill="#f8f8f8"></path>
        <path id="Caminho_849" data-name="Caminho 849" d="M5.025,17.421a4.568,4.568,0,0,0,.674.05A5.883,5.883,0,0,0,10.228,15a11.315,11.315,0,0,0,2.21-5.369c.7-4.87-1.444-9.077-4.891-9.586A4.567,4.567,0,0,0,6.873,0,5.894,5.894,0,0,0,2.345,2.465,11.275,11.275,0,0,0,.134,7.838c-.7,4.87,1.444,9.077,4.891,9.584Z" transform="translate(26.623 0)" fill="#f8f8f8"></path>
        <path id="Caminho_850" data-name="Caminho 850" d="M10.178,16.7l.015-.006a5.2,5.2,0,0,0,2.843-2.927A10.217,10.217,0,0,0,12.7,6.137C11.174,2.466,8.183,0,5.256,0a4.941,4.941,0,0,0-1.81.341L3.43.347A5.187,5.187,0,0,0,.59,3.274a10.217,10.217,0,0,0,.335,7.632c1.527,3.669,4.519,6.137,7.445,6.137a4.941,4.941,0,0,0,1.807-.341Z" transform="translate(0 11.081)" fill="#f8f8f8"></path>
      </g>
      <g id="paw-2" data-name="paw" transform="translate(212.72 2890.114) rotate(-45)" opacity="0.04">
        <path id="Caminho_846-2" data-name="Caminho 846" d="M28.446,7.148a11.377,11.377,0,0,0-6.2-6.391L22.211.744A10.8,10.8,0,0,0,18.26,0h-.149C11.78.1,5.313,5.478,2.027,13.393c-2.41,5.789-2.688,12.015-.741,16.653A11.354,11.354,0,0,0,7.5,36.44l.03.013a10.818,10.818,0,0,0,3.951.744c6.394,0,12.924-5.382,16.273-13.4,2.38-5.782,2.642-12,.694-16.643Z" transform="translate(81.826 24.184)" fill="#707070"></path>
        <path id="Caminho_847-2" data-name="Caminho 847" d="M69.915,24.551c-3.653-2.2-7.1-4.272-9.36-8C54.333,6.229,50.578,0,40.729,0S27.114,6.229,20.879,16.551c-2.258,3.733-5.72,5.812-9.383,8.014C7.294,27.09,2.956,29.7,1.082,34.83A15.559,15.559,0,0,0,0,40.642C0,49,6.51,55.8,14.508,55.8c4.126,0,8.517-1.428,13.165-2.942C32.139,51.4,36.761,49.9,40.752,49.9s8.6,1.5,13.053,2.959c4.639,1.508,9.009,2.936,13.145,2.936,7.984,0,14.481-6.8,14.481-15.155a15.575,15.575,0,0,0-1.1-5.812c-1.875-5.138-6.216-7.75-10.414-10.272Z" transform="translate(15.054 40.92)" fill="#707070"></path>
        <path id="Caminho_848-2" data-name="Caminho 848" d="M5.118,32.744c2.767,3.471,6.275,5.382,9.885,5.382a9.97,9.97,0,0,0,1.472-.109C24,36.91,28.688,27.729,27.151,17.1A24.646,24.646,0,0,0,22.32,5.372C19.56,1.908,16.045,0,12.438,0a9.97,9.97,0,0,0-1.472.109C3.442,1.217-1.246,10.4.291,21.03a24.57,24.57,0,0,0,4.827,11.71Z" transform="translate(26.024 0.007)" fill="#707070"></path>
        <path id="Caminho_849-2" data-name="Caminho 849" d="M10.967,38.021a9.968,9.968,0,0,0,1.471.109c3.61,0,7.118-1.911,9.885-5.382A24.7,24.7,0,0,0,27.147,21.03C28.685,10.4,24,1.22,16.472.109A9.968,9.968,0,0,0,15,0C11.393.007,7.879,1.914,5.118,5.379A24.609,24.609,0,0,0,.291,17.106c-1.537,10.629,3.151,19.81,10.676,20.918Z" transform="translate(58.103 0)" fill="#707070"></path>
        <path id="Caminho_850-2" data-name="Caminho 850" d="M22.213,36.45l.033-.013a11.341,11.341,0,0,0,6.206-6.387c1.947-4.648,1.673-10.867-.731-16.656C24.388,5.382,17.858,0,11.471,0A10.785,10.785,0,0,0,7.52.744L7.487.757a11.321,11.321,0,0,0-6.2,6.387C-.659,11.793-.385,18.012,2.019,23.8c3.333,8.007,9.862,13.393,16.25,13.393a10.784,10.784,0,0,0,3.944-.744Z" transform="translate(0 24.184)" fill="#707070"></path>
      </g>
      <g id="paw-3" data-name="paw" transform="translate(157.329 1432.336) rotate(135)">
        <path id="Caminho_846-3" data-name="Caminho 846" d="M13.034,3.275A5.213,5.213,0,0,0,10.193.347L10.177.341A4.949,4.949,0,0,0,8.366,0H8.3C5.4.044,2.434,2.51.929,6.137a10.2,10.2,0,0,0-.339,7.63A5.2,5.2,0,0,0,3.436,16.7l.014.006a4.957,4.957,0,0,0,1.81.341c2.93,0,5.922-2.466,7.456-6.141a10.245,10.245,0,0,0,.318-7.626Z" transform="translate(37.492 11.081)" fill="#f8f8f8"></path>
        <path id="Caminho_847-3" data-name="Caminho 847" d="M32.035,11.249a11.349,11.349,0,0,1-4.289-3.664C24.9,2.854,23.174,0,18.662,0s-6.238,2.854-9.1,7.583a11.377,11.377,0,0,1-4.3,3.672C3.342,12.413,1.354,13.606.5,15.959A7.129,7.129,0,0,0,0,18.622a6.808,6.808,0,0,0,6.647,6.944,20.452,20.452,0,0,0,6.032-1.348,20.977,20.977,0,0,1,5.993-1.356,20.846,20.846,0,0,1,5.981,1.356,20.421,20.421,0,0,0,6.023,1.345,6.8,6.8,0,0,0,6.635-6.944,7.136,7.136,0,0,0-.506-2.663c-.859-2.354-2.848-3.551-4.772-4.707Z" transform="translate(6.898 18.749)" fill="#f8f8f8"></path>
        <path id="Caminho_848-3" data-name="Caminho 848" d="M2.345,15a5.883,5.883,0,0,0,4.529,2.466,4.568,4.568,0,0,0,.674-.05c3.448-.507,5.6-4.714,4.891-9.586a11.293,11.293,0,0,0-2.213-5.372A5.881,5.881,0,0,0,5.7,0a4.568,4.568,0,0,0-.674.05C1.577.557-.571,4.764.134,9.636A11.258,11.258,0,0,0,2.345,15Z" transform="translate(11.924 0.003)" fill="#f8f8f8"></path>
        <path id="Caminho_849-3" data-name="Caminho 849" d="M5.025,17.421a4.568,4.568,0,0,0,.674.05A5.883,5.883,0,0,0,10.228,15a11.315,11.315,0,0,0,2.21-5.369c.7-4.87-1.444-9.077-4.891-9.586A4.567,4.567,0,0,0,6.873,0,5.894,5.894,0,0,0,2.345,2.465,11.275,11.275,0,0,0,.134,7.838c-.7,4.87,1.444,9.077,4.891,9.584Z" transform="translate(26.623 0)" fill="#f8f8f8"></path>
        <path id="Caminho_850-3" data-name="Caminho 850" d="M10.178,16.7l.015-.006a5.2,5.2,0,0,0,2.843-2.927A10.217,10.217,0,0,0,12.7,6.137C11.174,2.466,8.183,0,5.256,0a4.941,4.941,0,0,0-1.81.341L3.43.347A5.187,5.187,0,0,0,.59,3.274a10.217,10.217,0,0,0,.335,7.632c1.527,3.669,4.519,6.137,7.445,6.137a4.941,4.941,0,0,0,1.807-.341Z" transform="translate(0 11.081)" fill="#f8f8f8"></path>
      </g>
      <g id="paw-4" data-name="paw" transform="translate(214.447 998.948) rotate(45)" opacity="0.04">
        <path id="Caminho_846-4" data-name="Caminho 846" d="M13.034,3.275A5.213,5.213,0,0,0,10.193.347L10.177.341A4.949,4.949,0,0,0,8.366,0H8.3C5.4.044,2.434,2.51.929,6.137a10.2,10.2,0,0,0-.339,7.63A5.2,5.2,0,0,0,3.436,16.7l.014.006a4.957,4.957,0,0,0,1.81.341c2.93,0,5.922-2.466,7.456-6.141a10.245,10.245,0,0,0,.318-7.626Z" transform="translate(37.492 11.081)" fill="#707070"></path>
        <path id="Caminho_847-4" data-name="Caminho 847" d="M32.035,11.249a11.349,11.349,0,0,1-4.289-3.664C24.9,2.854,23.174,0,18.662,0s-6.238,2.854-9.1,7.583a11.377,11.377,0,0,1-4.3,3.672C3.342,12.413,1.354,13.606.5,15.959A7.129,7.129,0,0,0,0,18.622a6.808,6.808,0,0,0,6.647,6.944,20.452,20.452,0,0,0,6.032-1.348,20.977,20.977,0,0,1,5.993-1.356,20.846,20.846,0,0,1,5.981,1.356,20.421,20.421,0,0,0,6.023,1.345,6.8,6.8,0,0,0,6.635-6.944,7.136,7.136,0,0,0-.506-2.663c-.859-2.354-2.848-3.551-4.772-4.707Z" transform="translate(6.898 18.749)" fill="#707070"></path>
        <path id="Caminho_848-4" data-name="Caminho 848" d="M2.345,15a5.883,5.883,0,0,0,4.529,2.466,4.568,4.568,0,0,0,.674-.05c3.448-.507,5.6-4.714,4.891-9.586a11.293,11.293,0,0,0-2.213-5.372A5.881,5.881,0,0,0,5.7,0a4.568,4.568,0,0,0-.674.05C1.577.557-.571,4.764.134,9.636A11.258,11.258,0,0,0,2.345,15Z" transform="translate(11.924 0.003)" fill="#707070"></path>
        <path id="Caminho_849-4" data-name="Caminho 849" d="M5.025,17.421a4.568,4.568,0,0,0,.674.05A5.883,5.883,0,0,0,10.228,15a11.315,11.315,0,0,0,2.21-5.369c.7-4.87-1.444-9.077-4.891-9.586A4.567,4.567,0,0,0,6.873,0,5.894,5.894,0,0,0,2.345,2.465,11.275,11.275,0,0,0,.134,7.838c-.7,4.87,1.444,9.077,4.891,9.584Z" transform="translate(26.623 0)" fill="#707070"></path>
        <path id="Caminho_850-4" data-name="Caminho 850" d="M10.178,16.7l.015-.006a5.2,5.2,0,0,0,2.843-2.927A10.217,10.217,0,0,0,12.7,6.137C11.174,2.466,8.183,0,5.256,0a4.941,4.941,0,0,0-1.81.341L3.43.347A5.187,5.187,0,0,0,.59,3.274a10.217,10.217,0,0,0,.335,7.632c1.527,3.669,4.519,6.137,7.445,6.137a4.941,4.941,0,0,0,1.807-.341Z" transform="translate(0 11.081)" fill="#707070"></path>
      </g>
      <g id="paw-5" data-name="paw" transform="translate(201.577 623.479) rotate(45)" opacity="0.11">
        <path id="Caminho_846-5" data-name="Caminho 846" d="M13.034,3.275A5.213,5.213,0,0,0,10.193.347L10.177.341A4.949,4.949,0,0,0,8.366,0H8.3C5.4.044,2.434,2.51.929,6.137a10.2,10.2,0,0,0-.339,7.63A5.2,5.2,0,0,0,3.436,16.7l.014.006a4.957,4.957,0,0,0,1.81.341c2.93,0,5.922-2.466,7.456-6.141a10.245,10.245,0,0,0,.318-7.626Z" transform="translate(37.492 11.081)" fill="#17c3b2"></path>
        <path id="Caminho_847-5" data-name="Caminho 847" d="M32.035,11.249a11.349,11.349,0,0,1-4.289-3.664C24.9,2.854,23.174,0,18.662,0s-6.238,2.854-9.1,7.583a11.377,11.377,0,0,1-4.3,3.672C3.342,12.413,1.354,13.606.5,15.959A7.129,7.129,0,0,0,0,18.622a6.808,6.808,0,0,0,6.647,6.944,20.452,20.452,0,0,0,6.032-1.348,20.977,20.977,0,0,1,5.993-1.356,20.846,20.846,0,0,1,5.981,1.356,20.421,20.421,0,0,0,6.023,1.345,6.8,6.8,0,0,0,6.635-6.944,7.136,7.136,0,0,0-.506-2.663c-.859-2.354-2.848-3.551-4.772-4.707Z" transform="translate(6.898 18.749)" fill="#17c3b2"></path>
        <path id="Caminho_848-5" data-name="Caminho 848" d="M2.345,15a5.883,5.883,0,0,0,4.529,2.466,4.568,4.568,0,0,0,.674-.05c3.448-.507,5.6-4.714,4.891-9.586a11.293,11.293,0,0,0-2.213-5.372A5.881,5.881,0,0,0,5.7,0a4.568,4.568,0,0,0-.674.05C1.577.557-.571,4.764.134,9.636A11.258,11.258,0,0,0,2.345,15Z" transform="translate(11.924 0.003)" fill="#17c3b2"></path>
        <path id="Caminho_849-5" data-name="Caminho 849" d="M5.025,17.421a4.568,4.568,0,0,0,.674.05A5.883,5.883,0,0,0,10.228,15a11.315,11.315,0,0,0,2.21-5.369c.7-4.87-1.444-9.077-4.891-9.586A4.567,4.567,0,0,0,6.873,0,5.894,5.894,0,0,0,2.345,2.465,11.275,11.275,0,0,0,.134,7.838c-.7,4.87,1.444,9.077,4.891,9.584Z" transform="translate(26.623 0)" fill="#17c3b2"></path>
        <path id="Caminho_850-5" data-name="Caminho 850" d="M10.178,16.7l.015-.006a5.2,5.2,0,0,0,2.843-2.927A10.217,10.217,0,0,0,12.7,6.137C11.174,2.466,8.183,0,5.256,0a4.941,4.941,0,0,0-1.81.341L3.43.347A5.187,5.187,0,0,0,.59,3.274a10.217,10.217,0,0,0,.335,7.632c1.527,3.669,4.519,6.137,7.445,6.137a4.941,4.941,0,0,0,1.807-.341Z" transform="translate(0 11.081)" fill="#17c3b2"></path>
      </g>
      <g id="paw-6" data-name="paw" transform="translate(92.741 991.561) rotate(135)" opacity="0.04">
        <path id="Caminho_846-6" data-name="Caminho 846" d="M13.034,3.275A5.213,5.213,0,0,0,10.193.347L10.177.341A4.949,4.949,0,0,0,8.366,0H8.3C5.4.044,2.434,2.51.929,6.137a10.2,10.2,0,0,0-.339,7.63A5.2,5.2,0,0,0,3.436,16.7l.014.006a4.957,4.957,0,0,0,1.81.341c2.93,0,5.922-2.466,7.456-6.141a10.245,10.245,0,0,0,.318-7.626Z" transform="translate(37.492 11.081)" fill="#707070"></path>
        <path id="Caminho_847-6" data-name="Caminho 847" d="M32.035,11.249a11.349,11.349,0,0,1-4.289-3.664C24.9,2.854,23.174,0,18.662,0s-6.238,2.854-9.1,7.583a11.377,11.377,0,0,1-4.3,3.672C3.342,12.413,1.354,13.606.5,15.959A7.129,7.129,0,0,0,0,18.622a6.808,6.808,0,0,0,6.647,6.944,20.452,20.452,0,0,0,6.032-1.348,20.977,20.977,0,0,1,5.993-1.356,20.846,20.846,0,0,1,5.981,1.356,20.421,20.421,0,0,0,6.023,1.345,6.8,6.8,0,0,0,6.635-6.944,7.136,7.136,0,0,0-.506-2.663c-.859-2.354-2.848-3.551-4.772-4.707Z" transform="translate(6.898 18.749)" fill="#707070"></path>
        <path id="Caminho_848-6" data-name="Caminho 848" d="M2.345,15a5.883,5.883,0,0,0,4.529,2.466,4.568,4.568,0,0,0,.674-.05c3.448-.507,5.6-4.714,4.891-9.586a11.293,11.293,0,0,0-2.213-5.372A5.881,5.881,0,0,0,5.7,0a4.568,4.568,0,0,0-.674.05C1.577.557-.571,4.764.134,9.636A11.258,11.258,0,0,0,2.345,15Z" transform="translate(11.924 0.003)" fill="#707070"></path>
        <path id="Caminho_849-6" data-name="Caminho 849" d="M5.025,17.421a4.568,4.568,0,0,0,.674.05A5.883,5.883,0,0,0,10.228,15a11.315,11.315,0,0,0,2.21-5.369c.7-4.87-1.444-9.077-4.891-9.586A4.567,4.567,0,0,0,6.873,0,5.894,5.894,0,0,0,2.345,2.465,11.275,11.275,0,0,0,.134,7.838c-.7,4.87,1.444,9.077,4.891,9.584Z" transform="translate(26.623 0)" fill="#707070"></path>
        <path id="Caminho_850-6" data-name="Caminho 850" d="M10.178,16.7l.015-.006a5.2,5.2,0,0,0,2.843-2.927A10.217,10.217,0,0,0,12.7,6.137C11.174,2.466,8.183,0,5.256,0a4.941,4.941,0,0,0-1.81.341L3.43.347A5.187,5.187,0,0,0,.59,3.274a10.217,10.217,0,0,0,.335,7.632c1.527,3.669,4.519,6.137,7.445,6.137a4.941,4.941,0,0,0,1.807-.341Z" transform="translate(0 11.081)" fill="#707070"></path>
      </g>
      <g id="paw-7" data-name="paw" transform="matrix(0.259, -0.966, 0.966, 0.259, 318.964, 1954.891)" opacity="0.04">
        <path id="Caminho_846-7" data-name="Caminho 846" d="M13.034,3.275A5.213,5.213,0,0,0,10.193.347L10.177.341A4.949,4.949,0,0,0,8.366,0H8.3C5.4.044,2.434,2.51.929,6.137a10.2,10.2,0,0,0-.339,7.63A5.2,5.2,0,0,0,3.436,16.7l.014.006a4.957,4.957,0,0,0,1.81.341c2.93,0,5.922-2.466,7.456-6.141a10.245,10.245,0,0,0,.318-7.626Z" transform="translate(37.492 11.081)" fill="#707070"></path>
        <path id="Caminho_847-7" data-name="Caminho 847" d="M32.035,11.249a11.349,11.349,0,0,1-4.289-3.664C24.9,2.854,23.174,0,18.662,0s-6.238,2.854-9.1,7.583a11.377,11.377,0,0,1-4.3,3.672C3.342,12.413,1.354,13.606.5,15.959A7.129,7.129,0,0,0,0,18.622a6.808,6.808,0,0,0,6.647,6.944,20.452,20.452,0,0,0,6.032-1.348,20.977,20.977,0,0,1,5.993-1.356,20.846,20.846,0,0,1,5.981,1.356,20.421,20.421,0,0,0,6.023,1.345,6.8,6.8,0,0,0,6.635-6.944,7.136,7.136,0,0,0-.506-2.663c-.859-2.354-2.848-3.551-4.772-4.707Z" transform="translate(6.898 18.749)" fill="#707070"></path>
        <path id="Caminho_848-7" data-name="Caminho 848" d="M2.345,15a5.883,5.883,0,0,0,4.529,2.466,4.568,4.568,0,0,0,.674-.05c3.448-.507,5.6-4.714,4.891-9.586a11.293,11.293,0,0,0-2.213-5.372A5.881,5.881,0,0,0,5.7,0a4.568,4.568,0,0,0-.674.05C1.577.557-.571,4.764.134,9.636A11.258,11.258,0,0,0,2.345,15Z" transform="translate(11.924 0.003)" fill="#707070"></path>
        <path id="Caminho_849-7" data-name="Caminho 849" d="M5.025,17.421a4.568,4.568,0,0,0,.674.05A5.883,5.883,0,0,0,10.228,15a11.315,11.315,0,0,0,2.21-5.369c.7-4.87-1.444-9.077-4.891-9.586A4.567,4.567,0,0,0,6.873,0,5.894,5.894,0,0,0,2.345,2.465,11.275,11.275,0,0,0,.134,7.838c-.7,4.87,1.444,9.077,4.891,9.584Z" transform="translate(26.623 0)" fill="#707070"></path>
        <path id="Caminho_850-7" data-name="Caminho 850" d="M10.178,16.7l.015-.006a5.2,5.2,0,0,0,2.843-2.927A10.217,10.217,0,0,0,12.7,6.137C11.174,2.466,8.183,0,5.256,0a4.941,4.941,0,0,0-1.81.341L3.43.347A5.187,5.187,0,0,0,.59,3.274a10.217,10.217,0,0,0,.335,7.632c1.527,3.669,4.519,6.137,7.445,6.137a4.941,4.941,0,0,0,1.807-.341Z" transform="translate(0 11.081)" fill="#707070"></path>
      </g>
      <g id="paw-8" data-name="paw" transform="matrix(-0.259, 0.966, -0.966, -0.259, 136.521, 1751.234)" opacity="0.04">
        <path id="Caminho_846-8" data-name="Caminho 846" d="M28.446,7.148a11.377,11.377,0,0,0-6.2-6.391L22.211.744A10.8,10.8,0,0,0,18.26,0h-.149C11.78.1,5.313,5.478,2.027,13.393c-2.41,5.789-2.688,12.015-.741,16.653A11.354,11.354,0,0,0,7.5,36.44l.03.013a10.818,10.818,0,0,0,3.951.744c6.394,0,12.924-5.382,16.273-13.4,2.38-5.782,2.642-12,.694-16.643Z" transform="translate(81.826 24.184)" fill="#707070"></path>
        <path id="Caminho_847-8" data-name="Caminho 847" d="M69.915,24.551c-3.653-2.2-7.1-4.272-9.36-8C54.333,6.229,50.578,0,40.729,0S27.114,6.229,20.879,16.551c-2.258,3.733-5.72,5.812-9.383,8.014C7.294,27.09,2.956,29.7,1.082,34.83A15.559,15.559,0,0,0,0,40.642C0,49,6.51,55.8,14.508,55.8c4.126,0,8.517-1.428,13.165-2.942C32.139,51.4,36.761,49.9,40.752,49.9s8.6,1.5,13.053,2.959c4.639,1.508,9.009,2.936,13.145,2.936,7.984,0,14.481-6.8,14.481-15.155a15.575,15.575,0,0,0-1.1-5.812c-1.875-5.138-6.216-7.75-10.414-10.272Z" transform="translate(15.054 40.92)" fill="#707070"></path>
        <path id="Caminho_848-8" data-name="Caminho 848" d="M5.118,32.744c2.767,3.471,6.275,5.382,9.885,5.382a9.97,9.97,0,0,0,1.472-.109C24,36.91,28.688,27.729,27.151,17.1A24.646,24.646,0,0,0,22.32,5.372C19.56,1.908,16.045,0,12.438,0a9.97,9.97,0,0,0-1.472.109C3.442,1.217-1.246,10.4.291,21.03a24.57,24.57,0,0,0,4.827,11.71Z" transform="translate(26.024 0.007)" fill="#707070"></path>
        <path id="Caminho_849-8" data-name="Caminho 849" d="M10.967,38.021a9.968,9.968,0,0,0,1.471.109c3.61,0,7.118-1.911,9.885-5.382A24.7,24.7,0,0,0,27.147,21.03C28.685,10.4,24,1.22,16.472.109A9.968,9.968,0,0,0,15,0C11.393.007,7.879,1.914,5.118,5.379A24.609,24.609,0,0,0,.291,17.106c-1.537,10.629,3.151,19.81,10.676,20.918Z" transform="translate(58.103 0)" fill="#707070"></path>
        <path id="Caminho_850-8" data-name="Caminho 850" d="M22.213,36.45l.033-.013a11.341,11.341,0,0,0,6.206-6.387c1.947-4.648,1.673-10.867-.731-16.656C24.388,5.382,17.858,0,11.471,0A10.785,10.785,0,0,0,7.52.744L7.487.757a11.321,11.321,0,0,0-6.2,6.387C-.659,11.793-.385,18.012,2.019,23.8c3.333,8.007,9.862,13.393,16.25,13.393a10.784,10.784,0,0,0,3.944-.744Z" transform="translate(0 24.184)" fill="#707070"></path>
      </g>
      <g id="paw-9" data-name="paw" transform="translate(35.457 79.821) rotate(45)" opacity="0.11">
        <path id="Caminho_846-9" data-name="Caminho 846" d="M6.795,1.707A2.718,2.718,0,0,0,5.314.181l-.009,0A2.58,2.58,0,0,0,4.361,0H4.326C2.814.023,1.269,1.309.484,3.2A5.318,5.318,0,0,0,.307,7.177,2.712,2.712,0,0,0,1.791,8.7l.007,0a2.584,2.584,0,0,0,.944.178c1.527,0,3.087-1.286,3.887-3.2a5.341,5.341,0,0,0,.166-3.975Z" transform="translate(19.545 5.777)" fill="#17c3b2"></path>
        <path id="Caminho_847-9" data-name="Caminho 847" d="M16.7,5.864a5.916,5.916,0,0,1-2.236-1.91C12.978,1.488,12.081,0,9.728,0S6.476,1.488,4.987,3.953A5.931,5.931,0,0,1,2.746,5.867,5.032,5.032,0,0,0,.258,8.319,3.716,3.716,0,0,0,0,9.708a3.549,3.549,0,0,0,3.465,3.62,10.662,10.662,0,0,0,3.145-.7,10.935,10.935,0,0,1,3.124-.707,10.867,10.867,0,0,1,3.118.707,10.646,10.646,0,0,0,3.14.7,3.547,3.547,0,0,0,3.459-3.62,3.72,3.72,0,0,0-.264-1.388A5.032,5.032,0,0,0,16.7,5.864Z" transform="translate(3.596 9.774)" fill="#17c3b2"></path>
        <path id="Caminho_848-9" data-name="Caminho 848" d="M1.223,7.821A3.067,3.067,0,0,0,3.584,9.107a2.381,2.381,0,0,0,.352-.026c1.8-.265,2.917-2.458,2.55-5a5.887,5.887,0,0,0-1.154-2.8A3.066,3.066,0,0,0,2.971,0a2.381,2.381,0,0,0-.352.026C.822.291-.3,2.484.07,5.023a5.869,5.869,0,0,0,1.153,2.8Z" transform="translate(6.216 0.002)" fill="#17c3b2"></path>
        <path id="Caminho_849-9" data-name="Caminho 849" d="M2.62,9.081a2.381,2.381,0,0,0,.351.026A3.067,3.067,0,0,0,5.332,7.822a5.9,5.9,0,0,0,1.152-2.8c.367-2.539-.753-4.732-2.55-5A2.381,2.381,0,0,0,3.583,0a3.073,3.073,0,0,0-2.36,1.285A5.878,5.878,0,0,0,.07,4.086c-.367,2.539.753,4.732,2.55,5Z" transform="translate(13.878 0)" fill="#17c3b2"></path>
        <path id="Caminho_850-9" data-name="Caminho 850" d="M5.306,8.706l.008,0A2.709,2.709,0,0,0,6.8,7.178,5.326,5.326,0,0,0,6.621,3.2C5.825,1.286,4.266,0,2.74,0A2.576,2.576,0,0,0,1.8.178l-.008,0A2.7,2.7,0,0,0,.308,1.707,5.326,5.326,0,0,0,.482,5.685c.8,1.913,2.356,3.2,3.881,3.2a2.576,2.576,0,0,0,.942-.178Z" transform="translate(0 5.777)" fill="#17c3b2"></path>
      </g>
    </g>
    <g id="Grupo_de_máscara_53" data-name="Grupo de máscara 53" clip-path="url('#clip-path-2')">
      <path id="Caminho_904" data-name="Caminho 904" d="M-.072,335H1094.062v82.221s175.5,61.765,148.922,99.78,176.2,52.441-133.945,77.35S776.424,565.508,572.36,539.287,199.291,560.263,96.178,633.805-.072,794.01-.072,794.01Z" transform="translate(-310.805 2137.877)" fill="#eefffd" opacity="0.57"></path>
      <path id="União_6" data-name="União 6" d="M-1388.029,966.317v0Zm-486.256-10.9V453.382s-175.5-74.321-148.922-120.063-176.2-63.1,133.945-93.074,332.616,34.7,536.679,66.256S-979.514,281.262-876.4,192.77c84.938-72.892,95.253-156.5,96.25-183.71V955.414ZM-780.151,0s.213,3.238,0,9.06Z" transform="translate(1748.028 1517.683)" fill="#eefffd" opacity="0.57"></path>
    </g>
  </g>
</svg>
