<svg xmlns="http://www.w3.org/2000/svg" width="29.516" height="26.564" viewBox="0 0 29.516 26.564">
  <g id="Icon_medical_bed" transform="translate(-2 -3)">
    <path id="Caminho_801" data-name="Caminho 801" d="M13,13.476A1.476,1.476,0,0,1,14.476,12h5.9a1.476,1.476,0,0,1,0,2.952h-5.9A1.476,1.476,0,0,1,13,13.476Z" transform="translate(5.234 4.282)" fill="#40c187" fill-rule="evenodd"></path>
    <path id="Caminho_802" data-name="Caminho 802" d="M3.476,9a1.476,1.476,0,0,1,1.476,1.476V25.234a1.476,1.476,0,0,1-2.952,0V10.476A1.476,1.476,0,0,1,3.476,9Z" transform="translate(0 2.855)" fill="#40c187" fill-rule="evenodd"></path>
    <path id="Caminho_803" data-name="Caminho 803" d="M21.476,9a1.476,1.476,0,0,1,1.476,1.476V25.234a1.476,1.476,0,0,1-2.952,0V10.476A1.476,1.476,0,0,1,21.476,9Z" transform="translate(8.564 2.855)" fill="#40c187" fill-rule="evenodd"></path>
    <path id="Caminho_804" data-name="Caminho 804" d="M14.855,7.952H6V5h8.855Z" transform="translate(1.903 0.952)" fill="#40c187" fill-rule="evenodd"></path>
    <path id="Caminho_805" data-name="Caminho 805" d="M8,11.855V3h2.952v8.855Z" transform="translate(2.855 0)" fill="#40c187" fill-rule="evenodd"></path>
    <path id="Caminho_806" data-name="Caminho 806" d="M2,14H31.516v5.9H2Z" transform="translate(0 5.234)" fill="#40c187" fill-rule="evenodd"></path>
  </g>
</svg>
