<svg xmlns="http://www.w3.org/2000/svg" width="33.346" height="30.012" viewBox="0 0 33.346 30.012">
  <path id="Icon_heart" d="M11.921,6.335a6.536,6.536,0,0,0-6.586,6.484A6.4,6.4,0,0,0,7.158,17.3L18.673,28.97,29.979,17.5l.035-.034a6.411,6.411,0,0,0,2-4.651,6.535,6.535,0,0,0-6.586-6.484,6.607,6.607,0,0,0-5.4,2.764,1.667,1.667,0,0,1-2.715,0A6.607,6.607,0,0,0,11.921,6.335ZM2,12.819A9.942,9.942,0,0,1,18.673,5.626a9.942,9.942,0,0,1,16.673,7.193,9.746,9.746,0,0,1-3.009,7.044L19.86,32.515a1.667,1.667,0,0,1-2.374,0L4.771,19.625A9.739,9.739,0,0,1,2,12.819Z" transform="translate(-2 -3)" fill="#3f3c3c" fill-rule="evenodd"></path>
</svg>
