<svg xmlns="http://www.w3.org/2000/svg" width="42" height="42" viewBox="0 0 42 42">
  <g id="Grupo_99" data-name="Grupo 99" transform="translate(-0.428)">
    <circle id="Elipse_6" data-name="Elipse 6" cx="21" cy="21" r="21" transform="translate(0.428)" fill="#3f3c3c"></circle>
    <path id="instagram" d="M15.328,11.5A3.833,3.833,0,0,0,11.5,7.664,3.833,3.833,0,0,0,7.664,11.5,3.833,3.833,0,0,0,11.5,15.328,3.833,3.833,0,0,0,15.328,11.5Zm2.065,0a5.877,5.877,0,0,1-5.9,5.9,5.877,5.877,0,0,1-5.9-5.9,5.877,5.877,0,0,1,5.9-5.9,5.877,5.877,0,0,1,5.9,5.9ZM19.01,5.359a1.377,1.377,0,1,1-2.35-.973,1.377,1.377,0,0,1,2.35.973ZM11.5,2.065l-1.145-.008q-1.04-.008-1.579,0T7.327,2.1a11.8,11.8,0,0,0-1.542.149,5.949,5.949,0,0,0-1.07.278A3.915,3.915,0,0,0,2.53,4.715a6.007,6.007,0,0,0-.277,1.07A11.8,11.8,0,0,0,2.1,7.327q-.037.906-.045,1.445t0,1.579q.008,1.04.008,1.145t-.008,1.145q-.008,1.04,0,1.579T2.1,15.666a11.8,11.8,0,0,0,.149,1.542,5.971,5.971,0,0,0,.277,1.069,3.915,3.915,0,0,0,2.185,2.185,6.007,6.007,0,0,0,1.07.277,11.8,11.8,0,0,0,1.542.149q.906.037,1.445.045t1.579,0l1.145-.008,1.145.008q1.04.008,1.579,0t1.445-.045a11.8,11.8,0,0,0,1.542-.149,6.007,6.007,0,0,0,1.07-.277,3.915,3.915,0,0,0,2.185-2.185,6.007,6.007,0,0,0,.277-1.07,11.8,11.8,0,0,0,.149-1.542q.037-.906.045-1.445t0-1.579q-.008-1.04-.008-1.145t.008-1.145q.008-1.04,0-1.579T20.89,7.326a11.8,11.8,0,0,0-.149-1.542,5.892,5.892,0,0,0-.278-1.069A3.915,3.915,0,0,0,18.276,2.53a6.007,6.007,0,0,0-1.07-.277A11.8,11.8,0,0,0,15.664,2.1q-.906-.037-1.445-.045t-1.579,0L11.5,2.066Zm11.5,9.43q0,3.428-.075,4.745a7.021,7.021,0,0,1-1.856,4.82,7.021,7.021,0,0,1-4.82,1.856q-1.318.075-4.745.075t-4.745-.075a7.021,7.021,0,0,1-4.82-1.856,7.021,7.021,0,0,1-1.856-4.82Q0,14.924,0,11.5T.075,6.751a7.021,7.021,0,0,1,1.856-4.82A7.021,7.021,0,0,1,6.751.075Q8.068,0,11.5,0t4.745.075a7.021,7.021,0,0,1,4.82,1.856,7.021,7.021,0,0,1,1.856,4.82Q22.992,8.068,22.992,11.5Z" transform="translate(9.113 9.504)" fill="#fff"></path>
  </g>
</svg>
