<svg xmlns="http://www.w3.org/2000/svg" width="76.733" height="79.638"><defs><clipPath id="clip-path"><path id="Ret창ngulo_206" data-name="Ret창ngulo 206" fill="none" d="M0 0h70.129v31.757H0z"/></clipPath><clipPath id="clip-path-2"><path id="Ret창ngulo_206-2" data-name="Ret창ngulo 206" fill="#17c3b2" d="M0 0h70.129v31.757H0z"/></clipPath></defs><g id="Grupo_206" data-name="Grupo 206" transform="translate(-279 -1736.813)"><g id="Grupo_206-2" data-name="Grupo 206" transform="rotate(-29 3596.25 354.761)"><g id="Grupo_194" data-name="Grupo 194" clip-path="url('#clip-path')"><path id="Caminho_862" data-name="Caminho 862" d="M43.282 6.1a16.807 16.807 0 0 1-14.331.3 9.125 9.125 0 0 1-2.559-1.84 15.337 15.337 0 0 0-3.333-2.535 15.543 15.543 0 0 0-21 5.5A14.9 14.9 0 0 0 7.7 28.1a15.622 15.622 0 0 0 18.4-2.22A9.022 9.022 0 0 1 29.045 24a15.158 15.158 0 0 1 9.424-.374 9.261 9.261 0 0 1 4.619 2.874 15.268 15.268 0 0 0 3.981 3.229 15.544 15.544 0 0 0 21-5.5A14.9 14.9 0 0 0 62.43 3.661 15.641 15.641 0 0 0 45.02 5.02a8.883 8.883 0 0 1-1.738 1.08" fill="#004075"/></g></g><g id="Grupo_207" data-name="Grupo 207" transform="rotate(29 -3209.44 1436.99)"><g id="Grupo_194-2" data-name="Grupo 194" clip-path="url('#clip-path-2')"><path id="Caminho_862-2" data-name="Caminho 862" d="M43.282 25.653a16.807 16.807 0 0 0-14.331-.293 9.125 9.125 0 0 0-2.56 1.84 15.337 15.337 0 0 1-3.333 2.535 15.543 15.543 0 0 1-21-5.5A14.9 14.9 0 0 1 7.7 3.661a15.622 15.622 0 0 1 18.4 2.22 9.022 9.022 0 0 0 2.949 1.871 15.158 15.158 0 0 0 9.424.374 9.261 9.261 0 0 0 4.619-2.872 15.268 15.268 0 0 1 3.978-3.229 15.544 15.544 0 0 1 21 5.5A14.9 14.9 0 0 1 62.429 28.1a15.641 15.641 0 0 1-17.409-1.363 8.883 8.883 0 0 0-1.738-1.084" fill="#17c3b2"/></g></g></g></svg>