<svg id="Grupo_210" data-name="Grupo 210" xmlns="http://www.w3.org/2000/svg" xmlns:xlink="http://www.w3.org/1999/xlink" width="50.745" height="51.385" viewBox="0 0 50.745 51.385">
  <defs>
    <clipPath id="clip-path">
      <rect id="Ret창ngulo_206" data-name="Ret창ngulo 206" width="43.528" height="22.086" fill="#fff" stroke="#00325b" stroke-width="1"></rect>
    </clipPath>
    <clipPath id="clip-path-2">
      <rect id="Ret창ngulo_206-2" data-name="Ret창ngulo 206" width="44.975" height="23.533" fill="#fff" stroke="#00325b" stroke-width="1"></rect>
    </clipPath>
  </defs>
  <g id="Grupo_206" data-name="Grupo 206" transform="matrix(0.875, -0.485, 0.485, 0.875, 0.984, 32.068)">
    <g id="Grupo_194" data-name="Grupo 194" transform="translate(0 0)" clip-path="url('#clip-path')">
      <path id="Caminho_862" data-name="Caminho 862" d="M24.185,3.411a9.391,9.391,0,0,1-8.008.164,5.1,5.1,0,0,1-1.43-1.027,8.57,8.57,0,0,0-1.862-1.417A8.685,8.685,0,0,0,1.15,4.2,8.326,8.326,0,0,0,4.3,15.7a8.729,8.729,0,0,0,10.279-1.24,5.041,5.041,0,0,1,1.648-1.046A8.47,8.47,0,0,1,21.5,13.2a5.175,5.175,0,0,1,2.581,1.6,8.531,8.531,0,0,0,2.225,1.8,8.685,8.685,0,0,0,11.735-3.072,8.326,8.326,0,0,0-3.153-11.5,8.74,8.74,0,0,0-9.728.759,4.964,4.964,0,0,1-.971.606" transform="translate(2.171 2.171)" fill="#fff" stroke="#00325b" stroke-width="1"></path>
    </g>
  </g>
  <g id="Grupo_207" data-name="Grupo 207" transform="matrix(0.875, 0.485, -0.485, 0.875, 11.409, 0)">
    <g id="Grupo_194-2" data-name="Grupo 194" transform="translate(0 0)" clip-path="url('#clip-path-2')">
      <path id="Caminho_862-2" data-name="Caminho 862" d="M24.185,14.334a9.391,9.391,0,0,0-8.008-.164,5.1,5.1,0,0,0-1.43,1.027,8.57,8.57,0,0,1-1.862,1.417A8.685,8.685,0,0,1,1.15,13.541,8.326,8.326,0,0,1,4.3,2.046a8.729,8.729,0,0,1,10.279,1.24A5.041,5.041,0,0,0,16.23,4.332a8.47,8.47,0,0,0,5.266.209,5.175,5.175,0,0,0,2.581-1.6,8.531,8.531,0,0,1,2.225-1.8A8.685,8.685,0,0,1,38.036,4.2a8.326,8.326,0,0,1-3.153,11.5,8.74,8.74,0,0,1-9.728-.759,4.963,4.963,0,0,0-.971-.606" transform="translate(2.894 2.894)" fill="#fff" stroke="#00325b" stroke-width="1"></path>
    </g>
  </g>
</svg>
