<svg xmlns="http://www.w3.org/2000/svg" xmlns:xlink="http://www.w3.org/1999/xlink" width="54.649" height="55.338" viewBox="0 0 54.649 55.338">
  <defs>
    <clipPath id="clip-path">
      <rect id="Ret창ngulo_206" data-name="Ret창ngulo 206" width="46.876" height="23.785" fill="none" stroke="#00223e" stroke-width="2"></rect>
    </clipPath>
    <clipPath id="clip-path-2">
      <rect id="Ret창ngulo_206-2" data-name="Ret창ngulo 206" width="48.435" height="25.344" fill="#004075" stroke="#00223e" stroke-width="2"></rect>
    </clipPath>
  </defs>
  <g id="logo_vet" data-name="logo vet" transform="translate(-273.562 -1731.376)">
    <g id="Grupo_206" data-name="Grupo 206" transform="matrix(0.875, -0.485, 0.485, 0.875, 274.622, 1765.911)">
      <g id="Grupo_194" data-name="Grupo 194" transform="translate(0 0)" clip-path="url('#clip-path')">
        <path id="Caminho_862" data-name="Caminho 862" d="M26.045,3.673a10.114,10.114,0,0,1-8.624.177,5.491,5.491,0,0,1-1.54-1.106,9.229,9.229,0,0,0-2.005-1.526A9.353,9.353,0,0,0,1.238,4.527a8.966,8.966,0,0,0,3.395,12.38A9.4,9.4,0,0,0,15.7,15.571a5.429,5.429,0,0,1,1.775-1.126,9.121,9.121,0,0,1,5.671-.225,5.573,5.573,0,0,1,2.78,1.728,9.187,9.187,0,0,0,2.4,1.943,9.354,9.354,0,0,0,12.638-3.309,8.966,8.966,0,0,0-3.4-12.38,9.412,9.412,0,0,0-10.476.818,5.346,5.346,0,0,1-1.046.652" transform="translate(2.338 2.338)" fill="none" stroke="#00223e" stroke-width="2"></path>
      </g>
    </g>
    <g id="Grupo_207" data-name="Grupo 207" transform="matrix(0.875, 0.485, -0.485, 0.875, 285.849, 1731.376)">
      <g id="Grupo_194-2" data-name="Grupo 194" transform="translate(0 0)" clip-path="url('#clip-path-2')">
        <path id="Caminho_862-2" data-name="Caminho 862" d="M26.045,15.437a10.114,10.114,0,0,0-8.624-.177,5.491,5.491,0,0,0-1.54,1.106,9.229,9.229,0,0,1-2.005,1.526A9.353,9.353,0,0,1,1.238,14.583,8.966,8.966,0,0,1,4.633,2.2,9.4,9.4,0,0,1,15.7,3.539a5.429,5.429,0,0,0,1.775,1.126,9.121,9.121,0,0,0,5.671.225,5.573,5.573,0,0,0,2.78-1.728,9.187,9.187,0,0,1,2.4-1.943A9.354,9.354,0,0,1,40.963,4.527a8.966,8.966,0,0,1-3.4,12.38,9.412,9.412,0,0,1-10.476-.818,5.345,5.345,0,0,0-1.046-.652" transform="translate(3.117 3.117)" fill="#004075" stroke="#00223e" stroke-width="2"></path>
      </g>
    </g>
  </g>
</svg>
