<svg xmlns="http://www.w3.org/2000/svg" width="54.649" height="55.338"><defs><clipPath id="clip-path"><path id="Ret창ngulo_206" data-name="Ret창ngulo 206" fill="none" stroke="#00223e" stroke-width="2" d="M0 0h46.876v23.785H0z"/></clipPath><clipPath id="clip-path-2"><path id="Ret창ngulo_206-2" data-name="Ret창ngulo 206" fill="#004075" stroke="#00223e" stroke-width="2" d="M0 0h48.435v25.344H0z"/></clipPath></defs><g id="logo_vet" data-name="logo vet" transform="translate(-273.562 -1731.376)"><g id="Grupo_206" data-name="Grupo 206" transform="rotate(-29 3550.064 351.844)"><g id="Grupo_194" data-name="Grupo 194" clip-path="url('#clip-path')"><path id="Caminho_862" data-name="Caminho 862" d="M28.383 6.011a10.114 10.114 0 0 1-8.624.177 5.491 5.491 0 0 1-1.54-1.106 9.229 9.229 0 0 0-2.005-1.526A9.353 9.353 0 0 0 3.576 6.865a8.966 8.966 0 0 0 3.395 12.38 9.4 9.4 0 0 0 11.067-1.336 5.429 5.429 0 0 1 1.775-1.126 9.121 9.121 0 0 1 5.671-.225 5.573 5.573 0 0 1 2.78 1.728 9.187 9.187 0 0 0 2.4 1.943 9.354 9.354 0 0 0 12.638-3.309 8.966 8.966 0 0 0-3.4-12.38 9.412 9.412 0 0 0-10.476.818 5.346 5.346 0 0 1-1.046.652" fill="none" stroke="#00223e" stroke-width="2"/></g></g><g id="Grupo_207" data-name="Grupo 207" transform="rotate(29 -3203.205 1417.754)"><g id="Grupo_194-2" data-name="Grupo 194" clip-path="url('#clip-path-2')"><path id="Caminho_862-2" data-name="Caminho 862" d="M29.162 18.554a10.114 10.114 0 0 0-8.624-.177 5.491 5.491 0 0 0-1.54 1.106 9.229 9.229 0 0 1-2.005 1.526A9.353 9.353 0 0 1 4.355 17.7 8.966 8.966 0 0 1 7.75 5.317a9.4 9.4 0 0 1 11.067 1.339 5.429 5.429 0 0 0 1.775 1.126 9.121 9.121 0 0 0 5.671.225 5.573 5.573 0 0 0 2.78-1.728 9.187 9.187 0 0 1 2.4-1.943A9.354 9.354 0 0 1 44.08 7.644a8.966 8.966 0 0 1-3.4 12.38 9.412 9.412 0 0 1-10.476-.818 5.345 5.345 0 0 0-1.046-.652" fill="#004075" stroke="#00223e" stroke-width="2"/></g></g></g></svg>