<svg id="Grupo_210" data-name="Grupo 210" xmlns="http://www.w3.org/2000/svg" width="50.745" height="51.385"><defs><clipPath id="clip-path"><path id="Ret창ngulo_206" data-name="Ret창ngulo 206" fill="#fff" stroke="#00325b" stroke-width="1" d="M0 0h43.528v22.086H0z"/></clipPath><clipPath id="clip-path-2"><path id="Ret창ngulo_206-2" data-name="Ret창ngulo 206" fill="#fff" stroke="#00325b" stroke-width="1" d="M0 0h44.975v23.533H0z"/></clipPath></defs><g id="Grupo_206" data-name="Grupo 206" transform="rotate(-29 62.467 14.126)"><g id="Grupo_194" data-name="Grupo 194" clip-path="url('#clip-path')"><path id="Caminho_862" data-name="Caminho 862" d="M26.356 5.582a9.391 9.391 0 0 1-8.008.164 5.1 5.1 0 0 1-1.43-1.027 8.57 8.57 0 0 0-1.862-1.417A8.685 8.685 0 0 0 3.321 6.371a8.326 8.326 0 0 0 3.15 11.5 8.729 8.729 0 0 0 10.279-1.24 5.041 5.041 0 0 1 1.648-1.046 8.47 8.47 0 0 1 5.273-.214 5.175 5.175 0 0 1 2.581 1.6 8.531 8.531 0 0 0 2.225 1.8 8.685 8.685 0 0 0 11.735-3.072 8.326 8.326 0 0 0-3.153-11.5 8.74 8.74 0 0 0-9.728.759 4.964 4.964 0 0 1-.971.606" fill="#fff" stroke="#00325b" stroke-width="1"/></g></g><g id="Grupo_207" data-name="Grupo 207" transform="rotate(29 5.702 22.05)"><g id="Grupo_194-2" data-name="Grupo 194" clip-path="url('#clip-path-2')"><path id="Caminho_862-2" data-name="Caminho 862" d="M27.079 17.228a9.391 9.391 0 0 0-8.008-.164 5.1 5.1 0 0 0-1.43 1.027 8.57 8.57 0 0 1-1.862 1.417 8.685 8.685 0 0 1-11.735-3.073A8.326 8.326 0 0 1 7.194 4.94a8.729 8.729 0 0 1 10.279 1.24 5.041 5.041 0 0 0 1.651 1.046 8.47 8.47 0 0 0 5.266.209 5.175 5.175 0 0 0 2.581-1.6 8.531 8.531 0 0 1 2.225-1.8A8.685 8.685 0 0 1 40.93 7.094a8.326 8.326 0 0 1-3.153 11.5 8.74 8.74 0 0 1-9.728-.759 4.963 4.963 0 0 0-.971-.606" fill="#fff" stroke="#00325b" stroke-width="1"/></g></g></svg>