<svg xmlns="http://www.w3.org/2000/svg" width="886" height="660"><defs><clipPath id="clip-path"><path id="Ret창ngulo_241" data-name="Ret창ngulo 241" transform="translate(12375.001 8875)" fill="#fff" d="M0 0h886v660H0z"/></clipPath><clipPath id="clip-path-2"><path id="Ret창ngulo_240" data-name="Ret창ngulo 240" transform="translate(0 .002)" fill="none" d="M0 0h1613.383v1308.158H0z"/></clipPath></defs><g id="mascara_default" data-name="mascara default" transform="translate(-12375.001 -8875)" clip-path="url('#clip-path')"><g id="Grupo_244" data-name="Grupo 244" transform="translate(12411 8221.086)"><g id="Grupo_243" data-name="Grupo 243" clip-path="url('#clip-path-2')" fill="#004075"><path id="Caminho_908" data-name="Caminho 908" d="m412.182 577.312-.942-.05q-9.057-.482-18.058-.48c-154.525 0-290.4 104.317-330.42 253.679a342.285 342.285 0 0 0 242.146 419.148 343.586 343.586 0 0 0 88.878 11.76c154.514 0 290.38-104.319 330.4-253.68a345.172 345.172 0 0 0 10.665-61.737l.063-.787.215-.759c2.517-8.881 4.854-18.9 6.946-29.764 41.716-216.732 228.285-296.189 272.438-312.116-19.286-34.977-96.99-172.3-175.445-261.118a230.558 230.558 0 0 1-57.761 97.05c-76.412 76.1-155.277 102.27-210.565 110.452a226.892 226.892 0 0 1-75.62-1.676c-35.459 19.254-65.908 26.952-82.015 29.908Z"/><path id="Caminho_909" data-name="Caminho 909" d="M1419.855 51.88C1234.645-55.051 997.7 8.63 890.609 194.113a386.5 386.5 0 0 0-45.388 122.131q-1.56 8.271-3.683 16.381C934.864 436.151 1026.1 607.059 1026.1 607.059s-229.39 66.052-276.17 309.095c-2.178 11.318-4.554 21.433-7.1 30.434a352.076 352.076 0 0 1-10.913 63.172C690 1166.2 548.463 1269.366 393.787 1269.369a351.031 351.031 0 0 1-90.95-12.032c-186.914-50.084-297.86-242.13-247.8-428.947C98.618 665.735 249.9 560.673 411.665 569.273c13.4-2.459 39.663-8.871 71.116-24.754-.167-.042-.334-.078-.5-.12A387.8 387.8 0 0 0 52.087 726.838C-55 912.315 8.32 1149.35 193.529 1256.282s422.156 43.252 529.24-142.226a387.563 387.563 0 0 0 40.151-98.487c6.633-26.034 17.1-51 32.239-73.2 95.789-140.419 245.224-168.834 316.658-174.106a223.328 223.328 0 0 1 51.9 2.24 387.919 387.919 0 0 0 397.576-189.177c107.091-185.485 43.772-422.52-141.438-529.451"/></g></g></g></svg>