<svg xmlns="http://www.w3.org/2000/svg" width="21.639" height="18.758" viewBox="0 0 21.639 18.758">
  <g id="Grupo_165" data-name="Grupo 165" transform="translate(-932.772 -1051)">
    <g id="paw" transform="translate(931.645 1047.627)">
      <path id="Caminho_796" data-name="Caminho 796" d="M31.394,12.074a2.207,2.207,0,0,0-1.2-1.239l-.007,0a2.1,2.1,0,0,0-.766-.144H29.39a3.821,3.821,0,0,0-3.12,2.6,4.318,4.318,0,0,0-.144,3.23,2.2,2.2,0,0,0,1.2,1.24l.006,0a2.1,2.1,0,0,0,.766.144,3.8,3.8,0,0,0,3.156-2.6,4.337,4.337,0,0,0,.135-3.228Z" transform="translate(-8.879 -2.624)" fill="#3f3c3c"></path>
      <path id="Caminho_797" data-name="Caminho 797" d="M19.241,20.512a4.8,4.8,0,0,1-1.815-1.551c-1.207-2-1.935-3.211-3.845-3.211s-2.641,1.208-3.85,3.21a4.816,4.816,0,0,1-1.82,1.554,4.086,4.086,0,0,0-2.02,1.991,3.018,3.018,0,0,0-.21,1.127,2.882,2.882,0,0,0,2.814,2.939A8.657,8.657,0,0,0,11.048,26a8.88,8.88,0,0,1,2.537-.574A8.824,8.824,0,0,1,16.116,26a8.644,8.644,0,0,0,2.55.569,2.88,2.88,0,0,0,2.809-2.939A3.021,3.021,0,0,0,21.26,22.5a4.086,4.086,0,0,0-2.02-1.992Z" transform="translate(-1.634 -4.44)" fill="#3f3c3c"></path>
      <path id="Caminho_798" data-name="Caminho 798" d="M9.992,9.726a2.49,2.49,0,0,0,1.917,1.044,1.934,1.934,0,0,0,.285-.021c1.459-.215,2.369-2,2.07-4.058a4.78,4.78,0,0,0-.937-2.274,2.49,2.49,0,0,0-1.917-1.042,1.934,1.934,0,0,0-.285.021c-1.459.215-2.369,2-2.07,4.058a4.765,4.765,0,0,0,.936,2.271Z" transform="translate(-2.824 -0.001)" fill="#3f3c3c"></path>
      <path id="Caminho_799" data-name="Caminho 799" d="M20.829,10.747a1.933,1.933,0,0,0,.285.021,2.49,2.49,0,0,0,1.917-1.044,4.79,4.79,0,0,0,.936-2.273c.3-2.062-.611-3.842-2.071-4.058a1.933,1.933,0,0,0-.285-.021,2.5,2.5,0,0,0-1.917,1.043,4.773,4.773,0,0,0-.936,2.274c-.3,2.062.611,3.842,2.071,4.057Z" transform="translate(-6.305)" fill="#3f3c3c"></path>
      <path id="Caminho_800" data-name="Caminho 800" d="M5.436,17.758l.006,0a2.2,2.2,0,0,0,1.2-1.239A4.325,4.325,0,0,0,6.5,13.286a3.8,3.8,0,0,0-3.152-2.6,2.092,2.092,0,0,0-.766.144l-.006,0a2.2,2.2,0,0,0-1.2,1.239A4.325,4.325,0,0,0,1.519,15.3a3.8,3.8,0,0,0,3.152,2.6A2.092,2.092,0,0,0,5.436,17.758Z" transform="translate(0 -2.624)" fill="#3f3c3c"></path>
    </g>
    <text id="_" data-name="+" transform="translate(943.772 1066.752)" fill="#fff" font-size="9" font-family="AmsiPro-Black, AmsiPro ☞" font-weight="800" letter-spacing="0.067em"><tspan x="-2" y="0">+</tspan></text>
  </g>
</svg>
