<svg xmlns="http://www.w3.org/2000/svg" width="17" height="17"><path id="phone" d="M3.409 7.349a13.888 13.888 0 0 0 6.242 6.242l2.081-2.081a.812.812 0 0 1 .974-.221 10.57 10.57 0 0 0 3.365.531.923.923 0 0 1 .642.266.867.867 0 0 1 .287.664v3.32a.987.987 0 0 1-.93.929 15.8 15.8 0 0 1-8.079-2.147 15.859 15.859 0 0 1-5.844-5.843A15.8 15.8 0 0 1 0 .93.889.889 0 0 1 .288.288.891.891 0 0 1 .93 0h3.32a.866.866 0 0 1 .664.288.926.926 0 0 1 .266.641 10.57 10.57 0 0 0 .531 3.365.906.906 0 0 1-.221.974Z" fill="#40c187"/></svg>