<svg xmlns="http://www.w3.org/2000/svg" width="25.297" height="29.514"><g id="Grupo_253" data-name="Grupo 253" transform="translate(-947.351 -4008.074)" fill="#3F3C3C"><path id="Caminho_915" data-name="Caminho 915" d="M12.5 4.143h10.54v2.108H12.5a2.108 2.108 0 0 0-2.108 2.108V29.44a2.108 2.108 0 0 0 2.108 2.108h16.867a2.108 2.108 0 0 0 2.108-2.108V14.683h2.108V29.44a4.216 4.216 0 0 1-4.216 4.216H12.5a4.216 4.216 0 0 1-4.214-4.216V8.359A4.216 4.216 0 0 1 12.5 4.143Z" transform="translate(939.066 4003.932)"/><path id="Caminho_916" data-name="Caminho 916" d="M37.286 11.521V4.143l10.54 10.541h-7.378a3.162 3.162 0 0 1-3.162-3.163Z" transform="translate(924.822 4003.932)"/><path id="Caminho_917" data-name="Caminho 917" d="M20.714 30.249a1.243 1.243 0 0 1 1.243-1.243h12.434a1.243 1.243 0 0 1 0 2.487H21.958a1.243 1.243 0 0 1-1.244-1.244Zm0 4.973a1.243 1.243 0 0 1 1.243-1.243h12.434a1.243 1.243 0 0 1 0 2.487H21.958a1.243 1.243 0 0 1-1.244-1.244Z" transform="translate(931.826 3994.826)" fill-rule="evenodd"/><path id="Caminho_918" data-name="Caminho 918" d="M20.714 35.222a1.243 1.243 0 0 1 1.243-1.243h12.434a1.243 1.243 0 0 1 0 2.487H21.958a1.243 1.243 0 0 1-1.244-1.244Z" transform="translate(931.826 3984.826)" fill-rule="evenodd"/></g></svg>