<svg xmlns="http://www.w3.org/2000/svg" width="25.92" height="25.9"><path id="twitter-box" d="M20.336 9.734a6.558 6.558 0 0 0 1.7-1.824 7.39 7.39 0 0 1-1.882.547 3.78 3.78 0 0 0 1.457-1.946 7.4 7.4 0 0 1-2.246.851 2.884 2.884 0 0 0-1.882-1 3.878 3.878 0 0 0-2.155.3 3.52 3.52 0 0 0-1.608 1.52 3.111 3.111 0 0 0-.3 2.34 10.394 10.394 0 0 1-7.166-3.585 3.41 3.41 0 0 0-.274 2.645 3.155 3.155 0 0 0 1.3 1.976 4.474 4.474 0 0 1-1.457-.425A3.478 3.478 0 0 0 8.5 14.6a3.535 3.535 0 0 1-1.457.061 3.436 3.436 0 0 0 3.218 2.432 5.921 5.921 0 0 1-2.367 1.186 6.742 6.742 0 0 1-2.732.213 9.638 9.638 0 0 0 5.585 1.581 9.59 9.59 0 0 0 6.89-3.01 10.524 10.524 0 0 0 2.699-7.329ZM23.31.25a2.517 2.517 0 0 1 1.852.76 2.452 2.452 0 0 1 .758 1.79v20.8a2.453 2.453 0 0 1-.759 1.793 2.52 2.52 0 0 1-1.851.76H2.61a2.517 2.517 0 0 1-1.852-.76A2.452 2.452 0 0 1 0 23.6V2.8a2.453 2.453 0 0 1 .759-1.79A2.52 2.52 0 0 1 2.61.25Z" transform="translate(0 -.25)" fill="#40c187"/></svg>